/* XPM */
static char *result[] = {
/* columns rows colors chars-per-pixel */
"50 50 247 2 ",
"   c #7B846B",
".  c #889278",
"X  c #828C72",
"o  c #828B72",
"O  c #879177",
"+  c #818B71",
"@  c #838D73",
"#  c #848E73",
"$  c #818B70",
"%  c #879176",
"&  c #869075",
"*  c #858F75",
"=  c #889277",
"-  c #828D72",
";  c #838E73",
":  c #8A947A",
">  c #848E74",
",  c #838B72",
"<  c #858E74",
"1  c #858D74",
"2  c #818870",
"3  c #80886F",
"4  c #838F73",
"5  c #7B876C",
"6  c #899379",
"7  c #8C947A",
"8  c #8C947B",
"9  c #7F8B6F",
"0  c #849075",
"q  c #879277",
"w  c #7E886E",
"e  c #828C71",
"r  c #858F74",
"t  c #8C967C",
"y  c #848E75",
"u  c #889279",
"i  c #818A71",
"p  c #848D74",
"a  c #80896F",
"s  c #838C73",
"d  c #808A70",
"f  c #7F8970",
"g  c #858E75",
"h  c #838D72",
"j  c #899278",
"k  c #8C957B",
"l  c #828B71",
"z  c #879276",
"x  c #8B957B",
"c  c #7F896E",
"v  c #848D73",
"b  c #848F74",
"n  c #838E72",
"m  c #838C72",
"M  c #818D71",
"N  c #889378",
"B  c #8C957C",
"V  c #868F76",
"C  c #889178",
"Z  c #7D876E",
"A  c #7B856B",
"S  c #8D977C",
"D  c #899479",
"F  c #8D987D",
"G  c #8D987C",
"H  c #869175",
"J  c #889377",
"K  c #859075",
"L  c #7E886D",
"P  c #878F75",
"I  c #879377",
"U  c #869176",
"Y  c #869076",
"T  c #859076",
"R  c #879076",
"E  c #808A6F",
"W  c #8C967B",
"Q  c #899378",
"!  c #8E987D",
"~  c #7F8B70",
"^  c #8A9579",
"/  c #8E997D",
"(  c #848C72",
")  c #878F76",
"_  c #8A9379",
"`  c #838F74",
"'  c #8A9479",
"]  c #868F75",
"[  c #8E987E",
"{  c #7D876D",
"}  c #929C82",
"|  c #889177",
" . c #899277",
".. c #8E977C",
"X. c #8B957A",
"o. c #818D72",
"O. c #808C70",
"+. c #7D886D",
"@. c #818C71",
"#. c #89947A",
"$. c #8B967B",
"%. c #859074",
"&. c #848D72",
"*. c #7C856B",
"=. c #859175",
"-. c #7F896F",
";. c #838C71",
":. c #8B947A",
">. c #8D967C",
",. c #909A7F",
"<. c #8A9378",
"1. c #7D896D",
"2. c #7F8A6F",
"3. c #8F997E",
"4. c #8A9279",
"5. c #869276",
"6. c #919B81",
"7. c #8D967B",
"8. c #919A80",
"9. c #949E83",
"0. c #889478",
"q. c #8E977D",
"w. c #8A957A",
"e. c #8A967A",
"r. c #909A80",
"t. c #8F997F",
"y. c #929C81",
"u. c #818A6F",
"i. c #899478",
"p. c #808B70",
"a. c #818C70",
"s. c #828D71",
"d. c #939D82",
"f. c #8C977C",
"g. c #899377",
"h. c #8E997E",
"j. c #889077",
"k. c #848F73",
"l. c #889379",
"z. c #879278",
"x. c #818A70",
"c. c #7F886F",
"v. c #8D977D",
"b. c #869277",
"n. c #838E74",
"m. c #828D73",
"M. c #808970",
"N. c #899177",
"B. c #848C74",
"V. c #919B80",
"C. c #90997F",
"Z. c #909B80",
"A. c #8B967A",
"S. c #879075",
"D. c #8B967C",
"F. c #889076",
"G. c #818970",
"H. c #868E76",
"J. c #7D856C",
"K. c #868E75",
"L. c #90987F",
"P. c #8E967D",
"I. c #8C977B",
"U. c #849074",
"Y. c #7F876D",
"T. c #899178",
"R. c #848C73",
"E. c #889176",
"W. c #8B9479",
"Q. c #858D73",
"!. c #868F74",
"~. c #8D957C",
"^. c #8F987D",
"/. c #848F75",
"(. c #899579",
"). c #869177",
"_. c #889276",
"`. c #808B6F",
"'. c #7E896E",
"]. c #879378",
"[. c #939B81",
"{. c #8F977D",
"}. c #929B81",
"|. c #919C80",
" X c #8A9177",
".X c #929D81",
"XX c #8C957A",
"oX c #8B937A",
"OX c #7F886E",
"+X c #858E73",
"@X c #939E83",
"#X c #899279",
"$X c #828E72",
"%X c #7B846A",
"&X c #8A947B",
"*X c #808870",
"=X c #828C73",
"-X c #8D967D",
";X c #879077",
":X c #859176",
">X c #828E73",
",X c #858D75",
"<X c #818C72",
"1X c #808C71",
"2X c #879175",
"3X c #7E8A6F",
"4X c #849175",
"5X c #8F9A7E",
"6X c #889479",
"7X c #8D997D",
"8X c #7B856A",
"9X c #869074",
"0X c #909B7F",
"qX c #8A957B",
"wX c #869178",
"eX c #8A9478",
"rX c #828A71",
"tX c #8F9B7F",
"yX c #8F987E",
"uX c #7E876E",
"iX c #919C81",
"pX c #828B70",
"aX c #8A9178",
"sX c #939C82",
"dX c #8A9278",
"fX c #8B9379",
"gX c #8C977D",
"hX c #858F76",
"jX c #818971",
"kX c #889078",
"lX c #899179",
"zX c #848E72",
"xX c #8E967B",
"cX c #90997E",
"vX c #90987D",
"bX c #838D74",
"nX c #828A72",
"mX c #838B73",
"MX c #8D957B",
"NX c #7B826A",
"BX c #8B947B",
"VX c #868D76",
"CX c #7F876F",
"ZX c #7E876D",
"AX c #7C866C",
"SX c #7A846B",
"DX c white",
/* pixels */
"  . X X o O + @ # @ $ % & * @ = - ; : > , < 1 2 3 4 5 6 7 8 - 9 0 q w e r t O > . y > u X i p a p s ",
"d > f d > * g h > r . j t k l r z - x c v . v l < b n ; k m & 4 M N > * > x : . 6 B * V C Z y . + s ",
"k . > d # A * - r q S D F G # - # % D H ; J > N * % K L l P @ - I U * Y T : S > * > 6 R r E Y @ > % ",
"W Q W v ! & x r ~ N D & W ^ b / U U N ; ; q O Q & % T > ( ) _ K ` N x O j ' & O ] % [ x @ { @ & . h ",
"} | R  ._ ..X.b o.O.+.@.N K Q X.K F #.$.%.% O ' * : & &.] *.O ; =.N t -.R + = . . v j | v m ;.l ! :.",
">.,._ <.O j ' H - 1.2.@.6 6 Y D 3.$.D X.U b [ & Q ] > ] P 4.* K 5.W 6.W O . & < R m ] r ;.]  .:.k l ",
",.7.8.9.' Q m q 0.@.; r t q.q F $.w.w.% K e.q.x + . b * m 6 & N N 6 r.t t.S X.y.W O u.R = ;.& u.' v ",
"# @.K i.U S p.- X.- a.: k >.& ; s.= & e =.N r.d.3.X.D > # O t . f.* > O D q g.' / t = > * W * d e h ",
"# H H Q & U % & h.- $.O _ j.-.b . U & k.6 l.z.: X.! O = & ' N b & x.c.i v.D b.h S < 6 r v.W k Y . = ",
"- k.b H U %.H S K X.$.$.W ] # % ' X.O q % 6 -.n.6 Y U %.r > m.m $ w d M.E H q Q z ' ' r : * > % | q ",
",.r a | = x Y q S F D Q 6 | X.G / X.b > s N.v @ O U @ r r r < v < 1 B.C % K N f.= : S j ' ,.V.Q >.C.",
"c > & r :.t._ ^ F ^ $.q D K U Z.A.K * 6 r S.<.$.D.$.& # b % k F.G.R H.1 R ; X # = v.t ' t % . 6 Y > ",
"J.V < K.L.P._ > - b Q @.r N k.z q i.I.S X.W X v.3.X.U U.b U ' < ] C > < Y % Y l P.P.>.> r h % = Q l ",
"Y.a N.= | 8 l @.q U z h & & K $.F W W D 0 0.U = j Q r Y = N 6 * > % % r < ] v | | 4.T.E X & q O j R.",
"T.4.| R E._ v r Q w.D r ' O $.q . w.X.D O & b K f.^ q : - : K b r U 6 * b | | j < W.Q.v U = K v.* ] ",
"!.~.: ^.j S.Q f.G / & r p.h * ; /.& ; 2.q ' = (.w.= S A.U X.).K K Y % q U = x W >.] P W._.% `.K h # ",
"a | ,.3.w.W - f.3.J ; U '.m + K D N ' & Q : q K % % 6 U F $.f.w.; Y O ' O K ' y.' : j 7.W X.% & $ S.",
"c 6 %.K b D H %.q ].w.S X.j  .Q $.I.K q % . n.U [ & D Z.f.D Q U q = 6 . W : N K U K D [.{.f.H U ; ! ",
"h.& z.$.q K K q f.W S ,.}.= q |.,.w.b b @  .& _ q.t % % % W U b 5.t ! = q U % q . ; K  X^..XH b Q k.",
"' | /.X X.w.D W ^ XX..,.x K K A.^ H * Q < % : <.>.p - m.b & E b N : oX@ h 0 U q /.> - OX+Xi.b z b h ",
"w.6 . | V.@Xr % ' $.: j Q X.; U q i.W S D X.D Q #Xl @.D N w.z Q Q q < E K Q K O . j & c a $Xz U r H ",
"Z.X.; q / F - c w % %XF.R U N $.S A.D U U Q 6 v.j | D Q G q b >  .| < Q D 6 U & Q 6 % - ; =.K q Q z ",
"H : Y # W I.: > X o 1 4.| # w.z J z O U % w.D = % & F |.I.K O @ ] R O . h.F >.3. .= % K & b H l.| % ",
"w.6 K ; > Y &X> i *XK.g c.% H * K O : 6 = f.D J ' b N i.U Y X.:.= Q q % ' & S ,.' W c # Q # @.Y 6 w.",
"' ; # & q C _ V v 1 3 < O O * U ] . x Q & # - ; U b K $.X.f.S N ' U Y K ; - - U ; ' K - S @ - > j $.",
"R.=Xm.' x ' f.. # # h # K O O ' Q 6 ' Y + b q % % q w.Q X.$.w.N k.; - @.- q N ^ = %.H W A.& I.: S l ",
"-X;X2.r q Q $.K r = H z K > R . U K % > @ z w.w.q Y J W f.D ' ' :X>X'.X K @.'.# & O % 6 U f.D q x ) ",
",X,XX p.p.K q H U k.K = U . Q :.:.h b . = $.$.l.K O ' F ^ $.Q h q 0.@.b K K * 6 _ [ Y D V.f.q U $.1 ",
"= = % e @.; . % b # K K = k N f.S # n ; U D.Q K w.Q b o.b Q q @.- X.- - = % m e ..^.W % % % N 2.. r ",
"> e | h n.K q * = O <XK : ' U W w.b / U U N ; r X.@ @.q U % H & H h.X $.Y * E.j ~.~.> ; ; k.U >X. r ",
"'.= N E r ; > . k q o.@.; 2.1XN K Q X.K F #.$.U = < r Q w.: r % S K X.$.x Q j R R :.x.; D b - T H r ",
"= 2XD - # D O _ : q - o.3X`.@.6 Q Y D 3.$.D X.5.& Q f.G / U Q Y q S F D J ' | . & 6 * n S @.O D N ' ",
"D O r %.% w.: #.Q U N 2.b ; K t ! q F $.w.: % 4X^ ; f.5XJ K t ' ' F ^ $.q Q J $.= K U W w.U $.6XD > ",
"* @ % r X = z X.; e 6 % Y K N X.>.& ; s.= & e U.D U U.q q : v.6 # - k.Q e - X # & O % D U F X.! ! = ",
". * e %Xh @ ; 6 # X R N K q Q 6 R E b z.U & k.N N K i.f.f.Q Q e <X).U = e b & 6 6 [ Y D Z.f.D % z Q ",
"& % = $ c $ e @ % f.x S z %.Q O * # q ' X.= U U % Q D q Q % % > ; q ' Q b = m l ..^.W % % % W U U x ",
"6 : & : R E > # X.N N $.%.%.U % = . ' S D ; b @ e - & = U U U * # b K q b s R j ~.~.> - m.b & c n Q ",
"v.v.X.S : X r s.; H q D r > > = k . x X.u Y l.l @.K b K q % X * - r J X.= s . R S.oXl @.D N w.% ^ @ ",
"e @ + & O & 6 r E X ; q # = > Q t . @ > O & . -.> > b U z.%.% x K p.J 6 O :.| j | | | D Q G q h K % ",
"L c { X > X # - h &.s O w.Q q 6 = % % ] x [ O -.2.* * * Y . k X.b o.1X+.s.6 [ y.:. .* 7X|.I.r q 8X# ",
"6 & h < * + & ' = 9X_ # = v @ > @ 6 Q ] +XX.R e # p.%.* Y = _ ' H - 1.9 e O X.q b.f.b N i.U K J # # ",
"F 0X& % J q # I.q & r % Q v.Q % 6 e j v m > ] +X& - w.& Y . = m q 0.@.; K : U D K & b U.$.w.! C.}.S ",
"/ J S X.U i.' ^ Q Q Q $.qX6 ! t.' C.t._ @ x.K.& b ` N % : & t @.- X.- a.X.| N q . q N w.w.XXW V.3.%.",
",.! ! f.# r - w.W h q X.p.wXO D % eXW W r ] rX] D >X4 ! * O U K U h.- $.O Q O h ,.tX5.X.W x yX7._ W ",
"U w.W ' ' k.E m L e h > uXM.;Xv.z.b % X.> R , m r b w.t : + Y K S K X.$.$.t ] Q 5XiX# e h X.d j.Y 3.",
"W 3.X.W Q # L c d pXe w d M.f s.q = | H q v aX_ * b.I t.sXv.6 % O f.F : 6 ' Y w.0XI.r d 2.@ Y.N.dXv ",
"N ' k.e K J r Q.dXfX( < R.K.j K K f.X.% Q O # 6 Q D 6Xz.: : G Q : $.N l.U T & & ' w.gXhXX jXkXlX3 # ",
"i.Q zXQ f.iX$.xXcXvXx.Q.j.B.R & - h . O !.: -.K : D x w bXY ' . ] m.+ V R.j.Y j . Y . @ nXnXnXmX, & ",
"$.G % : # X.W  .dXMXrX:.R.g s = & r : Q ( j.R.nXY % + @ m Y % - x p ,X,X,XM._ t.W > * #XK.o NXK.8 ' ",
"x v.BXY < * + -.m R e O R = r b `.; > r m Q.p VXCXb.; r S.1 X - - . v ZX. * : v.O : * p AXOX-.SXuXo "
};
