/* XPM */
static char *result[] = {
/* columns rows colors chars-per-pixel */
"50 50 149 2 ",
"   c #151E13",
".  c #181A14",
"X  c #172015",
"o  c #1B2416",
"O  c #1D2C15",
"+  c #1D2619",
"@  c #1D2A1B",
"#  c #1F3116",
"$  c #212E17",
"%  c #222E1B",
"&  c #223515",
"*  c #253917",
"=  c #23331B",
"-  c #263C1A",
";  c #283E1C",
":  c #1F2624",
">  c #232D24",
",  c #242D2B",
"<  c #253425",
"1  c #2A3624",
"2  c #273823",
"3  c #2A3C26",
"4  c #273229",
"5  c #28352B",
"6  c #2B3C2C",
"7  c #252F30",
"8  c #263131",
"9  c #2A3335",
"0  c #2E3A34",
"q  c #2B3739",
"w  c #2E3B3C",
"e  c #30373B",
"r  c #313B3C",
"t  c #27411B",
"y  c #2B441C",
"u  c #2E4A1E",
"i  c #304D1E",
"p  c #33541E",
"a  c #2E4425",
"s  c #2E4B20",
"d  c #2D412A",
"f  c #314D23",
"g  c #30402A",
"h  c #394F2F",
"j  c #345323",
"k  c #395527",
"l  c #375925",
"z  c #395C26",
"x  c #375429",
"c  c #395629",
"v  c #3A5D29",
"b  c #2F4134",
"n  c #334333",
"m  c #394E34",
"M  c #34443B",
"N  c #38433E",
"B  c #374B39",
"V  c #3A4A3F",
"C  c #365030",
"Z  c #395135",
"A  c #3D5832",
"S  c #3A513C",
"D  c #3C6225",
"F  c #3D6826",
"G  c #3D632A",
"H  c #3E6929",
"J  c #3F6230",
"K  c #41672D",
"L  c #426B2D",
"P  c #45732D",
"I  c #49772F",
"U  c #457A2C",
"Y  c #497A2D",
"T  c #426630",
"R  c #456C32",
"E  c #486E36",
"W  c #476A39",
"Q  c #4B6B3B",
"!  c #477231",
"~  c #497434",
"^  c #4B7C33",
"/  c #4E7A38",
"(  c #517F3A",
")  c #333E41",
"_  c #383F44",
"`  c #354345",
"'  c #394147",
"]  c #374A43",
"[  c #374649",
"{  c #3C454A",
"}  c #374A4B",
"|  c #3C494D",
" . c #404A4E",
".. c #435245",
"X. c #475F42",
"o. c #495A4B",
"O. c #414C51",
"+. c #445155",
"@. c #4A6044",
"#. c #4F6D40",
"$. c #527241",
"%. c #59774A",
"&. c #537948",
"*. c #5C7B4C",
"=. c #4D822D",
"-. c #50872C",
";. c #538C2F",
":. c #54902E",
">. c #4E8232",
",. c #518436",
"<. c #548B35",
"1. c #53853A",
"2. c #58863D",
"3. c #558A3A",
"4. c #598E3C",
"5. c #569331",
"6. c #599535",
"7. c #5C9C34",
"8. c #569139",
"9. c #5B943D",
"0. c #5C993B",
"q. c #60973F",
"w. c #5EA234",
"e. c #5FA138",
"r. c #61A535",
"t. c #63A837",
"y. c #62A539",
"u. c #65A93A",
"i. c #68AD3E",
"p. c #578840",
"a. c #5D8C49",
"s. c #5C9342",
"d. c #5E9A41",
"f. c #629E43",
"g. c #69835D",
"h. c #65A546",
"j. c #68A545",
"k. c #6AAF40",
"l. c #6CA849",
"z. c #6DB442",
"x. c #71B449",
"c. c #75BD49",
"v. c #6D8561",
"b. c #6F8962",
"n. c #708A63",
"m. c #738B68",
"M. c #7B936F",
"N. c #79C04D",
"B. c None",
/* pixels */
"B.B.B.B.B.B.B.B.B.B.B.B.B.B.B.B.B.B.B.B.B.B.B.B.B.B.B.B.B.B.B.B.B.B.B.B.B.B.B.B.B.B.B.B.B.B.B.B.B.B.",
"B.B.B.B.B.B.B.B.B.B.B.B.B.B.B.B.B.B.B.B.B.B.B.B.B.B.B.B.B.B.B.B.B.B.B.B.B.B.B.B.B.B.B.B.B.B.B.B.B.B.",
"B.B.B.B.B.B.B.B.B.B.B.B.B.B.B.B.B.B.B.B.B.B.B.B.B.B.B.B.B.B.B.B.B.B.B.B.B.B.B.B.B.B.B.B.B.B.B.B.B.B.",
"B.B.B.B.B.B.B.B.B.B.B.B.B.B.B.B.B.B.B.B.B.B.B.B.B.B.B.B.B.B.B.B.B.B.B.B.B.B.B.B.B.B.B.B.B.B.B.B.B.B.",
"B.B.B.B.B.B.B.B.B.B.B.B.B.B.B.B.B.B.B.B.B.B.B.B.B.B.B.B.B.B.B.B.B.B.B.B.B.B.B.B.B.B.B.B.B.B.B.B.B.B.",
"B.B.B.B.B.B.B.B.B.B.B.B.B.B.B.B.B.B.B.B.B.B.B.B.B.B.B.B.B.B.B.B.B.B.B.B.B.B.B.B.B.B.B.B.B.B.B.B.B.B.",
"B.B.B.B.B.B.B.B.B.B.B.B.B.B.B.B.B.B.B.B.B.B.B.B.B.B.B.B.B.B.B.B.B.B.B.B.B.B.B.B.B.B.B.B.B.B.B.B.B.B.",
"B.B.B.B.B.B.B.B.B.B.B.B.B.B.B.B.B.B.B.B.B.B.B.B.B.B.B.B.B.B.B.B.B.B.B.B.B.B.B.B.B.B.B.B.B.B.B.B.B.B.",
"B.B.B.B.B.B.B.B.B.B.B.B.B.B.B.B.B.B.B.B.B.B.B.B.B.B.B.B.B.B.B.B.B.B.B.B.B.B.B.B.B.B.B.B.B.B.B.B.B.B.",
"B.B.B.B.B.B.{ | +. .O. ._ [ ) _ { ' ) ' | _ ) _ ' ) { | M n M B b 6 0 r n B B b n 0 e ) | { O.[ { B.",
"B.B.B.B.B.) r r } ` [ r > w M 5 5 ` w : } M , q [ ) : 0 6 = 6 6 @ # 3 < % > 4 @ 2 2 , 7 [ w 9 q , B.",
"B.B.B.B.B.+.| [ } [ [ ` 3 n > O o > 6 A W W f > w 4 = v v K T K z a s x j j s u f j * > 0 5 5 ) w q ",
"B.B.B.B.B.' ` n S Z b d f l P F L U G z x x f j I ! P D K l ~ ~ R H H R ! L G v v G f y j ! R s @ 0 ",
"B.B.B.B.B.% E 4.<.7.P >.=.P P Y P H G D G v j K P P ! G H v G ~ R G v v z v v v v l f z j R G G = B.",
"B.B.B.B.B.% 9.x.w.w.<.e.>.P P >.L z j j j s s y j R ~ z G R x G R l z v z j f j z f J R j K %.g.;   ",
"B.B.B.B.B.= 9.c.w.t.5.y.0.8.Y 8.4.K G G G G j j u j j y u f s y t s f x j z z j z G J ! l ! v.M.y   ",
"B.B.B.B.B.6 q.c.t.t.7.w.0.8.Y 0.4.D D z D i y - t y u y y y y t t u H ,.1.1.1.1.2.! j R l ~ E T t   ",
"B.B.B.B.B.6 q.c.t.w.t.w.0.8.^ 6.4.l k j - y z D ,.9.d.3.,.,.1.3.G - y P ~ G L L P H j G l ^ K G ; X ",
"B.B.B.B.B.B.2.l.8.7.w.w.6.8.=.0.<.K j y F U P G 4.3.s.>./ ^ 1.3.9.3.H y f j G R ! H j z u z f & # o ",
"B.B.B.B.B.B.B.@.A z I 7.=.P L 5.I t i K U U H ^ 0.9.9.^ R ,.1.3.3.8.3.! j - G >.3.! j G z / 1.! j n ",
"B.B.B.B.B.B.B.B.3.3.4.7.-.Y -.;.l u L U P F ! d.h.d.h.3.! >.3.3.1.3.3.3.U # D ~ / R v G z / 9.3.R X.",
"B.B.B.B.B.B.B.B.* p P r.r.q.-.y t F F F H 9.h.h.h.h.h.d.3.8.3.1.3.3.3.1.Y # j R E E R J s s f O = B.",
"B.B.B.B.B.B.B.Z a Y r.5.;.F j u i j j f ! d.h.h.h.h.f.8.1.1.3.1.3.1.^ L H # f R ~ E G J j f u 2 B.B.",
"B.6 R T T c n 1 % i D p F z 3.,.,.3.3.3.8.h.h.h.h.h.h.d.3.3.3.3.1.^ 3.3.I * u G G v J H v.*.G a B.B.",
"B.$ z.r.r.7.,.<.7.7.7.F z L h.h.h.h.h.h.h.h.h.h.h.h.h.d.8.3.3.3.3.1.d.h.8.; j R ~ ~ ~ R n.m.W a B.B.",
"B.. z.r.r.7.<.5.7.7.w.P D L h.h.h.h.h.h.h.h.h.h.h.h.h.d.3.8.3.3.1.,.d.h.9.- j R ~ ~ ~ W $.Q z a B.B.",
"B.o x.r.r.7.P z F D D l j K j.h.h.h.h.h.h.h.h.h.h.h.h.d.3.s.1.3.1.^ 8.h.3.- j R Q ~ ~ R g.b.W f B.B.",
"B.B.i p j i N ..] &.a.P p i D K H / ~ H >.h.h.h.h.h.h.d.3.3.1.3.3.1.^ ^ H # p G J T T R g.n.R a B.B.",
"B.B.B.B.B.B.B.Z a >.y.r.w.;.D s G j j u <.d.h.h.h.h.h.d.8.8.3.3.3.3.,.3.^ & j K E R R ! #.Q v 2 B.B.",
"B.B.B.B.B.B.B.B.; H ! y.w.w.w.D j >.U H H H 3.d.h.h.h.d.8.3.3.3.3.3.3.9.>.& j R ~ W x f t & $ % B.B.",
"B.B.B.B.B.B.B.B.3.8.d.i.u.w.w.>.F u H =.U U H ^ 8.d.h.3.^ ~ 1.3.3.3.3.P z * G ^ 1.! G v z ~ ( ( A B.",
"B.B.B.B.B.B.B.o.C D -.i.i.u.e.>.H D j H U =.H H d.h.h.3.^ 1.3.1.4.3.U l t u ~ 4.s.^ j v G 2.0.1.x B.",
"B.B.B.B.B.B.2.f.3.:.7.t.i.i.r.Y l 0.^ D l U U D 3.f.h.3.^ ,.4.9.^ F y i z G K ! ! H j j j z x * ; + ",
"B.B.B.B.B.6 q.c.u.5.=.-.Y q.u.Y l 0.8.8.H y j j >.3.>.I G P P P u - j 1.1.R ! ~ ^ R j z z R v z - X ",
"B.B.B.B.B.V q.c.r.=.Y 5.p Y 6.I l 0.8.8.3.j - - u u y t - y y y y j K s.s.2.p.p.p.! j l G ~ J G t X ",
"B.B.B.B.B.1 q.x.r.q.w.t.L K 2.P l 0.8.8.8.l l G l H H j z K L j u f j z l v v j x z J G D ~ G G -   ",
"B.B.B.B.B.% q.x.7.w.r.t.P K 5.P l <.^ >.^ j j v L I U l K ~ v T ! l v v v j j f z s z z z R G G - + ",
"B.B.B.B.B.% ^ h.7.7.7.y.L K ( ! G G D G D G L L I ^ I G P H K ~ ! v v v z v z v v z s l z H G G = > ",
"B.B.B.B.B.9 M Z A x D <.D k <.I >.3.P >.4.8.9.8.8.8.^ G H v ~ ~ R L K ! R R L G v G s s z P H v O B.",
"B.B.B.B.B.O.} [ } [ [ e 1 4 $ $ o > x ^ ;.;.D > w 4 = G G K G v v y j j j j f f j x 2 < 0 d 6 9 9 w ",
"B.B.B.B.B.) w ) [ [ [ ` : r M 5 5 ` w < S B 4 9 [ ` : b 3 = < 6 @ $ < 1 % > < @ < < , 8 [ w 9 9 8 B.",
"B.B.B.B.B.B.|  .O.| O. .) { ` ' { ' ` ' | ' ) ' ) ) { { N n n B n 6 0 0 0 B B n n 0 r ) { ' O.{ { B.",
"B.B.B.B.B.B.B.B.B.B.B.B.B.B.B.B.B.B.B.B.B.B.B.B.B.B.B.B.B.B.B.B.B.B.B.B.B.B.B.B.B.B.B.B.B.B.B.B.B.B.",
"B.B.B.B.B.B.B.B.B.B.B.B.B.B.B.B.B.B.B.B.B.B.B.B.B.B.B.B.B.B.B.B.B.B.B.B.B.B.B.B.B.B.B.B.B.B.B.B.B.B.",
"B.B.B.B.B.B.B.B.B.B.B.B.B.B.B.B.B.B.B.B.B.B.B.B.B.B.B.B.B.B.B.B.B.B.B.B.B.B.B.B.B.B.B.B.B.B.B.B.B.B.",
"B.B.B.B.B.B.B.B.B.B.B.B.B.B.B.B.B.B.B.B.B.B.B.B.B.B.B.B.B.B.B.B.B.B.B.B.B.B.B.B.B.B.B.B.B.B.B.B.B.B.",
"B.B.B.B.B.B.B.B.B.B.B.B.B.B.B.B.B.B.B.B.B.B.B.B.B.B.B.B.B.B.B.B.B.B.B.B.B.B.B.B.B.B.B.B.B.B.B.B.B.B.",
"B.B.B.B.B.B.B.B.B.B.B.B.B.B.B.B.B.B.B.B.B.B.B.B.B.B.B.B.B.B.B.B.B.B.B.B.B.B.B.B.B.B.B.B.B.B.B.B.B.B.",
"B.B.B.B.B.B.B.B.B.B.B.B.B.B.B.B.B.B.B.B.B.B.B.B.B.B.B.B.B.B.B.B.B.B.B.B.B.B.B.B.B.B.B.B.B.B.B.B.B.B.",
"B.B.B.B.B.B.B.B.B.B.B.B.B.B.B.B.B.B.B.B.B.B.B.B.B.B.B.B.B.B.B.B.B.B.B.B.B.B.B.B.B.B.B.B.B.B.B.B.B.B."
};
