/* XPM */
static char *_f2b4a87ce4e49b7f7e6122ac16fc04dNI5oXh7kQ50zpXb2[] = {
/* columns rows colors chars-per-pixel */
"50 50 149 2 ",
"   c None",
".  c #151E13",
"X  c #181A14",
"o  c #172015",
"O  c #1B2416",
"+  c #1D2C15",
"@  c #1D2619",
"#  c #1D2A1B",
"$  c #1F3116",
"%  c #212E17",
"&  c #222E1B",
"*  c #223515",
"=  c #253917",
"-  c #23331B",
";  c #263C1A",
":  c #283E1C",
">  c #1F2624",
",  c #232D24",
"<  c #242D2B",
"1  c #253425",
"2  c #2A3624",
"3  c #273823",
"4  c #2A3C26",
"5  c #273229",
"6  c #28352B",
"7  c #2B3C2C",
"8  c #252F30",
"9  c #263131",
"0  c #2A3335",
"q  c #2E3A34",
"w  c #2B3739",
"e  c #2E3B3C",
"r  c #30373B",
"t  c #313B3C",
"y  c #27411B",
"u  c #2B441C",
"i  c #2E4A1E",
"p  c #304D1E",
"a  c #33541E",
"s  c #2E4425",
"d  c #2E4B20",
"f  c #2D412A",
"g  c #314D23",
"h  c #30402A",
"j  c #394F2F",
"k  c #345323",
"l  c #395527",
"z  c #375925",
"x  c #395C26",
"c  c #375429",
"v  c #395629",
"b  c #3A5D29",
"n  c #2F4134",
"m  c #334333",
"M  c #394E34",
"N  c #34443B",
"B  c #38433E",
"V  c #374B39",
"C  c #3A4A3F",
"Z  c #365030",
"A  c #395135",
"S  c #3D5832",
"D  c #3A513C",
"F  c #3C6225",
"G  c #3D6826",
"H  c #3D632A",
"J  c #3E6929",
"K  c #3F6230",
"L  c #41672D",
"P  c #426B2D",
"I  c #45732D",
"U  c #49772F",
"Y  c #457A2C",
"T  c #497A2D",
"R  c #426630",
"E  c #456C32",
"W  c #486E36",
"Q  c #476A39",
"!  c #4B6B3B",
"~  c #477231",
"^  c #497434",
"/  c #4B7C33",
"(  c #4E7A38",
")  c #517F3A",
"_  c #333E41",
"`  c #383F44",
"'  c #354345",
"]  c #394147",
"[  c #374A43",
"{  c #374649",
"}  c #3C454A",
"|  c #374A4B",
" . c #3C494D",
".. c #404A4E",
"X. c #435245",
"o. c #475F42",
"O. c #495A4B",
"+. c #414C51",
"@. c #445155",
"#. c #4A6044",
"$. c #4F6D40",
"%. c #527241",
"&. c #59774A",
"*. c #537948",
"=. c #5C7B4C",
"-. c #4D822D",
";. c #50872C",
":. c #538C2F",
">. c #54902E",
",. c #4E8232",
"<. c #518436",
"1. c #548B35",
"2. c #53853A",
"3. c #58863D",
"4. c #558A3A",
"5. c #598E3C",
"6. c #569331",
"7. c #599535",
"8. c #5C9C34",
"9. c #569139",
"0. c #5B943D",
"q. c #5C993B",
"w. c #60973F",
"e. c #5EA234",
"r. c #5FA138",
"t. c #61A535",
"y. c #63A837",
"u. c #62A539",
"i. c #65A93A",
"p. c #68AD3E",
"a. c #578840",
"s. c #5D8C49",
"d. c #5C9342",
"f. c #5E9A41",
"g. c #629E43",
"h. c #69835D",
"j. c #65A546",
"k. c #68A545",
"l. c #6AAF40",
"z. c #6CA849",
"x. c #6DB442",
"c. c #71B449",
"v. c #75BD49",
"b. c #6D8561",
"n. c #6F8962",
"m. c #708A63",
"M. c #738B68",
"N. c #7B936F",
"B. c #79C04D",
/* pixels */
"                                                                                                    ",
"                                                                                                    ",
"                                                                                                    ",
"                                                                                                    ",
"                                                                                                    ",
"                                                                                                    ",
"                                                                                                    ",
"                                                                                                    ",
"  } } ..}  ._ t q m h N N m q q 4 m N V m B } } _ ] ` _ ]  .] ` ]  .` ' } _  .+.+.+... .            ",
"  8 0 0 w ' 9 < 3 1 # 1 5 & 1 1 % # 4 5 - 4 n > ' { 0 5 V D 5 e N 5 6 ' w , t { ' { _ t _           ",
"w w 0 4 f q 1 3 c k d g k k z d u v b R L H H - 5 t , G :.:./ Z , O @ @ 4 3 t } | | {  .+.          ",
"  + x L I b i d H b H P E ~ ~ P I E ^ ^ x J F ,.9.9.5.9.9.5.,.I 1.,.^ 1.x H 1.F c S A N 0           ",
", - H H E b z d v b x x c x v x b E ^ H G I H I U U ~ J H F F F L H I <.P P t.8.8.8.j.( %           ",
"@ ; H H J H b b d b k k c x H b z ~ L b ^ P z I U J b z k / ,./ 1.k ~ 4.P P u.t.e.8.c.0.-           ",
". y H H ^ x H H v z z x b x x z i p z P L x k J J b F z z 4.9.9.8.x I 2.F L y.t.8.t.v.0.2           ",
"o ; H H ^ H z k ^ a.2.a.2.d.s.L k u u u y ; y u i i ; y g 1.9.9.w.l U 7.T F 6.T -.t.v.w.[           ",
". ; x H J z x k J ( ^ ^ J 2.2.k ; i I I J H ^ ,.4.,.z z u J 9.9.q.x / i.0.T -.-.6.y.B.w.7           ",
"# ; = c b k z g J ~ ~ J H F i i F ,.0.9.<./ 4.j.g.4.F Y U z x / q.z Y t.l.l.y.8.:.1.g.2.            ",
"  c ( f.a.H b c ( d.d.^ d y z Y 4.4.2.4.<./ 4.j.j.9.J Y Y Y G k F P T e.y.p.p.-.L j O.              ",
"  S 2.,.^ b b H E <.<.F $ b ~ 4.4.4.4.2./ / 9.j.j.0./ J Y Y Y J i H -.e.t.y.l.g.w.a.                ",
"    & + $ u g c E ^ W k = ,.q.4.4.4.4.4.4.9.f.j.j.j.f.9.E J Y Y -.k F 8.t.t.t.U L =                 ",
"    4 b ! $.~ E E W J g $ / 4.4.4.2.2.4.4.5.d.j.j.j.j.g.f.,.p k k z g F :.t.t.t.<.: M               ",
"    s W n.b.K K K K H g $ J / / 4.2.4.4.4.4.q.j.j.j.j.j.g.,.~ ^ ^ L L G p a I s.&.X.X.m g k p p     ",
"    h E b.b.~ ^ ^ ^ E z = 2.j.9.^ 4.4.2.0.9.f.j.j.j.j.j.j.j.j.j.j.j.j.k.L k a F F F F I 8.t.y.x.O   ",
"    s F %.%.W ^ ^ %.J c s 9.j.f.,.4.4.4.4.4.d.j.j.j.j.j.j.j.j.z.j.j.j.j.P H I 8.r.8.9.1.8.t.t.l.X   ",
"    s Q M.n.W ^ ^ W J b y 9.j.f.<.a.<.<.9.9.q.j.j.j.j.j.j.j.j.j.j.j.j.j.L F G 8.8.8.1.,.8.t.t.x.O   ",
"    s H =.h.H K K H H d $ Y d.2.J d.4.4.9.4.d.j.j.j.j.j.j.9.9.4.4.2.,.1.x G a x p % 2 m v K L E 7   ",
"    - i g z H H K ( J d $ J J / 4.a.4.a.<.<.d.g.j.j.j.j.f.~ g c k g d k G :.8.8.,.h M               ",
"  , % g d d H E ^ ( K k $ ,.4.4.4.<.a.4.d.4.f.j.j.j.j.j.d.J J J G y u ;.e.t.t.I a =                 ",
"o.E 4.9.( b H H K ( ( F $ J 4.9.4.4.<.4.<.^ 4.j.f.j.f.Y G J -.J i x 1.-.T ;.8.5.4.3.                ",
"m k ^ <.( b H z J d.,.H y k J d.9.4.4.4.,.J ,.9.d.f.,.J -.J G d u I 1.I I T 8.T F v #.              ",
"O * $ g x d b d J ^ J H k k y G <.d.a.<.( ( ,.d.4.9.J J Y G y k L <.q.-.9.7.t.e.7.0.z.3.            ",
"o ; H L ^ x H k J E E E J ^ I u ; F 5.2.,.2.4.q.5.<.H x i ; k l x 5.7.T 9.q.e.r.y.y.B.0.7           ",
"o y L W ^ z J x ~ 2.2.2.2.2.<.H d u u u u u u d u y y u g F x F L 1.q./ 9.q.y.8.y.e.v.w.7           ",
". u N.b.~ z ^ R H x k x x z c k y u u d g i u g k i a k b H H H L 1.0.T 9.q.y.1.y.e.v.0.-           ",
"o 3 h.&.J z R H g x k g c k b b x E H c ~ H x ~ R k i d g k k k x I ,.I I -.r.1.y.8.c.0.%           ",
"  * H L L k b g x b b b z x b F F ~ ^ H b J H ~ ~ I L k b H H H P I T I I -.,.I 8.1.5.^ ,           ",
"0 # d E ~ z u s H b b F P E ~ H H E ^ ^ x J F P U I k g l v v H I P G P x p f n M D N ' ]           ",
"w e ' 5 5 w , ; c d s d z c c d s b K K L b v - 9 q < g Q Q b 7 , O @ 1 m 4 ' { | | { | @.          ",
"  < w 0 e { 9 , 3 1 # 1 , # 1 7 $ # 7 7 - f q , ' { 0 < N [ , w ' 1 5 C t > t [ ' | _ t _           ",
"  } } +.}  ._ r q n m V V m q q 4 m N V m B  .} _ ] ] _ ]  .] _ `  .` _ } ] ..+...@. .}             ",
"                                                                                                    ",
"                                                                                                    ",
"                                                                                                    ",
"                                                                                                    ",
"                                                                                                    ",
"                                                                                                    ",
"                                                                                                    ",
"                                                                                                    ",
"                                                                                                    "
};
