/* XPM */
static char *result[] = {
/* columns rows colors chars-per-pixel */
"50 50 97 2 ",
"   c #020202",
".  c #0B0C07",
"X  c #0D0E09",
"o  c #100F0A",
"O  c #0F100A",
"+  c #14140D",
"@  c #17180F",
"#  c #19190F",
"$  c #161610",
"%  c #181712",
"&  c #171811",
"*  c #1C1B13",
"=  c #1E1E1A",
"-  c #201F16",
";  c #211E19",
":  c #1F2014",
">  c #222215",
",  c #272914",
"<  c #2A2B16",
"1  c #24231A",
"2  c #28271C",
"3  c #27281B",
"4  c #2B2A1C",
"5  c #2F3119",
"6  c #33331D",
"7  c #383A1C",
"8  c #242321",
"9  c #292621",
"0  c #2C2B22",
"q  c #2D2D2B",
"w  c #312F23",
"e  c #322F28",
"r  c #343323",
"t  c #3C3C23",
"y  c #34322B",
"u  c #39362A",
"i  c #3E3B2A",
"p  c #343434",
"a  c #383736",
"s  c #383837",
"d  c #3C3C3C",
"f  c #582C00",
"g  c #5F3C1A",
"h  c #663300",
"j  c #693603",
"k  c #6C3906",
"l  c #65370A",
"z  c #66380B",
"x  c #6F3C09",
"c  c #713E0C",
"v  c #653A11",
"b  c #663E19",
"n  c #74410E",
"m  c #64411E",
"M  c #69431E",
"N  c #764310",
"B  c #794613",
"V  c #7C4916",
"C  c #70461E",
"Z  c #7F4C1A",
"A  c #41413F",
"S  c #664321",
"D  c #6A4725",
"F  c #6C4927",
"G  c #62462B",
"H  c #6D4C2B",
"J  c #714E2C",
"K  c #74502E",
"L  c #664E36",
"P  c #694D32",
"I  c #6C5035",
"U  c #66523E",
"Y  c #6E563E",
"T  c #755230",
"R  c #765A3F",
"E  c #434343",
"W  c #4B4B4B",
"Q  c #6C5844",
"!  c #7A5E43",
"~  c #7D6146",
"^  c #7F6349",
"/  c #66625F",
"(  c #666666",
")  c #6D6A67",
"_  c #696969",
"`  c gray45",
"'  c #814E1B",
"]  c #865320",
"[  c #8C5926",
"{  c #8E5B29",
"}  c #915E2C",
"|  c #94612E",
" . c #966330",
".. c #996633",
"X. c #81654A",
"o. c #8A8A8B",
"O. c None",
/* pixels */
"O.O.O.O.O.O.O.h k k j k j O.O.O.O.O.O.O.O.O.O.O.O.O.O.O.O.O.O.O.O.O.O.O.O.h k k h k h O.O.O.O.O.O.O.",
"O.O.O.O.O.O.O.n  .} } } B O.O.O.O.O.O.O.O.O.O.O.O.O.O.O.O.O.O.O.O.O.O.O.O.V } } | | B O.O.O.O.O.O.O.",
"O.O.O.O.O.O.O.N  . ... .V O.O.O.O.O.O.O.O.O.O.O.O.O.O.O.O.O.O.O.O.O.O.O.O.' ........V O.O.O.O.O.O.O.",
"O.O.O.O.O.j x c c c c c c x c x x x x x x x x x x x x x x x x x x x c c c c x c c c x x k O.O.O.O.O.",
"O.O.O.O.x [ |  . .|  . . . . . . . ... . . . . . . . . . . . . . . . .|  . . . .| |  . .[ c O.O.O.O.",
"O.O.O.j { .................. ................................... . ..... ..... ...........} k O.O.O.",
"O.O.O.c | { ' ' V ' ' ' ' ' ' ' ' ' V V V ' Z ' V ' V ' V ' ' V ' ' ' ' ' ' ' ' ' Z ' ' { ..n O.O.O.",
"h n c c  .] M ! ! z H ! ! ! ~ ~ ~ ~ X.X.X.X.X.X.T v G P P P P P P P P P P P P P j P P S ' ..c n n h ",
"k | ..c  .] Y o.o.b p * - > 0 y 2 < 2 2 2 4 2 y y y q 0 0 0 8 8 8 1 0 q 9 q 0 8 v ( ` Q ' ..c | ..k ",
"k | ..x  .] L ( _ b d 1 - - > * - * # # - - - - % & & * $ $ & % $ $ % % $ + $ q v / ( U ] ..c  . .k ",
"k |  .c ..] L ( ( b d ; 2 > 2 2 - < , 2 2 2 , 1 9 1 1 > 1 ; * * - * > > 2 2 : q v / ( U ' ..c  .| c ",
"j } ..x  .] L ( _ b d * + * * * - - - # - > - > > * * * $ $ $ $ # * * * - # + 0 v / ( Q ' ..c  . .k ",
"h V V c  .] L ( _ b d * + > 6 7 6 r 7 r 6 e y 6 e 7 r 6 r r 6 6 6 6 7 6 4 + + q v / ( U ' ..c V V h ",
"O.O.O.k ..] L ( ) b s 1 1 + $ 1 2 , 2 - , - 1 1 > - - ; - * * > - - 1 - + 2 1 0 v / ( U ' ..c h O.O.",
"O.O.O.c | ] L ( _ b E 1 r + o $ # # - - - * * * * + + * $ $ # * * $ + X + 6 1 a v / ( U ] ..c O.O.O.",
"O.O.O.c ..] L ( _ b E 1 u # o X 6 6 r 6 w e e w 5 w w 5 w 5 5 w w 6 + + # u ; A v / ( U ' ..n O.O.O.",
"O.O.O.x ..] L ( ) b E ; y # # # . # 1 < < 4 1 > * * * : @ * * : * . * 1 * i - E v / ( U ' ..c O.O.O.",
"O.O.O.x  .] L ( _ b d 2 r $ * - o o - 1 > 1 > * * > : : * * * > + @ > * : 6 $ A v / ( U ] ..c O.O.O.",
"O.O.O.x  .] L ( _ b A 9 u * # * * # o - 3 3 1 3 1 , 1 * > 1 1 & * > > * * 6 & d v / ( U ' ..c O.O.O.",
"O.O.O.x  .] L ( _ b d 2 7 * # > * - # o : 1 > : 1 > * * * * + - * 1 * * > r # p v / ( U ' ..n O.O.O.",
"O.O.O.x ..] L ( _ b E 0 r : * > - * * * X * * * * * * * * + * 1 * 1 : * * i * A v / ( U ' ..c O.O.O.",
"O.O.O.x  .] L ( _ b E 9 e # * - - * > * + X + + + + O + O + * > * > - * * i * A v / ( U ' ..n O.O.O.",
"O.O.O.x  .] L ( ) b E 1 0 - * > * $ > - & X   .         X & * : * 2 * * * t 1 E v / ( U ' ..c O.O.O.",
"O.O.O.x ..] L ( _ b E 1 < > $ - > * - * * X             X * * 3 * 3 * * & r > A z ( ( U ] ..c O.O.O.",
"O.O.O.x ..] L ( _ b E ; 4 - # * * & * * * X             . + > 9 * 1 - * * t > d z / ( U ' ..c O.O.O.",
"O.O.O.x  .] L ( _ b d = 4 * 1 - = * $ & & X             X * * 3 * > > * $ t 1 y v / ( U ' ..c O.O.O.",
"O.O.O.x ..] L ( _ b E = w * * # * # % % $ .             X * : 2 : 2 2 # * y 1 a v / ( U ] ..N O.O.O.",
"O.O.O.x  .] L ( _ b W ; e $ * - * * & & & .             O * = 1 # 4 2 > % 6 2 a v / ( Q ' ..c O.O.O.",
"O.O.O.x  .] L ( ) b W 1 6 $ $ * + & * $ $ . . . . X . X . & * 3 - 4 2 > * u 1 p v / ( U ' ..n O.O.O.",
"O.O.O.x ..] L ( ( b E ; < * + ; + + $ * X O X + O + + & + X = 3 > 4 2 > * i 1 d v / ( U ] ..c O.O.O.",
"O.O.O.x  .] L ( _ b s = 2 $ + * + + + o & & % * & * : * * * O 1 ; 2 4 1 * i 1 q v / ( U ' ..c O.O.O.",
"O.O.O.x ..] L ( _ b E ; > * & * $ + + + : : : * % * : > 1 : * + * 2 4 > * i 9 q v / ( U ' ..c O.O.O.",
"O.O.O.x  .] L ( _ b E 8 1 * $ - + o # $ + + + + $ * * * * # # + o > 2 > $ p 3 q b ( ( U Z ..n O.O.O.",
"O.O.O.x  .] L ( _ b E = 1 # * - . o * # $ * * - 1 > - * # - - - # X - - + g 9 : z / ( U Z ..n O.O.O.",
"O.O.O.x  .] L ( _ b E ; 4 + + . * - - - - - - - > - - - - - : : - # o + % i - 8 v / ( U ' ..c O.O.O.",
"O.O.O.x ..] L ( _ b E 2 2 + o + - # + $ $ $ $ - : - - - # - : - * : # X o u - 8 v ( ( U ' ..c O.O.O.",
"O.O.O.c  .] L ( _ b d ; - + o # * $ * $ * * * # # # * * * + $ * # # # + o > * q v / ( U ' ..n O.O.O.",
"j V V x  .] L ( _ b E * + + 2 4 1 1 2 4 4 4 w 2 2 < 2 0 9 2 < < 5 2 < 6 < + + a v / ( U ] ..c V V j ",
"k |  .x  .] L ( _ b d = + * * * * $ $ $ $ $ $ + $ $ * - ; * $ * - - - - * + + p z ( ( U ' ..c  . .k ",
"k | ..c  .] L ( _ b A * $ $ + # * $ * $ $ $ $ $ $ * $ $ * * - - ; - * + $ + $ p z / ( Q ' ..c  . .k ",
"j |  .c ..] L ( _ b p = = * * * % * * * * % = * * % % % - * % * & * = % * = ; p v ( ( U V ..c  . .x ",
"k | ..c  .] L ( ) b q 2 2 8 ; ; 2 9 2 0 0 9 ; 1 1 9 9 8 0 q r r r 0 2 0 9 9 2 q z / ( U ' ..x  . .x ",
"h B B x  .] L ( _ b 8 p A W W W a d d A E E p A d E E p A E E A A d W E E d p = v ( ( Q ' ..c B B j ",
"O.O.O.x ..] v S S l b D D F F F F J J J J J T T D v g g b b g m m g m m m b m S h S m v ' ..c j O.O.",
"O.O.O.x }  .V h h h h h h h h h h h h h h h h h h h h h h h h h h h h h h h h h h h h c  .} x O.O.O.",
"O.O.O.O.c } ' h h h h h h h h h h h h h h h h h h h h h h h h h h h h h h h h h h h h N  .N h O.O.O.",
"O.O.O.O.O.x k h h h h h h h h h h h h h h h h h h h h h h h h h h h h h h h h h h h h j x h O.O.O.O.",
"O.O.O.O.O.O.O.x V ' ' ' c h O.h k c V V V V V V V V V V V V V k k O.O.O.O.c ' Z ' Z x f O.O.O.O.O.O.",
"O.O.O.O.O.O.O.x Z Z Z Z x O.O.h x N ' ' ' ' ' ' ' ' ' ' ' ' Z x k O.O.O.O.n ' ' Z Z x O.O.O.O.O.O.O.",
"O.O.O.O.O.O.O.h j j j k j O.O.h x j k k x k k x k k x k k x k k x O.O.O.O.h j j j j j O.O.O.O.O.O.O."
};
