/* XPM */
static char *result[] = {
/* columns rows colors chars-per-pixel */
"50 50 76 1 ",
"  c #582C00",
". c #5F3C1A",
"X c #663300",
"o c #693603",
"O c #6C3906",
"+ c #65370A",
"@ c #66380B",
"# c #6F3C09",
"$ c #713E0C",
"% c #653A11",
"& c #663E19",
"* c #74410E",
"= c #64411E",
"- c #69431E",
"; c #764310",
": c #794613",
"> c #7C4916",
", c #70461E",
"< c #7F4C1A",
"1 c #59412A",
"2 c #664321",
"3 c #6A4725",
"4 c #6C4927",
"5 c #62462B",
"6 c #6D4C2B",
"7 c #714E2C",
"8 c #74502E",
"9 c #664E36",
"0 c #694D32",
"q c #6C5035",
"w c #66523E",
"e c #6E563E",
"r c #755230",
"t c #765A3F",
"y c #4E4E4E",
"u c #535353",
"i c #575859",
"p c #5B5B5B",
"a c #6C5844",
"s c #7A5E43",
"d c #7D6146",
"f c #7F6349",
"g c #66625F",
"h c #6D645B",
"j c #646464",
"k c #6D6A67",
"l c #6A6A6A",
"z c #746B62",
"x c #786F66",
"c c #7A7168",
"v c #737373",
"b c #777778",
"n c #7B7B7B",
"m c #814E1B",
"M c #865320",
"N c #8C5926",
"B c #8E5B29",
"V c #915E2C",
"C c #94612E",
"Z c #966330",
"A c #996633",
"S c #81654A",
"D c #85715E",
"F c #848484",
"G c #878889",
"H c #8C8C8C",
"J c #949494",
"K c #979898",
"L c #9B9B9B",
"P c #A3A3A4",
"I c #ACACAC",
"U c #B4B4B4",
"Y c #BCBCBC",
"T c #C3C3C3",
"R c #CACACA",
"E c None",
/* pixels */
"EEEEEEEXOOOOXEEEEEEEEEEEEEEEEEEEEEEEEXOOOOXEEEEEEE",
"EEEEEEE*CVVV:EEEEEEEEEEEEEEEEEEEEEEEE<VVVC:EEEEEEE",
"EEEEEEE;AAAA>EEEEEEEEEEEEEEEEEEEEEEEE>AAAA:EEEEEEE",
"EEEEEo#$#$$$$$###################$$#$$$$$$O$OEEEEE",
"EEEE#NCZZCZZZZZZZZZCZZZZZZZZZZZZZZZZCZZCCCZZN$EEEE",
"EEEoBAAAAZAAAAZZAAAAAAAAAAZZAAAAAZZAAAAAAAAAAVOEEE",
"EEE$CBmmmmmmmm7mmm<<<<<mmmmm<<m<mmmmmmmmmmmmBA*EEE",
"X*$$ZM-st+7sssdfdfffSSSS7@10000000000909+602mA$**X",
"OCA$CMeHH&zJJKKLLLLLPPPPD1pjllllzlvlvvll%lvamA$CAO",
"OCA#AM9jl&hvvbbnFFHHHHJJD1yuuuuiiippppjj%gjwMA$ZZO",
"OCZ$ZM9jl&hvbbnnDGFHHJJJD1yyuuuiiippjpgj%gjamA$ZC$",
"oVA#AM9ll%hvbbnFFGHHHHJKD1yuuuuiippppjjj%gjamA$CZO",
"X>>$ZM9jl%hvvbnnFFFGHJKKD1yyuuuuiipppjpj%gjwmA$>>X",
"EEEOAM9jl&hvvbnGFFGGHJJKD1yyuuuiipppppjj%gjwmA$oEE",
"EEE$CM9ll&hvvbnDFFGHJHJKD1yuuuuiipppjpjj%glwMA$EEE",
"EEE$AM9jl&hvbbnnFFFHHHJKD1yuuuuuiipppjjj%gjwMA$EEE",
"EEE$ZM9ll&hvbbnFHJJHHJJKD1yyuuuplvljpjjj.pjamA$EEE",
"EEEOZM9jl%hvvnLUTTTYKJJJD1yyuuvLIIIPDpjj.jjwmA$EEE",
"EEE$ZM9jl&jvvLYYIIUTTLJKD1yuulPIKHJIUnjj%gjwmA;EEE",
"EEE$ZM9ll&jvLYPFFFJKTTLJD1yylPKjlipjKUnj%glwMA$EEE",
"EEE$ZM9jl&hnYPnnnLUHKTYJD1yuLLpjKlpjjPIl%gjamZ$EEE",
"EEEOAM9ll%hJYHFnFYYHHITLD1ylInujPLpplnIn%gjwmA$EEE",
"EEE$ZM9ll&hIPJTUYTTHHJRID1yDKiulIIKIIlLJ%gjwmA$EEE",
"EEE#Zm9jl&zUHDUTTTTJHJYYD1yHFuubIIIILjGP@gjamA$EEE",
"EEE#ZM9jl&xUFbPYTTTTIJUTD1yKbiGIIIUIFjnI%gjwmA$EEE",
"EEE#ZM9ll&xUnbJTTTTTTUUTD1yKnFPIIIIIvpnI%glwmA$EEE",
"EEE#AM9jl&xUFvIYTTTTKJYTD1uKnuvPIIIIFpFI@jjwMA$EEE",
"EEE#ZMqjl%zUHFUTTTTJHHTUD1yHGuivIIUIPjHL@gjamA*EEE",
"EEE#ZM9lj&hPIKIPPTTFHKRPD1ybPjujIInHLbPH%gjwMA$EEE",
"EEE#AM9jl&hJYHnnFUYHHUTLD1ypPFujPHppjFIb%jjwmA$EEE",
"EEE#ZM9jl&hvUUFnFJIHPTIKD1yyHPlpJjpplILl%hlwmA$EEE",
"EEE#ZM9ll&hvFYUJFGJIRYJKD1yupKInlpjbIIlj%jjwmA*EEE",
"EEE#ZM9jl&hvbJYYUUYTYLJJD1yyujLIPKLUIvjj+jl9mA$EEE",
"EEE#ZM9ll&hvvbHIYYYPJJJKD1yuyujFLIPHlpjj%pjwmA$EEE",
"EEE#AMqjl&hlvbnnnGGGGJJKD1yyuuuiippppjjj%gjwmA$EEE",
"EEE#ZM9jl&hvbnnnFFGHHJJJD1yyuuuiiipppjpj%jlwmA;EEE",
"EEE#ZM9ll&hvvbnnDGGHHHJKD1yuuuuiiippgpjj@gjwMA$EEE",
"o><#ZM9jl%hvbbnnFFGHHJJKD1yyuuuuiiigpgjj%jjwmA$<<X",
"OCZ#ZM9ll&hvvnnnFFFHJHJKD1yyuuuiiipppjjj%jjamA$ZZ#",
"OCA$ZM9jl&hvbnnnFFFHHJJKD1yuuuuiiippjppj%gjamA$ZZO",
"oCA$AMqjl%hvvbnnFFFHHJJKD1yyuuuiiippppjj%gjwmA$ZZO",
"OCA#ZM9jl&hvvbnFFFFHHHJJD1yyuuuippppjjpj%gjwmA$ZZ#",
"o::#ZM9ll&hvbbnnFFFHJJJKD1yuuuuiiipppjjj%jlamA$::X",
"EEE#AM%22o-33446667777rr3@.....=&=&&1&=2o&2%mA$XEE",
"EEE#VC>XXXXXXXXXXXXXXXXXXXXXXXXXXXXXXXXXXXX$ZC#EEE",
"EEEE*VmXXXXXXXXXXXXXXXXXXXXXXXXXXXXXXXXXXXX*C;XEEE",
"EEEEE#OXXXXXXXXXXXXXXXXXXXXXXXXXXXXXXXXXXXXX#XEEEE",
"EEEEEEEO<mm<$XEXO$>>>>>>>>>>>>>OOEEEE$<mmm$ EEEEEE",
"EEEEEEE#<<<<#EEX#;mmmmmmmmmmmm<#OEEEE;mm<<#EEEEEEE",
"EEEEEEEXoooOoEEX#oOO#OO#OO#OO#OO#EEEEXoooo+EEEEEEE"
};
