/* XPM */
static char *result[] = {
/* columns rows colors chars-per-pixel */
"50 50 8 1 ",
"  c #100A1D",
". c #545A6D",
"X c #841F3C",
"o c #CE390F",
"O c #ED911F",
"+ c #FED960",
"@ c #FFFDFD",
"# c None",
/* pixels */
"##################################################",
"##################################################",
"##################################################",
"##################################################",
"##################################################",
"##################################################",
"##################################################",
"##################################################",
"##################################################",
"##################################################",
"##################################################",
"####ooooooooooooXXX#####################@@@#######",
"####ooooooooooooXXX#####################@@@#######",
"####ooooooooooooXXX#####################@@@#######",
"#oooOOO@@@@@@+++OOOXXX######ooooooooo#############",
"#oooOOO@@@@@@+++OOOXXX######ooooooooo#############",
"#oooOOO@@@@@@+++OOOXXX######ooooooooo#############",
"#ooo@@@ooooooooo+++XXX######XXX+++XXX###XXX#######",
"#ooo@@@ooooooooo+++XXX######XXX+++XXX###XXX#######",
"#ooo@@@ooooooooo+++XXX######XXX+++XXX###XXX#######",
"#XXX@@@         +++oooooooooXXXOOO+++XXX+++XXX####",
"#XXX@@@         +++oooooooooXXXOOO+++XXX+++XXX####",
"#XXX@@@         +++oooooooooXXXOOO+++XXX+++XXX####",
"#XXX+++XXX...   +++++++++++++++OOOOOO+++OOO+++XXX#",
"#XXX+++XXX...   +++++++++++++++OOOOOO+++OOO+++XXX#",
"#XXX+++XXX...   +++++++++++++++OOOOOO+++OOO+++XXX#",
"#XXX+++XXXXXXXXX@@@OOOooooooooooooooooooooooooXXX#",
"#XXX+++XXXXXXXXX@@@OOOooooooooooooooooooooooooXXX#",
"#XXX+++XXXXXXXXX@@@OOOooooooooooooooooooooooooXXX#",
"#XXXOOO++++++@@@OOOXXX                           #",
"#XXXOOO++++++@@@OOOXXX                           #",
"#XXXOOO++++++@@@OOOXXX                           #",
"#   XXXoooooooooXXX   ############################",
"#   XXXoooooooooXXX   ############################",
"#   XXXoooooooooXXX   ############################",
"####               ###############################",
"####               ###############################",
"####               ###############################",
"##################################################",
"##################################################",
"##################################################",
"##################################################",
"##################################################",
"##################################################",
"##################################################",
"##################################################",
"##################################################",
"##################################################",
"##################################################",
"##################################################"
};
