/* XPM */
static char *result[] = {
/* columns rows colors chars-per-pixel */
"50 50 7 1 ",
"  c #100A1D",
". c #841F3C",
"X c #CE390F",
"o c #ED911F",
"O c #FED960",
"+ c #FFFDFD",
"@ c None",
/* pixels */
"@@@@@@@@@@@@@@@@@@@@@@@@@@@@@@@@@@@@@@@@@@@@@@@@@@",
"@@@@@@@@@@@@@@@@@@@@@@@@@@@@@@@@@@@@@@@@@@@@@@@@@@",
"@@@@@@@@@@@@@@@@@@@@@@@@@@@@@@@@@@@@@@@@@@@@@@@@@@",
"@@@@@@@@@@@@@@@@@@@@@@@@@@@@@@@@@@@@@@@@@@@@@@@@@@",
"@@@@@@@@@@@@@@@@@@@@@@@@@@@@@@@@@@@@@@@@@@@@@@@@@@",
"@@@@@@@@@@@@@@@@@@@@@@@@@@@@@@@@@@@@@@@@@@@@@@@@@@",
"@@@@@@@@@@@@@@@@@@@@@@@@@@@@@@@@@@@@@@@@@@@@@@@@@@",
"@@@@@@@@@@@@@@@@@@@@@@@@@@@@@@@@@@@@@@@@@@@@@@@@@@",
"@@@@@@@@@@@@@@@@@@@@@@@@@@@@@@@@@@@@@@@@@@@@@@@@@@",
"@@@@@@@@@@@@@@@@@@@@@@@@@@@@@@@@@@@@@@@@@@@@@@@@@@",
"@@@@@@@@@@@@@@@@@@@@@@@@@@@@@@@@@@@@@@@@@@@@@@@@@@",
"@@@@@@@@@@@...XXXXXX...@@@@@@@@@@@@@@@@@@@@@@@@@@@",
"@@@@@@@@@@@...XXXXXX...@@@@@@@@@@@@@@@@@@@@@@@@@@@",
"@@@@@@@@@@@...XXXXXX...@@@@@@@@@@@@@@@@@@@@@@@@@@@",
"@@@@@@@@...XXXOOO+++ooo...@@@...XXXXXX@@@@@@@@@@@@",
"@@@@@@@@...XXXOOO+++ooo...@@@...XXXXXX@@@@@@@@@@@@",
"@@@@@@@@...XXXOOO+++ooo...@@@...XXXXXX@@@@@@@@@@@@",
"@@@@@@@@...ooo+++XXXOOO......XXXOOO...@@@@@@@@@@@@",
"@@@@@@@@...ooo+++XXXOOO......XXXOOO...@@@@@@@@@@@@",
"@@@@@@@@...ooo+++XXXOOO......XXXOOO...@@@@@@@@@@@@",
"@@@@@@@@...ooo+++   OOOooo...XXXOOOooo...@@@@@@@@@",
"@@@@@@@@...ooo+++   OOOooo...XXXOOOooo...@@@@@@@@@",
"@@@@@@@@...ooo+++   OOOooo...XXXOOOooo...@@@@@@@@@",
"@@@@@@@@...oooOOO...OOOoooXXXooooooooo   @@@@@@@@@",
"@@@@@@@@...oooOOO...OOOoooXXXooooooooo   @@@@@@@@@",
"@@@@@@@@...oooOOO...OOOoooXXXooooooooo   @@@@@@@@@",
"@@@@@@@@...oooOOO...+++oooXXXXXXXXXXXX   @@@@@@@@@",
"@@@@@@@@...oooOOO...+++oooXXXXXXXXXXXX   @@@@@@@@@",
"@@@@@@@@...oooOOO...+++oooXXXXXXXXXXXX   @@@@@@@@@",
"@@@@@@@@...XXXoooOOOooo...               @@@@@@@@@",
"@@@@@@@@...XXXoooOOOooo...               @@@@@@@@@",
"@@@@@@@@...XXXoooOOOooo...               @@@@@@@@@",
"@@@@@@@@   ...XXXXXX...   @@@@@@@@@@@@@@@@@@@@@@@@",
"@@@@@@@@   ...XXXXXX...   @@@@@@@@@@@@@@@@@@@@@@@@",
"@@@@@@@@   ...XXXXXX...   @@@@@@@@@@@@@@@@@@@@@@@@",
"@@@@@@@@@@@            @@@@@@@@@@@@@@@@@@@@@@@@@@@",
"@@@@@@@@@@@            @@@@@@@@@@@@@@@@@@@@@@@@@@@",
"@@@@@@@@@@@            @@@@@@@@@@@@@@@@@@@@@@@@@@@",
"@@@@@@@@@@@@@@@@@@@@@@@@@@@@@@@@@@@@@@@@@@@@@@@@@@",
"@@@@@@@@@@@@@@@@@@@@@@@@@@@@@@@@@@@@@@@@@@@@@@@@@@",
"@@@@@@@@@@@@@@@@@@@@@@@@@@@@@@@@@@@@@@@@@@@@@@@@@@",
"@@@@@@@@@@@@@@@@@@@@@@@@@@@@@@@@@@@@@@@@@@@@@@@@@@",
"@@@@@@@@@@@@@@@@@@@@@@@@@@@@@@@@@@@@@@@@@@@@@@@@@@",
"@@@@@@@@@@@@@@@@@@@@@@@@@@@@@@@@@@@@@@@@@@@@@@@@@@",
"@@@@@@@@@@@@@@@@@@@@@@@@@@@@@@@@@@@@@@@@@@@@@@@@@@",
"@@@@@@@@@@@@@@@@@@@@@@@@@@@@@@@@@@@@@@@@@@@@@@@@@@",
"@@@@@@@@@@@@@@@@@@@@@@@@@@@@@@@@@@@@@@@@@@@@@@@@@@",
"@@@@@@@@@@@@@@@@@@@@@@@@@@@@@@@@@@@@@@@@@@@@@@@@@@",
"@@@@@@@@@@@@@@@@@@@@@@@@@@@@@@@@@@@@@@@@@@@@@@@@@@",
"@@@@@@@@@@@@@@@@@@@@@@@@@@@@@@@@@@@@@@@@@@@@@@@@@@"
};
