/* XPM */
static char *result[] = {
/* columns rows colors chars-per-pixel */
"50 50 7 1 ",
"  c #100A1D",
". c #841F3C",
"X c #CE390F",
"o c #ED911F",
"O c #FED960",
"+ c #FFFDFD",
"@ c None",
/* pixels */
"@@@@@@@@@@@@@@@@@@@@@@@@@@@@@@@@@@@@@@@@@@@@@@@@@@",
"@@@@@@@@@@@@@@@@@@@@@@@@@@@@@@@@@@@@@@@@@@@@@@@@@@",
"@@@@@@@@@@@@@@@@@@@@@@@@@@@@@@@@@@@@@@@@@@@@@@@@@@",
"@@@@@@@@@@@@@@@@@@@@@@@@@@@@@@@@@@@@@@@@@@@@@@@@@@",
"@@@@@@@@@@@@@@@@@@@@@@@@@@@@@@@@@@@@@@@@@@@@@@@@@@",
"@@@@@@@@@@@@@@@@@@@@@@@@@@@@@@@@@@@@@@@@@@@@@@@@@@",
"@@@@@@@@@@@@@@@@@@@@@@@@@@@@@@@@@@@@@@@@@@@@@@@@@@",
"@@@@@@@@@@@@@@@@@@@@@@@@@@@@@@@@@@@@@@@@@@@@@@@@@@",
"@@@@@@@@@@@@@@@@@@@@@@@@@@@@@@@@@@@@@@@@@@@@@@@@@@",
"@@@@@@@@@@@@@@@@@@@@@@@@@@@@@@@@@@@@@@@@@@@@@@@@@@",
"@@@@@@@@@@@@@@@@@@@@@@@@@@@@@@@@@@@@@@@@@@@@@@@@@@",
"@@@@@@@@@@@@@@@@@@@@@@@@@@@@XXXXXX...   @@@@@@@@@@",
"@@@@@@@@@@@@@@@@@@@@@@@@@@@@XXXXXX...   @@@@@@@@@@",
"@@@@@@@@@@@@@@@@@@@@@@@@@@@@XXXXXX...   @@@@@@@@@@",
"@@@@@@@@@@@@@XXXXXXXXX@@@XXXooooooOOOooo   @@@@@@@",
"@@@@@@@@@@@@@XXXXXXXXX@@@XXXooooooOOOooo   @@@@@@@",
"@@@@@@@@@@@@@XXXXXXXXX@@@XXXooooooOOOooo   @@@@@@@",
"@@@@@@@@@@+++...+++...@@@...oooOOOXXXOOO   @@@@@@@",
"@@@@@@@@@@+++...+++...@@@...oooOOOXXXOOO   @@@@@@@",
"@@@@@@@@@@+++...+++...@@@...oooOOOXXXOOO   @@@@@@@",
"@@@@@@@@@@...+++OOO...XXXXXXXXXOOO   OOO   @@@@@@@",
"@@@@@@@@@@...+++OOO...XXXXXXXXXOOO   OOO   @@@@@@@",
"@@@@@@@@@@...+++OOO...XXXXXXXXXOOO   OOO   @@@@@@@",
"@@@@@@@...+++OOOOOO+++++++++OOOOOO...OOO   @@@@@@@",
"@@@@@@@...+++OOOOOO+++++++++OOOOOO...OOO   @@@@@@@",
"@@@@@@@...+++OOOOOO+++++++++OOOOOO...OOO   @@@@@@@",
"@@@@@@@...ooooooXXXXXXXXXXXXXXXOOO...OOO   @@@@@@@",
"@@@@@@@...ooooooXXXXXXXXXXXXXXXOOO...OOO   @@@@@@@",
"@@@@@@@...ooooooXXXXXXXXXXXXXXXOOO...OOO   @@@@@@@",
"@@@@@@@.........            XXXoooOOOooo   @@@@@@@",
"@@@@@@@.........            XXXoooOOOooo   @@@@@@@",
"@@@@@@@.........            XXXoooOOOooo   @@@@@@@",
"@@@@@@@@@@@@@@@@@@@@@@@@@   ...XXXXXX...   @@@@@@@",
"@@@@@@@@@@@@@@@@@@@@@@@@@   ...XXXXXX...   @@@@@@@",
"@@@@@@@@@@@@@@@@@@@@@@@@@   ...XXXXXX...   @@@@@@@",
"@@@@@@@@@@@@@@@@@@@@@@@@@@@@            @@@@@@@@@@",
"@@@@@@@@@@@@@@@@@@@@@@@@@@@@            @@@@@@@@@@",
"@@@@@@@@@@@@@@@@@@@@@@@@@@@@            @@@@@@@@@@",
"@@@@@@@@@@@@@@@@@@@@@@@@@@@@@@@@@@@@@@@@@@@@@@@@@@",
"@@@@@@@@@@@@@@@@@@@@@@@@@@@@@@@@@@@@@@@@@@@@@@@@@@",
"@@@@@@@@@@@@@@@@@@@@@@@@@@@@@@@@@@@@@@@@@@@@@@@@@@",
"@@@@@@@@@@@@@@@@@@@@@@@@@@@@@@@@@@@@@@@@@@@@@@@@@@",
"@@@@@@@@@@@@@@@@@@@@@@@@@@@@@@@@@@@@@@@@@@@@@@@@@@",
"@@@@@@@@@@@@@@@@@@@@@@@@@@@@@@@@@@@@@@@@@@@@@@@@@@",
"@@@@@@@@@@@@@@@@@@@@@@@@@@@@@@@@@@@@@@@@@@@@@@@@@@",
"@@@@@@@@@@@@@@@@@@@@@@@@@@@@@@@@@@@@@@@@@@@@@@@@@@",
"@@@@@@@@@@@@@@@@@@@@@@@@@@@@@@@@@@@@@@@@@@@@@@@@@@",
"@@@@@@@@@@@@@@@@@@@@@@@@@@@@@@@@@@@@@@@@@@@@@@@@@@",
"@@@@@@@@@@@@@@@@@@@@@@@@@@@@@@@@@@@@@@@@@@@@@@@@@@",
"@@@@@@@@@@@@@@@@@@@@@@@@@@@@@@@@@@@@@@@@@@@@@@@@@@"
};
