/* XPM */
static char *result[] = {
/* columns rows colors chars-per-pixel */
"50 50 7 1 ",
"  c #100A1D",
". c #841F3C",
"X c #CE390F",
"o c #ED911F",
"O c #FED960",
"+ c #FFFDFD",
"@ c None",
/* pixels */
"@@@@@@@@@@@@@@@@@@@@@@@@@@@@@@@@@@@@@@@@@@@@@@@@@@",
"@@@@@@@@@@@@@@@@@@@@@@@@@@@@@@@@@@@@@@@@@@@@@@@@@@",
"@@@@@@@@@@@@@@@@@@@@@@@@@@@@@@@@@@@@@@@@@@@@@@@@@@",
"@@@@@@@@@@@@@@@@@@@@@@@@@@@@@@@@@@@@@@@@@@@@@@@@@@",
"@@@@@@@@@@@@@@@@@@@@@@@@@@@@@@@@@@@@@@@@@@@@@@@@@@",
"@@@@@@@@@@@@@@@@@@@@@@@@@@@@@@@@@@@@@@@@@@@@@@@@@@",
"@@@@@@@@@@@@@@@@@@@@@@@@@@@@@@@@@@@@@@@@@@@@@@@@@@",
"@@@@@@@@@@@@@@@@@@@@@@@@@@@@@@@@@@@@@@@@@@@@@@@@@@",
"@@@@@@@@@@@@@@@@@@@@@@@@@@@@@@@@@@@@@@@@@@@@@@@@@@",
"@@@@@@@@@@@@@@@@@@@@@@@@@@@@@@@@@@@@@@@@@@@@@@@@@@",
"@@@@@@@@@@@@@@@@@@@@@@@@@@@@@@@@@@@@@@@@@@@@@@@@@@",
"@@@@@@@@@@@@@@@@XXXXXXXXX...@@@@@@@@@@@@@@@@@@@@@@",
"@@@@@@@@@@@@@@@@XXXXXXXXX...@@@@@@@@@@@@@@@@@@@@@@",
"@@@@@@@@@@@@@@@@XXXXXXXXX...@@@@@@@@@@@@@@@@@@@@@@",
"@@@@@@@@@@@@@XXXOOOOOO+++ooo   @@@@@@@@@@@@@@@@@@@",
"@@@@@@@@@@@@@XXXOOOOOO+++ooo   @@@@@@@@@@@@@@@@@@@",
"@@@@@@@@@@@@@XXXOOOOOO+++ooo   @@@@@@@@@@@@@@@@@@@",
"@@@@@@@@@@@@@XXXooo+++...OOO...      @@@@@@@@@@@@@",
"@@@@@@@@@@@@@XXXooo+++...OOO...      @@@@@@@@@@@@@",
"@@@@@@@@@@@@@XXXooo+++...OOO...      @@@@@@@@@@@@@",
"@@@@@@@@@@@@@...ooo+++   OOO...ooo   @@@@@@@@@@@@@",
"@@@@@@@@@@@@@...ooo+++   OOO...ooo   @@@@@@@@@@@@@",
"@@@@@@@@@@@@@...ooo+++   OOO...ooo   @@@@@@@@@@@@@",
"@@@@@@@@@@@@@...ooo+++   OOO...ooo   @@@@@@@@@@@@@",
"@@@@@@@@@@@@@...ooo+++   OOO...ooo   @@@@@@@@@@@@@",
"@@@@@@@@@@@@@...ooo+++   OOO...ooo   @@@@@@@@@@@@@",
"@@@@@@@@@@@@@...ooo+++   OOO...XXX   @@@@@@@@@@@@@",
"@@@@@@@@@@@@@...ooo+++   OOO...XXX   @@@@@@@@@@@@@",
"@@@@@@@@@@@@@...ooo+++   OOO...XXX   @@@@@@@@@@@@@",
"@@@@@@@@@@@@@...ooo+++...OOO   XXX   @@@@@@@@@@@@@",
"@@@@@@@@@@@@@...ooo+++...OOO   XXX   @@@@@@@@@@@@@",
"@@@@@@@@@@@@@...ooo+++...OOO   XXX   @@@@@@@@@@@@@",
"@@@@@@@@@@@@@...XXXooo+++XXX      @@@@@@@@@@@@@@@@",
"@@@@@@@@@@@@@...XXXooo+++XXX      @@@@@@@@@@@@@@@@",
"@@@@@@@@@@@@@...XXXooo+++XXX      @@@@@@@@@@@@@@@@",
"@@@@@@@@@@@@@@@@......      @@@@@@@@@@@@@@@@@@@@@@",
"@@@@@@@@@@@@@@@@......      @@@@@@@@@@@@@@@@@@@@@@",
"@@@@@@@@@@@@@@@@......      @@@@@@@@@@@@@@@@@@@@@@",
"@@@@@@@@@@@@@@@@@@@@@@@@@@@@@@@@@@@@@@@@@@@@@@@@@@",
"@@@@@@@@@@@@@@@@@@@@@@@@@@@@@@@@@@@@@@@@@@@@@@@@@@",
"@@@@@@@@@@@@@@@@@@@@@@@@@@@@@@@@@@@@@@@@@@@@@@@@@@",
"@@@@@@@@@@@@@@@@@@@@@@@@@@@@@@@@@@@@@@@@@@@@@@@@@@",
"@@@@@@@@@@@@@@@@@@@@@@@@@@@@@@@@@@@@@@@@@@@@@@@@@@",
"@@@@@@@@@@@@@@@@@@@@@@@@@@@@@@@@@@@@@@@@@@@@@@@@@@",
"@@@@@@@@@@@@@@@@@@@@@@@@@@@@@@@@@@@@@@@@@@@@@@@@@@",
"@@@@@@@@@@@@@@@@@@@@@@@@@@@@@@@@@@@@@@@@@@@@@@@@@@",
"@@@@@@@@@@@@@@@@@@@@@@@@@@@@@@@@@@@@@@@@@@@@@@@@@@",
"@@@@@@@@@@@@@@@@@@@@@@@@@@@@@@@@@@@@@@@@@@@@@@@@@@",
"@@@@@@@@@@@@@@@@@@@@@@@@@@@@@@@@@@@@@@@@@@@@@@@@@@",
"@@@@@@@@@@@@@@@@@@@@@@@@@@@@@@@@@@@@@@@@@@@@@@@@@@"
};
