/* XPM */
static char *result[] = {
/* columns rows colors chars-per-pixel */
"50 50 7 1 ",
"  c #100A1D",
". c #841F3C",
"X c #CE390F",
"o c #ED911F",
"O c #FED960",
"+ c #FFFDFD",
"@ c None",
/* pixels */
"@@@@@@@@@@@@@@@@@@@@@@@@@@@@@@@@@@@@@@@@@@@@@@@@@@",
"@@@@@@@@@@@@@@@@@@@@@@@@@@@@@@@@@@@@@@@@@@@@@@@@@@",
"@@@@@@@@@@@@@@@@@@@@@@@@@@@@@@@@@@@@@@@@@@@@@@@@@@",
"@@@@@@@@@@@@@@@@@@@@@@@@@@@@@@@@@@@@@@@@@@@@@@@@@@",
"@@@@@@@@@@@@@@@@@@@@@@@@@@@@@@@@@@@@@@@@@@@@@@@@@@",
"@@@@@@@@@@@@@@@@@@@@@@@@@@@@@@@@@@@@@@@@@@@@@@@@@@",
"@@@@@@@@@@@@@@@@@@@@@@@@@@@@@@@@@@@@@@@@@@@@@@@@@@",
"@@@@@@@@@@@@@@@@@@@@@@@@@@@@@@@@@@@@@@@@@@@@@@@@@@",
"@@@@@@@@@@@@@@@@@@@@@@@@@@@@@@@@@@@@@@@@@@@@@@@@@@",
"@@@@@@@@@@@@@@@@@@@@@@@@@@@@@@@@@@@@@@@@@@@@@@@@@@",
"@@@@@@@@@@@@@@@@@@@@@@@@@@@@@@@@@@@@@@@@@@@@@@@@@@",
"@@@@@@@@@@@@@@@@@@@@@@@@@@......XXXXXX@@@@@@@@@@@@",
"@@@@@@@@@@@@@@@@@@@@@@@@@@......XXXXXX@@@@@@@@@@@@",
"@@@@@@@@@@@@@@@@@@@@@@@@@@......XXXXXX@@@@@@@@@@@@",
"@@@@@@@@@@@XXXXXX...@@@...ooo+++OOOOOOXXX@@@@@@@@@",
"@@@@@@@@@@@XXXXXX...@@@...ooo+++OOOOOOXXX@@@@@@@@@",
"@@@@@@@@@@@XXXXXX...@@@...ooo+++OOOOOOXXX@@@@@@@@@",
"@@@@@@@@@@@...OOOXXX......OOOXXX+++oooXXX@@@@@@@@@",
"@@@@@@@@@@@...OOOXXX......OOOXXX+++oooXXX@@@@@@@@@",
"@@@@@@@@@@@...OOOXXX......OOOXXX+++oooXXX@@@@@@@@@",
"@@@@@@@@...oooOOOXXX...oooOOO   +++ooo...@@@@@@@@@",
"@@@@@@@@...oooOOOXXX...oooOOO   +++ooo...@@@@@@@@@",
"@@@@@@@@...oooOOOXXX...oooOOO   +++ooo...@@@@@@@@@",
"@@@@@@@@   oooooooooXXXoooOOO...+++ooo...@@@@@@@@@",
"@@@@@@@@   oooooooooXXXoooOOO...+++ooo...@@@@@@@@@",
"@@@@@@@@   oooooooooXXXoooOOO...+++ooo...@@@@@@@@@",
"@@@@@@@@   XXXXXXXXXXXXoooOOO...+++ooo...@@@@@@@@@",
"@@@@@@@@   XXXXXXXXXXXXoooOOO...+++ooo...@@@@@@@@@",
"@@@@@@@@   XXXXXXXXXXXXoooOOO...+++ooo...@@@@@@@@@",
"@@@@@@@@               ...ooo++++++ooo   @@@@@@@@@",
"@@@@@@@@               ...ooo++++++ooo   @@@@@@@@@",
"@@@@@@@@               ...ooo++++++ooo   @@@@@@@@@",
"@@@@@@@@@@@@@@@@@@@@@@@   XXXooooooXXX   @@@@@@@@@",
"@@@@@@@@@@@@@@@@@@@@@@@   XXXooooooXXX   @@@@@@@@@",
"@@@@@@@@@@@@@@@@@@@@@@@   XXXooooooXXX   @@@@@@@@@",
"@@@@@@@@@@@@@@@@@@@@@@@@@@            @@@@@@@@@@@@",
"@@@@@@@@@@@@@@@@@@@@@@@@@@            @@@@@@@@@@@@",
"@@@@@@@@@@@@@@@@@@@@@@@@@@            @@@@@@@@@@@@",
"@@@@@@@@@@@@@@@@@@@@@@@@@@@@@@@@@@@@@@@@@@@@@@@@@@",
"@@@@@@@@@@@@@@@@@@@@@@@@@@@@@@@@@@@@@@@@@@@@@@@@@@",
"@@@@@@@@@@@@@@@@@@@@@@@@@@@@@@@@@@@@@@@@@@@@@@@@@@",
"@@@@@@@@@@@@@@@@@@@@@@@@@@@@@@@@@@@@@@@@@@@@@@@@@@",
"@@@@@@@@@@@@@@@@@@@@@@@@@@@@@@@@@@@@@@@@@@@@@@@@@@",
"@@@@@@@@@@@@@@@@@@@@@@@@@@@@@@@@@@@@@@@@@@@@@@@@@@",
"@@@@@@@@@@@@@@@@@@@@@@@@@@@@@@@@@@@@@@@@@@@@@@@@@@",
"@@@@@@@@@@@@@@@@@@@@@@@@@@@@@@@@@@@@@@@@@@@@@@@@@@",
"@@@@@@@@@@@@@@@@@@@@@@@@@@@@@@@@@@@@@@@@@@@@@@@@@@",
"@@@@@@@@@@@@@@@@@@@@@@@@@@@@@@@@@@@@@@@@@@@@@@@@@@",
"@@@@@@@@@@@@@@@@@@@@@@@@@@@@@@@@@@@@@@@@@@@@@@@@@@",
"@@@@@@@@@@@@@@@@@@@@@@@@@@@@@@@@@@@@@@@@@@@@@@@@@@"
};
