/* XPM */
static char *result[] = {
/* columns rows colors chars-per-pixel */
"50 50 7 1 ",
"  c #100A1D",
". c #841F3C",
"X c #CE390F",
"o c #ED911F",
"O c #FED960",
"+ c #FFFDFD",
"@ c None",
/* pixels */
"@@@@@@@@@@@@@@@@@@@@@@@@@@@@@@@@@@@@@@@@@@@@@@@@@@",
"@@@@@@@@@@@@@@@@@@@@@@@@@@@@@@@@@@@@@@@@@@@@@@@@@@",
"@@@@@@@@@@@@@@@@@@@@@@@@@@@@@@@@@@@@@@@@@@@@@@@@@@",
"@@@@@@@@@@@@@@@@@@@@@@@@@@@@@@@@@@@@@@@@@@@@@@@@@@",
"@@@@@@@@@@@@@@@@@@@@@@@@@@@@@@@@@@@@@@@@@@@@@@@@@@",
"@@@@@@@@@@@@@@@@@@@@@@@@@@@@@@@@@@@@@@@@@@@@@@@@@@",
"@@@@@@@@@@@@@@@@@@@@@@@@@@@@@@@@@@@@@@@@@@@@@@@@@@",
"@@@@@@@@@@@@@@@@@@@@@@@@@@@@@@@@@@@@@@@@@@@@@@@@@@",
"@@@@@@@@@@@@@@@@@@@@@@@@@@@@@@@@@@@@@@@@@@@@@@@@@@",
"@@@@@@@@@@@@@@@@@@@@@@@@@@@@@@@@@@@@@@@@@@@@@@@@@@",
"@@@@@@@@@@@@@@@@@@@@@@@@@@@@@@@@@@@@@@@@@@@@@@@@@@",
"@@@@@@@@@@@@@@@@@@@@@@@   .........@@@@@@@@@@@@@@@",
"@@@@@@@@@@@@@@@@@@@@@@@   .........@@@@@@@@@@@@@@@",
"@@@@@@@@@@@@@@@@@@@@@@@   .........@@@@@@@@@@@@@@@",
"@@@@@@@@@@@@@@+++@@@   oooooooooXXX...@@@@@@@@@@@@",
"@@@@@@@@@@@@@@+++@@@   oooooooooXXX...@@@@@@@@@@@@",
"@@@@@@@@@@@@@@+++@@@   oooooooooXXX...@@@@@@@@@@@@",
"@@@@@@@@@@@+++++++++XXXXXX......ooo...@@@@@@@@@@@@",
"@@@@@@@@@@@+++++++++XXXXXX......ooo...@@@@@@@@@@@@",
"@@@@@@@@@@@+++++++++XXXXXX......ooo...@@@@@@@@@@@@",
"@@@@@@@@@@@@@@+++XXX+++OOO      ooo...@@@@@@@@@@@@",
"@@@@@@@@@@@@@@+++XXX+++OOO      ooo...@@@@@@@@@@@@",
"@@@@@@@@@@@@@@+++XXX+++OOO      ooo...@@@@@@@@@@@@",
"@@@@@@@@@@@@@@@@@XXX++++++OOOXXXooo...@@@@@@@@@@@@",
"@@@@@@@@@@@@@@@@@XXX++++++OOOXXXooo...@@@@@@@@@@@@",
"@@@@@@@@@@@@@@@@@XXX++++++OOOXXXooo...@@@@@@@@@@@@",
"@@@@@@@@@@@@@@@@@XXXooooooXXXXXXooo   @@@@@@@@@@@@",
"@@@@@@@@@@@@@@@@@XXXooooooXXXXXXooo   @@@@@@@@@@@@",
"@@@@@@@@@@@@@@@@@XXXooooooXXXXXXooo   @@@@@@@@@@@@",
"@@@@@@@@@@@@@@@@@...            XXX   @@@@@@@@@@@@",
"@@@@@@@@@@@@@@@@@...            XXX   @@@@@@@@@@@@",
"@@@@@@@@@@@@@@@@@...            XXX   @@@@@@@@@@@@",
"@@@@@@@@@@@@@@@@@@@@   ...XXXXXX...   @@@@@@@@@@@@",
"@@@@@@@@@@@@@@@@@@@@   ...XXXXXX...   @@@@@@@@@@@@",
"@@@@@@@@@@@@@@@@@@@@   ...XXXXXX...   @@@@@@@@@@@@",
"@@@@@@@@@@@@@@@@@@@@@@@            @@@@@@@@@@@@@@@",
"@@@@@@@@@@@@@@@@@@@@@@@            @@@@@@@@@@@@@@@",
"@@@@@@@@@@@@@@@@@@@@@@@            @@@@@@@@@@@@@@@",
"@@@@@@@@@@@@@@@@@@@@@@@@@@@@@@@@@@@@@@@@@@@@@@@@@@",
"@@@@@@@@@@@@@@@@@@@@@@@@@@@@@@@@@@@@@@@@@@@@@@@@@@",
"@@@@@@@@@@@@@@@@@@@@@@@@@@@@@@@@@@@@@@@@@@@@@@@@@@",
"@@@@@@@@@@@@@@@@@@@@@@@@@@@@@@@@@@@@@@@@@@@@@@@@@@",
"@@@@@@@@@@@@@@@@@@@@@@@@@@@@@@@@@@@@@@@@@@@@@@@@@@",
"@@@@@@@@@@@@@@@@@@@@@@@@@@@@@@@@@@@@@@@@@@@@@@@@@@",
"@@@@@@@@@@@@@@@@@@@@@@@@@@@@@@@@@@@@@@@@@@@@@@@@@@",
"@@@@@@@@@@@@@@@@@@@@@@@@@@@@@@@@@@@@@@@@@@@@@@@@@@",
"@@@@@@@@@@@@@@@@@@@@@@@@@@@@@@@@@@@@@@@@@@@@@@@@@@",
"@@@@@@@@@@@@@@@@@@@@@@@@@@@@@@@@@@@@@@@@@@@@@@@@@@",
"@@@@@@@@@@@@@@@@@@@@@@@@@@@@@@@@@@@@@@@@@@@@@@@@@@",
"@@@@@@@@@@@@@@@@@@@@@@@@@@@@@@@@@@@@@@@@@@@@@@@@@@"
};
