/* XPM */
static char *result[] = {
/* columns rows colors chars-per-pixel */
"50 50 8 1 ",
"  c #100A1D",
". c #545A6D",
"X c #841F3C",
"o c #CE390F",
"O c #ED911F",
"+ c #FED960",
"@ c #FFFDFD",
"# c None",
/* pixels */
"##################################################",
"##################################################",
"##################################################",
"##################################################",
"##################################################",
"##################################################",
"##################################################",
"##################################################",
"##################################################",
"##################################################",
"################################@@@###############",
"################################@@@###############",
"########XXXXXXXXXooo#########@@@@@@@@@############",
"########XXXXXXXXXooo#########@@@@@@@@@############",
"########XXXXXXXXXooo#########@@@@@@@@@############",
"#####XXXOOO+++OOOOOOooo@@@@@@@@@@@@@@@@@@@@@######",
"#####XXXOOO+++OOOOOOooo@@@@@@@@@@@@@@@@@@@@@######",
"#####XXXOOO+++OOOOOOooo@@@@@@@@@@@@@@@@@@@@@######",
"#####XXX+++ooo+++OOOXXX...XXX@@@@@@@@@############",
"#####XXX+++ooo+++OOOXXX...XXX@@@@@@@@@############",
"#####XXX+++ooo+++OOOXXX...XXX@@@@@@@@@############",
"#####XXX+++   +++oooooooooXXX+++@@@XXX############",
"#####XXX+++   +++oooooooooXXX+++@@@XXX############",
"#####XXX+++   +++oooooooooXXX+++@@@XXX############",
"#####XXX+++XXX++++++@@@@@@@@@+++@@@@@@XXX#########",
"#####XXX+++XXX++++++@@@@@@@@@+++@@@@@@XXX#########",
"#####XXX+++XXX++++++@@@@@@@@@+++@@@@@@XXX#########",
"#####   +++XXX+++oooooooooooooooOOOOOOXXX#########",
"#####   +++XXX+++oooooooooooooooOOOOOOXXX#########",
"#####   +++XXX+++oooooooooooooooOOOOOOXXX#########",
"#####   OOO+++OOOXXX            XXXXXXXXX#########",
"#####   OOO+++OOOXXX            XXXXXXXXX#########",
"#####   OOO+++OOOXXX            XXXXXXXXX#########",
"#####   XXXooooooXXX   ###########################",
"#####   XXXooooooXXX   ###########################",
"#####   XXXooooooXXX   ###########################",
"########            ##############################",
"########            ##############################",
"########            ##############################",
"##################################################",
"##################################################",
"##################################################",
"##################################################",
"##################################################",
"##################################################",
"##################################################",
"##################################################",
"##################################################",
"##################################################",
"##################################################"
};
