/* XPM */
static char *result[] = {
/* columns rows colors chars-per-pixel */
"50 50 8 1 ",
"  c #100A1D",
". c #545A6D",
"X c #841F3C",
"o c #CE390F",
"O c #ED911F",
"+ c #FED960",
"@ c #FFFDFD",
"# c None",
/* pixels */
"##################################################",
"##################################################",
"##################################################",
"##################################################",
"##################################################",
"##################################################",
"##################################################",
"##################################################",
"##################################################",
"##################################################",
"##################################################",
"###############################XXXoooooooooooo####",
"###############################XXXoooooooooooo####",
"###############################XXXoooooooooooo####",
"#############ooooooooo######XXXOOO+++@@@@@@OOOooo#",
"#############ooooooooo######XXXOOO+++@@@@@@OOOooo#",
"#############ooooooooo######XXXOOO+++@@@@@@OOOooo#",
"#######XXX###XXX+++XXX######XXX+++ooooooooo@@@ooo#",
"#######XXX###XXX+++XXX######XXX+++ooooooooo@@@ooo#",
"#######XXX###XXX+++XXX######XXX+++ooooooooo@@@ooo#",
"####XXX+++XXX+++OOOXXXooooooooo+++         @@@XXX#",
"####XXX+++XXX+++OOOXXXooooooooo+++         @@@XXX#",
"####XXX+++XXX+++OOOXXXooooooooo+++         @@@XXX#",
"#XXX+++OOO+++OOOOOO+++++++++++++++   ...XXX+++XXX#",
"#XXX+++OOO+++OOOOOO+++++++++++++++   ...XXX+++XXX#",
"#XXX+++OOO+++OOOOOO+++++++++++++++   ...XXX+++XXX#",
"#XXXooooooooooooooooooooooooOOO@@@XXXXXXXXX+++XXX#",
"#XXXooooooooooooooooooooooooOOO@@@XXXXXXXXX+++XXX#",
"#XXXooooooooooooooooooooooooOOO@@@XXXXXXXXX+++XXX#",
"#                           XXXOOO@@@++++++OOOXXX#",
"#                           XXXOOO@@@++++++OOOXXX#",
"#                           XXXOOO@@@++++++OOOXXX#",
"############################   XXXoooooooooXXX   #",
"############################   XXXoooooooooXXX   #",
"############################   XXXoooooooooXXX   #",
"###############################               ####",
"###############################               ####",
"###############################               ####",
"##################################################",
"##################################################",
"##################################################",
"##################################################",
"##################################################",
"##################################################",
"##################################################",
"##################################################",
"##################################################",
"##################################################",
"##################################################",
"##################################################"
};
