/* XPM */
static char *result[] = {
/* columns rows colors chars-per-pixel */
"50 50 203 2 ",
"   c #040404",
".  c #040B04",
"X  c #090906",
"o  c #070C09",
"O  c #0A0A0A",
"+  c #090706",
"@  c #120E0A",
"#  c #1A0F08",
"$  c #130D07",
"%  c #021205",
"&  c #011C07",
"*  c #07130A",
"=  c #0C110B",
"-  c #041C0A",
";  c #091B0A",
":  c #15110B",
">  c #1C130B",
",  c #1F180F",
"<  c #0A0C11",
"1  c #141414",
"2  c #1F1A12",
"3  c #1B1C1C",
"4  c #171916",
"5  c #22150B",
"6  c #26180D",
"7  c #2B1A0D",
"8  c #29170C",
"9  c #331E0F",
"0  c #3A1E0D",
"q  c #331709",
"w  c #221A12",
"e  c #2C1E12",
"r  c #201E1E",
"t  c #331F10",
"y  c #022309",
"u  c #09230E",
"i  c #002C0B",
"p  c #00350E",
"a  c #003B0E",
"s  c #062610",
"d  c #062B11",
"f  c #1C2419",
"g  c #033310",
"h  c #003C11",
"j  c #3B200E",
"k  c #2C2116",
"l  c #2C241A",
"z  c #292614",
"x  c #352112",
"c  c #3C2412",
"v  c #32251B",
"b  c #38271A",
"n  c #3A2A1C",
"m  c #1F1F20",
"M  c #121D35",
"N  c #1F2021",
"B  c #1F2920",
"V  c #1F3324",
"C  c #232525",
"Z  c #252628",
"A  c #272829",
"S  c #2B2B2C",
"D  c #252C26",
"F  c #352C25",
"G  c #322F2D",
"H  c #3A3228",
"J  c #2D2E30",
"K  c #2F3132",
"L  c #343435",
"P  c #393635",
"I  c #3A3B3D",
"U  c #363838",
"Y  c #2B362E",
"T  c #421F0B",
"R  c #44230E",
"E  c #48230C",
"W  c #412613",
"Q  c #442915",
"!  c #4B2D16",
"~  c #442C1B",
"^  c #4A2D1B",
"/  c #542E15",
"(  c #4C321E",
")  c #543017",
"_  c #54321A",
"`  c #5A361B",
"'  c #5E391D",
"]  c #5E3214",
"[  c #52280E",
"{  c #633B1D",
"}  c #683F1F",
"|  c #623818",
" . c #4C3320",
".. c #4A3727",
"X. c #553923",
"o. c #5C3B25",
"O. c #633D24",
"+. c #004313",
"@. c #004C15",
"#. c #004E19",
"$. c #005117",
"%. c #015519",
"&. c #005B1B",
"*. c #00631D",
"=. c #00691F",
"-. c #006C21",
";. c #026520",
":. c #007323",
">. c #007C26",
",. c #6B401F",
"<. c #75451E",
"1. c #4D4036",
"2. c #6C4122",
"3. c #64422A",
"4. c #694427",
"5. c #744423",
"6. c #7A4A24",
"7. c #754B2A",
"8. c #7F532E",
"9. c #654C39",
"0. c #734F32",
"q. c #765031",
"w. c #7D5234",
"e. c #3C3E41",
"r. c #403F41",
"t. c #3E4142",
"y. c #414244",
"u. c #4A4B4C",
"i. c #484747",
"p. c #4C4E51",
"a. c #4E5153",
"s. c #525355",
"d. c #56595B",
"f. c #545759",
"g. c #56514E",
"h. c #685545",
"j. c #795F4A",
"k. c #5C6162",
"l. c #8F521F",
"z. c #814D25",
"x. c #864C2A",
"c. c #834727",
"v. c #8C522A",
"b. c #8F5B2F",
"n. c #97592C",
"m. c #895937",
"M. c #945934",
"N. c #925F3A",
"B. c #985A35",
"V. c #8F603C",
"C. c #9A643C",
"Z. c #98653C",
"A. c #A4632F",
"S. c #A46B3B",
"D. c #A76637",
"F. c #A8703F",
"G. c #B2743F",
"H. c #876549",
"J. c #976945",
"K. c #9E7452",
"L. c #A36C43",
"P. c #A76942",
"I. c #AB7247",
"U. c #AE7549",
"Y. c #A57147",
"T. c #B17443",
"R. c #B97A45",
"E. c #BB7D4B",
"W. c #B4794C",
"Q. c #A67953",
"!. c #BD7F52",
"~. c #B57F53",
"^. c #00862A",
"/. c #BE804B",
"(. c #BC8253",
"). c #B68358",
"_. c #C3824C",
"`. c #C48755",
"'. c #CC8B54",
"]. c #C58A59",
"[. c #CA8D5B",
"{. c #C58856",
"}. c #CD915E",
"|. c #D3935D",
" X c #D39561",
".X c #D99761",
"XX c #D69965",
"oX c #DB9B65",
"OX c #DC9F69",
"+X c #E19E69",
"@X c #E09D67",
"#X c #DEA16A",
"$X c #E4A36C",
"%X c #E8A76F",
"&X c #E7A86F",
"*X c #E6A770",
"=X c #E8A770",
"-X c #E7A971",
";X c #EBAB72",
":X c #F0AF75",
">X c #F2B176",
",X c #F2B07A",
"<X c None",
/* pixels */
"<X<X<X<X<X<X<X<X<X<X<X<X<X<X<X<X<X<X<X<X<X<X<X<X<X<X<X<X<X<X<X<X<X<X<X<X<X<X<X<X<X<X<X<X<X<X<X<X<X<X",
"<X<X<X<X<X<X<X<X<X<X<X<X<X<X<X<X<X<X<X<X<X<X<X<X<X<X<X<X<X<X<X<X<X<X<X<X<X<X<X<X<X<X<X<X<X<X<X<X<X<X",
"<X<X<X<X<X<X<X<X<X<X<X<X<X<X<X<X<X<X<X<X<X<X<X<X<X<X<X<X<X<X<X<X<X<X<X<X<X<X<X<X<X<X<X<X<X<X<X<X<X<X",
"<X<X<X<X<X<X<X<X<X<X<X<X<X<XO o - - %.:.-.h p i ; d ; O <X<X<X<X<X<X<X<X<X<X<X<X<X<X<X<X<X<X<X<X<X<X",
"<X<X<X<X<X<X<X<X<X<X<X<XX d +.p a &.-.*.=.:.p $.+.:.-.+.O <X<X<X<X<X<X<X<X<X<X<X<X<X<X<X<X<X<X<X<X<X",
"<X<X<X<X<X<X<X<X<X<X<Xs *.>.@.$.+.-.:.:.*.=.&.+.+.*.-.-.g <X<X<X<X<X<X<X<X<X<X<X<X<X<X<X<X<X<X<X<X<X",
"<X<X<X<X<X<X<X<X<X<X<X-.:.>.a $.+.-.*.-.=.*.=.p #.+.&.*.g <X<X<X<X<X<X<X<X<X<X<X<X<X<X<X<X<X<X<X<X<X",
"<X<X<X<X<X<X<X<X<X<X<X=.-.:.p +.+.*.*.&.&.&.&.p a g @.%.y * - O <X<X<X<X<X<X<X<X<X<X<X<X<X<X<X<X<X<X",
"<X<X<X<X<X<X<X<X<X<X* @.@.@.p a +.&.&.%.$.%.$.p a p a & a p :.%.+ <X<X<X<X<X<X<X<X<X<X<X<X<X<X<X<X<X",
"<X<X<X<X<X<X<X<X<Xu @.h @.$.p a p $.@.%.%.%.$.p a p y i +.-.:.>.s <X<X<X<X<X<X<X<X<X<X<X<X<X<X<X<X<X",
"<X<X<X<X<X<X<X<Xo &.:.+.p &.p a a @.+.p p p p i p y y i y *.*.=.;.O <X<X<X<X<X<X<X<X<X<X<X<X<X<X<X<X",
"<X<X<X<X<X<X<X<Xh +.i i p y & i a u , # 5 5 5 : ; i & &.*.&.h p %.%.<X<X<X<X<X<X<X<X<X<X<X<X<X<X<X<X",
"<X<X<X<X<X<X<X<X%.&.$.y p +.h y % x x e ! Q c c x 5 + p *.=.*.i h @.+ <X<X<X<X<X<X<X<X<X<X<X<X<X<X<X",
"<X<X<X<X<X<X<X* %.%.+.+.-.>.; w 9 c 8 ~ ! ! Q x x Q 7   a -.:.%.- %     + o <X<X<X<X<X<X<X<X<X<X<X<X",
"<X<X<X<X<X<X<Xu %.#.h *.-.#.$ 5 k 6 c c Q ! ) ( c 7 9 8 & -.>.-.y O * : o.b.6 <X<X<X<X<X<X<X<X<X<X<X",
"<X<X<X<X<X<X<Xs &.+.i *.@.: 5 6 8 x ) | ` _ ) ` ) j 8 9 > -.^.>.p 3 C b C.G.F.7.x O <X<X<X<X<X<X<X<X",
"<X<X<X<X<X<X<Xd &.+.s ;.= > 5 6 # ` { Q ,.6.v.,.) c j # 7 &.=.>.$.C F U._.'.'./.G.7.: <X<X<X<X<X<X<X",
"<X<X<X<X<X<X<Xo +.u 4 $.> 8 8 7 c _ <.5.' v.n.6.` c x x > &.*.=.i D G Y.|.#X$XoX|.'.C.k <X<X<X<X<X<X",
"<X<X<X<X<X<X<XO . O f #.5 5 t t ) ~ } 6.<.,.b.6.' ! e 6 > p a y h f L Y././.|.#X;X$X|.R.( <X<X<X<X<X",
"<X<X<X<X<X<X<X+ + K V p 5 5 t c ! ) c ,.n.z.' 6.,.Q j 6 > % i &.*.B H S.R._.|..XoX%X;X|.T.~ <X<X<X<X",
"<X<X<X<X<X<X  O K e.Y f 5 6 t 0 ! Q ` <.5.z.6.,._ ` x c 5 z &.:.@.D ..R.@X%X>X;X%X$X;X;X|._.F.<X<X<X",
"<X<X<X<X<X+   4 L t.Y m.X.6 9 0 ! Q ~ 6.,.` 2.2._ ! c 7 x z &.=.+.D F A._.@X%X%X%X$X$X$X|.|.{.<X<X<X",
"<X<X<X<X<X    Z U y.1.3.J.7 t 0 ! ! ) ) v.,.c c Q x 7 > _ y *.*.p r : <.A.A.G.G.G.|.$X|.$X$X_.<X<X<X",
"<X<X<X<X+   : D U t.y.k C.6 6 0 R ) Q | 6.5.,.) 9 5 5 6 c p *.&.u 1 + R | ] l.A._.|.|.@X$X&XT.<X<X<X",
"<X<X<X<XO   4 S U I t.% ^ > 5 t 0 / / ^ ] } } O.! j > # 7 @.&.+.=     O <XO D._.@X|.'.$X%X Xq.<X<X<X",
"<X<X<X<X  O 3 S U I I ; . 5 X.0.0 0 _ ^ ` [ ] / j 0 q O.W @.@.-   O <X<X<Xt '.@X|._.|.%X$XE.w <X<X<X",
"<X<X<X<X  1 N S U U U l & 2.R.+Xb 0 W _ W / E E R j ` /.` & - X <X<X<X<X+ b ).[._.'.oX%X'.( <X<X<X<X",
"<X<X<XO O 3 b S U U U A * Q D..X!._ W 0 0 0 / / R ~ {.M.k p * <X<X<X<X<X3 F S 1.Z.|.$X}.Z.O <X<X<X<X",
"<X<X<X@ ( ( 7.F U U G Z 3   O.J.|. XO.T T q > ` O.w.o.w.; o <X<XO 1 4 < m m e.i.i.9.[.Y.w <X<X<X<X<X",
"<X<X<Xn L.U.Z.8.0.3.7.f 3 O + O.I.4._ X.P.m.O.} x.U.~ O : <X<X1 L f.k.d.u.e.a.p.e.Z l $ <X<X<X<X<X<X",
"<X<X<X( W.[.(./.XXXXW.e O + <X  ^ M.B.B.+X!.B.D.M.c : w 2 <X<X3 U u.d.f.f.p.S I Z C 4 <X<X<X<X<X<X<X",
"<X<X<X3.[.}.[.}.*X$X X4.O <X<X<X+ / M.c.+XXXB.x.O., z w w <X<X1 G s.s.s.p.p.L C C 3 O <X<X<X<X<X<X<X",
"<X<X<Xq. X}.].OX;X;XOXX.X <X<X<X<X<X! c.D.M.c.} 6 F k e 2 <XO A p.s.j.~.H.u.y.C 3 + <X<X<X<X<X<X<X<X",
"<X<X<XV. X}.[.*X,X-XoXe <X<X<X<X<X<X  8 v.x.Q $ F ~ l l 2 <X1 f.s.a.h. XXXQ.i.Z O <X<X<X<X<X<X<X<X<X",
"<X<X<XJ. X}.[.*X>XOX(.O <X<X<X<X<X<X<X<X+   + @ 2 e z l 2 <XO L p.p.u.Q.OXXXe.m <X<X<X<X<X<X<X<X<X<X",
"<X<X<XL. X}.}.;X>X;X(.<X<X<X<X<X<X<X<X<X+ 3 1 4 1 : X k : <X<XO Z e.y.r.H.).K 1 <X<X<X<X<X<X<X<X<X<X",
"<X<X<XL. X}.}.;X:X>XOXk O <X<X<X<X<X<X<XC r.L G I P 2 +   <X<X<X< S L L e.I 3 + <X<X<X<X<X<X<X<X<X<X",
"<X<X<XP. X X X;X>X&XoX{.J.( w <X<X<X<X<Xe.i.I P ..P C     <X<X<X<XO 3 S K J O <X<X<X<X<X<X<X<X<X<X<X",
"<X<X<XI.`.}.-X:X>X>X>X>X&XOXXX X .1 1 < e.e.e.e.e.t.p.p.L <X<X<X<X<X<X<X<X<X<X<X<X<X<X<X<X<X<X<X<X<X",
"<X<X<XL.].`. X-X:X:X>X>X>X;X&X#XH.Z Z < e.e.e.r.t.t.t.i.J <X<X<X<X<X<X<X<X<X<X<X<X<X<X<X<X<X<X<X<X<X",
"<X<X<Xm.!.].~.].#X&X%X*X-X;X;X;XQ.Z S 1 e.e.r.J.h.e.I A 1 <X<X<X<X<X<X<X<X<X<X<X<X<X<X<X<X<X<X<X<X<X",
"<X<X<Xv L.!.`.U.(.oX#XXX}. XXXXXQ.K L 1 I e.H.}.J.I L 3 m <X<X<X<X<X<X<X<X<X<X<X<X<X<X<X<X<X<X<X<X<X",
"<X<X<X<X1 O.N.L.L.I.W.}.}.].].).J.L e.N e.e.K.OX).K Z K m <X<X<X<X<X<X<X<X<X<X<X<X<X<X<X<X<X<X<X<X<X",
"<X<X<X<X<X<X, b 3.V.C.C.L.Y.U.U.9.1 3 1 U e.K.XX).B C 3 O <X<X<X<X<X<X<X<X<X<X<X<X<X<X<X<X<X<X<X<X<X",
"<X<X<X<X<X<X<X<X@ w b w.N.N.N.N.F 3 4 1 I I h. XJ.m Z 3 O <X<X<X<X<X<X<X<X<X<X<X<X<X<X<X<X<X<X<X<X<X",
"<X<X<X<X<X<X<X<X<X<X<X<XO 2 k x 1 3 3 m 1 J L h.L Z 3 O <X<X<X<X<X<X<X<X<X<X<X<X<X<X<X<X<X<X<X<X<X<X",
"<X<X<X<X<X<X<X<X<X<X<X<X<X<X<X<X<X<X<X+ M < < 4 m S 4 <X<X<X<X<X<X<X<X<X<X<X<X<X<X<X<X<X<X<X<X<X<X<X",
"<X<X<X<X<X<X<X<X<X<X<X<X<X<X<X<X<X<X<X<X<X<X<X<X<X<X<X<X<X<X<X<X<X<X<X<X<X<X<X<X<X<X<X<X<X<X<X<X<X<X",
"<X<X<X<X<X<X<X<X<X<X<X<X<X<X<X<X<X<X<X<X<X<X<X<X<X<X<X<X<X<X<X<X<X<X<X<X<X<X<X<X<X<X<X<X<X<X<X<X<X<X",
"<X<X<X<X<X<X<X<X<X<X<X<X<X<X<X<X<X<X<X<X<X<X<X<X<X<X<X<X<X<X<X<X<X<X<X<X<X<X<X<X<X<X<X<X<X<X<X<X<X<X"
};
