/* XPM */
static char *result[] = {
/* columns rows colors chars-per-pixel */
"50 50 207 2 ",
"   c #040404",
".  c #080705",
"X  c #040A05",
"o  c #090A05",
"O  c #070A08",
"+  c #0A0A0A",
"@  c #080708",
"#  c #120E0A",
"$  c #170E07",
"%  c #011A07",
"&  c #06140A",
"*  c #0C110B",
"=  c #041B0A",
"-  c #091B09",
";  c #021106",
":  c #15110B",
">  c #1C130B",
",  c #1B180D",
"<  c #0A0C11",
"1  c #141414",
"2  c #1A1713",
"3  c #1F1911",
"4  c #171818",
"5  c #1B1C1B",
"6  c #151B17",
"7  c #22150B",
"8  c #26180D",
"9  c #2B1A0D",
"0  c #2A170C",
"q  c #331E0F",
"w  c #3A1E0D",
"e  c #331709",
"r  c #221B12",
"t  c #2C1E12",
"y  c #331F10",
"u  c #012209",
"i  c #09230E",
"p  c #012B0B",
"a  c #00350D",
"s  c #003B0E",
"d  c #072610",
"f  c #062A11",
"g  c #19271C",
"h  c #033410",
"j  c #013C11",
"k  c #3B200E",
"l  c #2C2116",
"z  c #2C251B",
"x  c #272015",
"c  c #352111",
"v  c #3C2412",
"b  c #32251B",
"n  c #39291B",
"m  c #1F1F20",
"M  c #1F2021",
"N  c #1F2A20",
"B  c #1F3324",
"V  c #232425",
"C  c #272829",
"Z  c #2A2B2C",
"A  c #252927",
"S  c #352C25",
"D  c #322F2D",
"F  c #29342B",
"G  c #3A3228",
"H  c #2D2E30",
"J  c #2F3132",
"K  c #343535",
"L  c #393635",
"P  c #3A3B3C",
"I  c #363838",
"U  c #431F0B",
"Y  c #42230E",
"T  c #49240E",
"R  c #412613",
"E  c #442915",
"W  c #4B2D16",
"Q  c #452D1B",
"!  c #4A2D1B",
"~  c #532E17",
"^  c #4B311D",
"/  c #543016",
"(  c #54321A",
")  c #5A351C",
"_  c #5E391C",
"`  c #5D3114",
"'  c #52280E",
"]  c #633C1D",
"[  c #693D1F",
"{  c #643917",
"}  c #4C3624",
"|  c #5B3B25",
" . c #553925",
".. c #653D24",
"X. c #004313",
"o. c #004C15",
"O. c #034B19",
"+. c #005117",
"@. c #015419",
"#. c #005C1B",
"$. c #00621D",
"%. c #00681F",
"&. c #006C21",
"*. c #036420",
"=. c #007323",
"-. c #007B26",
";. c #007F28",
":. c #6B401F",
">. c #70411C",
",. c #7A471D",
"<. c #54463B",
"1. c #6C4120",
"2. c #654329",
"3. c #6C452A",
"4. c #734423",
"5. c #7B4A24",
"6. c #754C2B",
"7. c #764B2A",
"8. c #7F532E",
"9. c #674C38",
"0. c #734F32",
"q. c #765031",
"w. c #7D5234",
"e. c #3D3E41",
"r. c #403F41",
"t. c #3F4142",
"y. c #424344",
"u. c #4A4C4D",
"i. c #46474A",
"p. c #4D4E51",
"a. c #4E5052",
"s. c #525355",
"d. c #56595B",
"f. c #545759",
"g. c #56514E",
"h. c #685647",
"j. c #795F4A",
"k. c #7E624C",
"l. c #5C6162",
"z. c #824E26",
"x. c #854B2A",
"c. c #834727",
"v. c #8C532A",
"b. c #8C562B",
"n. c #975A2A",
"m. c #8B5936",
"M. c #935532",
"N. c #915E3A",
"B. c #975A34",
"V. c #8F603D",
"C. c #93613B",
"Z. c #9A643D",
"A. c #9A663B",
"S. c #A4632F",
"D. c #A4653C",
"F. c #A56A38",
"G. c #A8703F",
"H. c #B2743F",
"J. c #B06C34",
"K. c #866345",
"L. c #936C4C",
"P. c #986945",
"I. c #9E7452",
"U. c #A46C43",
"Y. c #A86D43",
"T. c #AA7247",
"R. c #AE7549",
"E. c #A87548",
"W. c #B17443",
"Q. c #B97A44",
"!. c #B37B4D",
"~. c #B77849",
"^. c #A77A53",
"/. c #BC7F51",
"(. c #B57F53",
"). c #C17D44",
"_. c #00862A",
"`. c #BE804B",
"'. c #BC8253",
"]. c #B88459",
"[. c #C3824C",
"{. c #C38655",
"}. c #C58854",
"|. c #CB8C56",
" X c #C58A59",
".X c #CA8D5B",
"XX c #C68757",
"oX c #CD915E",
"OX c #D3935D",
"+X c #D39561",
"@X c #D59964",
"#X c #DB9B65",
"$X c #DC9F69",
"%X c #DA9762",
"&X c #E19E68",
"*X c #DEA16A",
"=X c #E3A36C",
"-X c #E8A76F",
";X c #E6A86F",
":X c #E7A770",
">X c #E8A770",
",X c #E7A971",
"<X c #EBAB72",
"1X c #F0AF75",
"2X c #F2B176",
"3X c #F2B17B",
"4X c None",
/* pixels */
"4X4X4X4X4X4X4X4X4X4X4X4X4X4X4X4X4X4X4X4X4X4X4X4X4X4X4X4X4X4X4X4X4X4X4X4X4X4X4X4X4X4X4X4X4X4X4X4X4X4X",
"4X4X4X4X4X4X4X4X4X4X4X4X4X4X4X4X4X4X4X4X4X4X4X4X4X4X4X4X4X4X4X4X4X4X4X4X4X4X4X4X4X4X4X4X4X4X4X4X4X4X",
"4X4X4X4X4X4X4X4X4X4X4X4X4X4X4X4X4X4X4X4X4X4X4X4X4X4X4X4X4X4X4X4X4X4X4X4X4X4X4X4X4X4X4X4X4X4X4X4X4X4X",
"4X4X4X4X4X4X4X4X4X4X4X4X4X4X4X4X4X4X4X4X4X4X@ = f = d a j *.=.@.= % O + 4X4X4X4X4X4X4X4X4X4X4X4X4X4X",
"4X4X4X4X4X4X4X4X4X4X4X4X4X4X4X4X4X4X4X4X4X+ O.&.=.X.o.s =.&.$.&.#.X.a X.f @ 4X4X4X4X4X4X4X4X4X4X4X4X",
"4X4X4X4X4X4X4X4X4X4X4X4X4X4X4X4X4X4X4X4X4Xh &.&.$.o.X.$.&.&.=.=.&.X.o.X.-.*.4X4X4X4X4X4X4X4X4X4X4X4X",
"4X4X4X4X4X4X4X4X4X4X4X4X4X4X4X4X4X4X4X4X@ h $.$.X.X.s $.$.&.&.$.%.X.+.j =.=.- 4X4X4X4X4X4X4X4X4X4X4X",
"4X4X4X4X4X4X4X4X4X4X4X4X4X4X4X4X4X4X@ = O.u #.o.a X.a #.#.#.#.$.$.X.X.j =.&.j 4X4X4X4X4X4X4X4X4X4X4X",
"4X4X4X4X4X4X4X4X4X4X4X4X4X4X4X4X4X@ $.&.+.s u s a s a +.@.+.+.#.#.X.s a o.o.p & 4X4X4X4X4X4X4X4X4X4X",
"4X4X4X4X4X4X4X4X4X4X4X4X4X4X4X4X4Xd -.&.a X.p u a s a o.@.#.+.o.+.s s a +.o.a o.= 4X4X4X4X4X4X4X4X4X",
"4X4X4X4X4X4X4X4X4X4X4X4X4X4X4X4X+ *.&.$.X.u p u u a p a a s j X.o.s j a @.s =.=.#.+ 4X4X4X4X4X4X4X4X",
"4X4X4X4X4X4X4X4X4X4X4X4X4X4X4X4X@.@.s j $.%.+.u p - $ 7 7 7 : 7 i s p % p p u p X.j 4X4X4X4X4X4X4X4X",
"4X4X4X4X4X4X4X4X4X4X4X4X4X4X4X@ X.X.p $.&.#.p o , c v R E v t c c & % X.X.p X.+.@.@.4X4X4X4X4X4X4X4X",
"4X4X4X4X4X4X4X4X4X4X4X4X@ @   @ & % #.=.$.s   9 E k k E W ( E 7 v 9 9 - -.&.u X.o.#.& 4X4X4X4X4X4X4X",
"4X4X4X4X4X4X4X4X4X4X4X_ b.E * * @ u =.-.@.% 9 k 9 v ~ ^ E v R v 8 l , : #.=.p j +.@.i 4X4X4X4X4X4X4X",
"4X4X4X4X4X4X4X4X@ n 7.H.W.A.b M 5 j -._.X.: q 8 v W _ ~ ) _ ] W k 7 9 7 : X.j p X.#.d 4X4X4X4X4X4X4X",
"4X4X4X4X4X4X4X: 6.H.[.|.|.[.R.S V o._.$.u q 7 k v ~ :.v.5._ v :.) > 0 7 7 - @.i X.#.f 4X4X4X4X4X4X4X",
"4X4X4X4X4X4Xl F.|.OX=X=X$XOXE.D g a &.$.o 7 9 q E ) 5.n.b._ 4.>.) v 0 8 8 $ #.i d X.* 4X4X4X4X4X4X4X",
"4X4X4X4X@ ^ Q.OX=X-X$X}.`.`.U.K z s u j > 7 0 q E _ 5.b.:.z.5.:.E W y q 7 7 $.g + X @ 4X4X4X4X4X4X4X",
"4X4X4X4X( W.OX;X-X#XOX|.[.Q.F.L N $.+.p > > 8 v E :.5.) 5.z.>.c ( W v y 8 7 #.B C . . 4X4X4X4X4X4X4X",
"4X4X4XU.[.OX<X;X-X=X-X2X<X=XQ.} N @.=.#.V.7 k q _ ) >.5.z.) 4./ E W w k 7 2 O.F t.J +   4X4X4X4X4X4X",
"4X4X4X}.OX|.=X=X=X-X>X=XOX[.S.S A X.&.#.'.c 0 v W ( 1.:.) b.5.W E E k q 7  .u e.t.K 5     4X4X4X4X4X",
"4X4X4X}.-X&XOX=X|.Q.H.J.S.n.,.4 g f $.#.Y.} 7 9 c v v E :.v./ W W W w q 9 P.= t.t.I V     4X4X4X4X4X",
"4X4X4XE.-X=X=XOX&X).S.{ { { Y   4 i #.$.| v 7 7 > c W :.4./ _ W ) Y w 0 7 Z.B t.t.I A *   @ 4X4X4X4X",
"4X4X4Xq.#X;X=X|.OXOX[.[ $ 4X@     * o.#.: 0 $ 7 c W { :.>._ W / ( e q 7 > W F } e.I C 4   @ 4X4X4X4X",
"4X4X4Xr `.=X;XOX{.@X&XJ.q 4X4X4X@   u o.= R ) e k R / { W E W ) w w 0. .>   I P P I Z M +   4X4X4X4X",
"4X4X4X4X2.|.,X=X.X)..X0.n 4X4X4X4X4X@ % % ) XX) k Y T T ) v ~ k w R &X~.( % K I I K H x 4   4X4X4X4X",
"4X4X4X4Xo C.|.=X@XK.} V S 2 4X4X4X4X4X& X.l D.XXE Y ' ' c W k Y  ./.%XD.y & K I I I Z b 5   @ 4X4X4X",
"4X4X4X4X4Xt G..Xh.i.i.Z M 5 # 4 1 @ 4X4Xh * w.| x...( 7 0 e w 3.OXOXZ...X 6 D D L K S 7.! ^ # 4X4X4X",
"4X4X4X4X4X4X+ z C e.p.H e.p.d.l.f.I * 4X@ : @ Q R.M.....b.) ( | 3.T...@ + 5 Q 6.2.q.8.A.R.Y.Q 4X4X4X",
"4X4X4X4X4X4X4X4 m C I e.p.f.f.d.u.K 4 4X@ r r 1 n M.D.B.).M.B.B.M.!   4Xo + 6.!.+X@X`.'..X!.} 4X4X4X",
"4X4X4X4X4X4X4X@ 5 V V u.p.p.g.s.s.J 1 4X@ r r t # ..x.U.@X~.c.M.( . 4X4X@ + P.oX;X:X+X.X.X.X| 4X4X4X",
"4X4X4X4X4X4X4X4X@ 5 V i.u.L.'.j.s.p.V @ . r r z n , 4.c.M.x.x.v 4X4X4X4X4X+ !.$X1X<X*X XoXoXq.4X4X4X",
"4X4X4X4X4X4X4X4X4X@ V i.^.#X+Xh.p.s.s.4   3 z z G n $ ~ c.[ 0 4X4X4X4X4X4X4XE.$X;X1X=X XoX@XV.4X4X4X",
"4X4X4X4X4X4X4X4X4X@ V h.@X#XI.u.p.p.J +   7 z x t r : X     4X4X4X4X4X4X4X4XC.'.*X2X;XoXoX@XA.4X4X4X",
"4X4X4X4X4X4X4X4X4X4X1 h.].k.y.t.e.C + 4X  o t o : : 1 1 5 4X4X4X4X4X4X4X4X4X2.'.2X2X<XoXoX%XP.4X4X4X",
"4X4X4X4X4X4X4X4X4X4X@ K P e.I K Z * 4X4X4X    3 L P H I t.@ 4X4X4X4X4X4X4X@ E.@X3X2X<X.XoXOXU.4X4X4X",
"4X4X4X4X4X4X4X4X4X4X4X5 J J Z 4 + 4X4X4X4X    V L P I e.i.< 4X4X4X4X4Xr } P.OX$X<X3X<X+X@XOXT.4X4X4X",
"4X4X4X4X4X4X4X4X4X4X4X4X4X4X4X4X4X4X4X4X@ K p.p.y.} e.e.e.C < 4 1 } @X#X#X=X2X2X2X2X1X>XoX{.U.4X4X4X",
"4X4X4X4X4X4X4X4X4X4X4X4X4X4X4X4X4X4X4X4X@ J y.t.y.P t.t.e.H < V V K.*X;X1X2X2X2X<X1X,XoX X XU.4X4X4X",
"4X4X4X4X4X4X4X4X4X4X4X4X4X4X4X4X4X4X4X4X@ 4 Z I e.h.L.i.e.H * C C ^.,X<X<X:X>X:X;X=XXX/. X/.w.4X4X4X",
"4X4X4X4X4X4X4X4X4X4X4X4X4X4X4X4X4X4X4X4X4Xm m K P L.+Xh.e.C 4 K J ^.@X@X+X+X$X&X#X{.!.'./.P.t 4X4X4X",
"4X4X4X4X4X4X4X4X4X4X4X4X4X4X4X4X4X4X4X4X4XM H C H ].$XK.e.V m P K L.].XX.XoX{.!.Y.U.U.N.2.: 4X4X4X4X",
"4X4X4X4X4X4X4X4X4X4X4X4X4X4X4X4X4X4X4X4X4X+ 5 m C (.$XK.e.4 4 5 1 9.R.E.T.U.N.P.m.2.n 2 4X4X4X4X4X4X",
"4X4X4X4X4X4X4X4X4X4X4X4X4X4X4X4X4X4X4X4X4X+ V V m L.#Xg.P + 4 4 5 S N.N.N.N.| n r # 4X4X4X4X4X4X4X4X",
"4X4X4X4X4X4X4X4X4X4X4X4X4X4X4X4X4X4X4X4X4X4X+ 5 V D 9.D H < m 5 4 1 b t 3 + 4X4X4X4X4X4X4X4X4X4X4X4X",
"4X4X4X4X4X4X4X4X4X4X4X4X4X4X4X4X4X4X4X4X4X4X@ 5 Z M 1 < <   @ 4X4X4X4X4X4X4X4X4X4X4X4X4X4X4X4X4X4X4X",
"4X4X4X4X4X4X4X4X4X4X4X4X4X4X4X4X4X4X4X4X4X4X4X4X4X4X4X4X4X4X4X4X4X4X4X4X4X4X4X4X4X4X4X4X4X4X4X4X4X4X",
"4X4X4X4X4X4X4X4X4X4X4X4X4X4X4X4X4X4X4X4X4X4X4X4X4X4X4X4X4X4X4X4X4X4X4X4X4X4X4X4X4X4X4X4X4X4X4X4X4X4X",
"4X4X4X4X4X4X4X4X4X4X4X4X4X4X4X4X4X4X4X4X4X4X4X4X4X4X4X4X4X4X4X4X4X4X4X4X4X4X4X4X4X4X4X4X4X4X4X4X4X4X"
};
