/* XPM */
static char *result[] = {
/* columns rows colors chars-per-pixel */
"50 50 202 2 ",
"   c #040504",
".  c #030C05",
"X  c #0C0A06",
"o  c #070C08",
"O  c #0A0A0A",
"+  c #120E0A",
"@  c #150C06",
"#  c #021406",
"$  c #011A07",
"%  c #061209",
"&  c #0A150B",
"*  c #051B0B",
"=  c #0A1E0E",
"-  c #14110C",
";  c #1C130B",
":  c #1F180F",
">  c #0B0D10",
",  c #131414",
"<  c #1F1710",
"1  c #141C15",
"2  c #1F1A12",
"3  c #171818",
"4  c #1B1C1B",
"5  c #0A101D",
"6  c #24160B",
"7  c #241A0E",
"8  c #2B1A0E",
"9  c #321D0E",
"0  c #3A1D0C",
"q  c #231C13",
"w  c #2B1C12",
"e  c #231E1A",
"r  c #331F11",
"t  c #01230A",
"y  c #012B0C",
"u  c #08260E",
"i  c #00340D",
"p  c #003B0E",
"a  c #052C11",
"s  c #0B2411",
"d  c #1D271F",
"f  c #053514",
"g  c #003C11",
"h  c #3B220F",
"j  c #2D2519",
"k  c #272317",
"l  c #362111",
"z  c #3C2413",
"x  c #3B2B1C",
"c  c #36281C",
"v  c #1F1F20",
"b  c #1E2A20",
"n  c #1F2020",
"m  c #1F3224",
"M  c #232424",
"N  c #232924",
"B  c #262729",
"V  c #272829",
"C  c #2B2C2C",
"Z  c #2D2722",
"A  c #322B26",
"S  c #392E26",
"D  c #3B3227",
"F  c #2D2F31",
"G  c #2E3032",
"H  c #353535",
"J  c #383636",
"K  c #353739",
"L  c #373A3B",
"P  c #3A3B3C",
"I  c #3F3A37",
"U  c #243328",
"Y  c #431E0A",
"T  c #45210B",
"R  c #412713",
"E  c #452A15",
"W  c #4B2D16",
"Q  c #432E1D",
"!  c #4D2D18",
"~  c #532B12",
"^  c #4C311D",
"/  c #533219",
"(  c #5A361A",
")  c #5E391C",
"_  c #562A0F",
"`  c #613A1C",
"'  c #6A3F1E",
"]  c #62361E",
"[  c #4C3422",
"{  c #473220",
"}  c #523623",
"|  c #5D3C24",
" . c #5C3622",
".. c #473D35",
"X. c #613D24",
"o. c #004313",
"O. c #004C15",
"+. c #034C19",
"@. c #005117",
"#. c #005519",
"$. c #005C1B",
"%. c #00631D",
"&. c #00681F",
"*. c #006D21",
"=. c #026621",
"-. c #007323",
";. c #007C26",
":. c #71421A",
">. c #5E412B",
",. c #5A4A3D",
"<. c #6B4223",
"1. c #63432A",
"2. c #6A462D",
"3. c #6C492E",
"4. c #634124",
"5. c #724522",
"6. c #7A4924",
"7. c #7B4D2B",
"8. c #76462A",
"9. c #7D502C",
"0. c #6E4C30",
"q. c #784E31",
"w. c #7C5233",
"e. c #74573E",
"r. c #172545",
"t. c #3C3E41",
"y. c #3F4143",
"u. c #414244",
"i. c #444648",
"p. c #4A4C4D",
"a. c #484646",
"s. c #584E45",
"d. c #4D4E51",
"f. c #4F5253",
"g. c #525355",
"h. c #57595B",
"j. c #675648",
"k. c #7D614A",
"l. c #864B29",
"z. c #855027",
"x. c #8D532B",
"c. c #865028",
"v. c #995C2C",
"b. c #965825",
"n. c #835535",
"m. c #8D5B39",
"M. c #8D5934",
"N. c #9A5C35",
"B. c #915A36",
"V. c #9B643B",
"C. c #946139",
"Z. c #A0612F",
"A. c #A66837",
"S. c #B2713B",
"D. c #B06C34",
"F. c #896548",
"G. c #9C6942",
"H. c #966F4F",
"J. c #987253",
"K. c #A36C43",
"L. c #A1734D",
"P. c #AC7447",
"I. c #B67845",
"U. c #BB7B46",
"Y. c #B47B4D",
"T. c #BD7D4A",
"R. c #B37445",
"E. c #A87953",
"W. c #B57E52",
"Q. c #008128",
"!. c #BE804B",
"~. c #BD8253",
"^. c #B98355",
"/. c #C3834E",
"(. c #CB874E",
"). c #C48753",
"_. c #C68854",
"`. c #CC8C55",
"'. c #C58759",
"]. c #C58A59",
"[. c #CA8D5B",
"{. c #D18F59",
"}. c #D28D56",
"|. c #CD915E",
" X c #D3925D",
".X c #CE9360",
"XX c #D39562",
"oX c #D89762",
"OX c #D69963",
"+X c #DB9C65",
"@X c #DB9E68",
"#X c #E29F6A",
"$X c #E09D66",
"%X c #DEA06A",
"&X c #E4A36C",
"*X c #E9A76F",
"=X c #E7A871",
"-X c #EBAB73",
";X c #E7A770",
":X c #F1AF75",
">X c #F2B176",
",X c None",
/* pixels */
",X,X,X,X,X,X,X,X,X,X,X,X,X,X,X,X,X,X,X,X,X,X,X,X,X,X,X,X,X,X,X,X,X,X,X,X,X,X,X,X,X,X,X,X,X,X,X,X,X,X",
",X,X,X,X,X,X,X,X,X,X,X,X,X,X,X,X,X,X,X,X,X,X,X,X,X,X,X,X,X,X,X,X,X,X,X,X,X,X,X,X,X,X,X,X,X,X,X,X,X,X",
",X,X,X,X,X,X,X,X,X,X,X,X,X,X,X,X,X,X,X,X,X,X,X,X,X,X,X,X,X,X,X,X,X,X,X,X,X,X,X,X,X,X,X,X,X,X,X,X,X,X",
",X,X,X,X,X,X,X,X6 3.K.K.K.K.K.G.G.w.1.} w - O ,X,X,X,X,X,X,X,X,X,X,X,X,X,X,X,X,X,X,X,X,X,X,X,X,X,X,X",
",X,X,X,X,X,X,XO m.Y.].[.XXXXXXOX.X.X[.W.V.<.o         O ,X,X,X,X,X,X,X,X,X,X,X,X,X,X,X,X,X,X,X,X,X,X",
",X,X,X,X,X,X,X^ Y.[.'.@XOX|.[.|.|.|..X|.B.| 3 3 O       O ,X,X,X,X,X,X,X,X,X,X,X,X,X,X,X,X,X,X,X,X,X",
",X,X,X,X,X,X,Xw.W.~.[.-XOX[.|.[.[.|.].].9.7.Q k 4 4 ,       ,X,X,X,X,X,X,X,X,X,X,X,X,X,X,X,X,X,X,X,X",
",X,X,X,X,X,Xq V.Y.~.&X-X-X-X-X=X&X@XXX~.| D V F C C V M 4     O o u a u = O ,X,X,X,X,X,X,X,X,X,X,X,X",
",X,X,X,X,X,X{ K.Y.+X-X:X>X>X>X>X>X-X=X@XA J K J J K J K J N O   p $.$.#.#.#.# % O ,X,X,X,X,X,X,X,X,X",
",X,X,X,X,X+ 0.K.XX*X-X:X=X:X>X%X&X-X=X@XA J J J P P t.u.y.P H 3 & o.o.O.@.#.i %.y O ,X,X,X,X,X,X,X,X",
",X,X,X,X,Xq m.P.@X;X:X:X%XOX[.Y.OX%XXX~.1.A K J P ..u.y.K U m d 1 s y i o.@.@.-.$.* ,X,X,X,X,X,X,X,X",
",X,X,X,X,X1.m.'.OX&X:X&X|.{ ,XO : ^ <.x M M C N s # : X.m.u i o.#.$.%.&.O.y #.O.i O.=.-.f ,X,X,X,X,X",
",X,X,X,X,Xq.G.[.|.&X>X@X^.O ,X,X,X,XX O 4 4 & $ . r B.G.1.; 7 7 - + p &.-.p %.i O.O.=.-.-.& ,X,X,X,X",
",X,X,X,X  m.G.].|.=X>XOX0.,X,X,X,X,X,XO > O r <.8 6 6 8 8 6 6 6 6 6 ; g ;.#.t #.#.O.-.-.;.o.,X,X,X,X",
",X,X,X,XO C.K.].|.=X-X].c ,X,X,X,X,X,X,Xz  .Z.R.q.; 7 8 r 0 r 9 8 6 6 @ & o.t i i i i p o.@.O ,X,X,X",
",X,X,X,X, B.K.~.[.=X&XG.+ ,X,X,X,X,X,X  n.q. X&XG.8 0 h 0 z z r 8 8 7 8 8 # p p p p o.O.@.p % ,X,X,X",
",X,X,X,X> Z | F.L.E.F.; ,X,X,X,X,X,X,Xr Q ~.|.} 0 0 Y ! ! E ! ! E ; 6 8 h o t i g o.o.o.o.o.t ,X,X,X",
",X,X,X,X, v 3 F L V V O ,X,X,X,X,X,Xr x.Q |.X.Y 0 ! ( ! Y E / ! / ( R 6 l z g o.O.#.%.&.*.%.y ,X,X,X",
",X,X,X,X3 4 3 K L C V O ,X,X,X,X,X9 l.V.X.n.Y Y } / E ! ~ X.r X.<.<.W W 6 l $ g @.#.$.%.-.*.$.,X,X,X",
",X,X,X,X3 3 , v 3 , O O ,X,X,X,X@ l.l.B.n.Q 0 ! ! E ] / 5.R ' 6.6.W ( E W 8 i i @.@.$.&.-.&.-.,X,X,X",
",X,X,Xr.> K P L t.L L i.u.B O   ' B.#X#X8.Y R r ( ~ 6.z.5.Z.v.c.( 5.` z W W y p #.#.$.%.%.%.-.,X,X,X",
",X,X,X5 M L t.t.t.t.t.t.i.i.v   X.l. X`. .9 8 ! E ' 6.<./ x.x.] z.z.` W W W y p #.#.#.%.%.-.@.,X,X,X",
",X,X,X> G s.H.E.F.s.t.t.P J e O 6 l.N.N. .8 ~ ~ _ ' ' W ) 6.( z.v.x.( / E R y i @.@.#.&.$.p i ,X,X,X",
",X,X,X> ...X@X@XXXY.a.P J G e O @ ] l.N.} X._ Y ~ ` / h <.( 6.6.6.5.( / l z o.y i i p i o.#.i ,X,X,X",
",X,X,X3 C F.W.^.L.j.u.P I ..e + D ; ! x.w X.T Y T / z l / ' <.` ) W ~ E l z $.t p p p o.o.g f ,X,X,X",
",X,X,XM V 4 n G L t.t.P H I 2 < D S q 8 | 2.} 0 0 l 6 0 E / R W R R z 8 z 8 i $ i i i o.$.-.+.,X,X,X",
",X,X,X, v n v B H K y.V e q X q l j j q E.} '.8.0 6 ; 6 z h R 9 r r 8 9 l o i t $ p O.$.&.-.a ,X,X,X",
",X,X,X,Xo 3 v C M M t.C     q j j q q q + n.7.T.7.@ 6 6 8 8 6 6 8 6 8 9   t o.y i $ O.$.&.#.O ,X,X,X",
",X,X,X,X,X,X> 4 M 3 M 3     X : 2 2 q : % $ 7 / / 6 z ^ z ; ; ; ; 9 7 # p $.O.t p o.t y f % ,X,X,X,X",
",X,X,X,X,X,X,X,X,X,X,X,X,X,X,X,X,X,X,X,X,Xo i t o.@.o.t k y # t O.$.%.*.&.*.o.@.-.o.* ,X,X,X,X,X,X,X",
",X,X,X,X,X,X,X,X,X,X,X,X,X,X,XO 3   ,X,X,X,Xo $ o.$.%.$.$.%.p y %.&.Q.;.-.&.p $.*.-.u . ,X,X,X,X,X,X",
",X,X,X,X,X,X,X,X,X,X,X,X,X,XO V g.H 3 4 O ,X,XO # p $.%.&.-.%.t $.;.;.-.$.y %.=.;.=.% ,X,X,X,X,X,X,X",
",X,X,X,X,X,X,X,X,X,X,X,X,XO M i.g.g.K G B > ,X,XO . = a o.$.$.O.t O.g y $ p %.=.f O ,X,X,X,X,X,X,X,X",
",X,X,X,X,X,X,X,X,X,X,X,XO M L d.f.g.g.d.p.4 ,X,XO   > 4 N b b b b N d O . g f % ,X,X,X,X,X,X,X,X,X,X",
",X,X,X,X,X,X,X,X,X,X,X,X> H u.i.s.k.g.h.f.M ,X,X,XX   , Z 7.D H G D v ,   O ,X,X,X,X,X,X,X,X,X,X,X,X",
",X,X,X,X,X,X,X,X,X,X,XO M L t.F..X'.j.g.t., o ,X,X,X6 :.v.!.S.A.K.U.[ 3   ,X,X,X,X,X,X,X,X,X,X,X,X,X",
",X,X,X,X,X,X,X,X,X,X,X, F t.j.OX%XE.d.g.M 4 k . ,X,XT b.U. X!.I.+X).P.5.X ,X,X,X,X,X,X,X,X,X,X,X,X,X",
",X,X,X,X,X,X,X,X,X,X,XO C P J.+X^.s.d.f.M 4 C c l + h b.{.&X_.T.+X{.I.A.- ,X,X,X,X,X,X,X,X,X,X,X,X,X",
",X,X,X,X,X,X,X,X,X,X,X,X,X4 F L y.y.K C p.u.C F.}.D.b.Z.&X-X+X`.#X XS.z ,X,X,X,X,X,X,X,X,X,X,X,X,X,X",
",X,X,X,X,X,X,X,X,X,X,X,X,X,X> 4 B v M H h.p...Y.@X`.D.A.=X&X+X X&X(.C.+ ,X,X,X,X,X,X,X,X,X,X,X,X,X,X",
",X,X,X,X,X,X,X,X,X,X,X,X,X,X,X,XO , M M d.f.e./.`.&X(.S.*X&X$X*X+XU.} ,X,X,X,X,X,X,X,X,X,X,X,X,X,X,X",
",X,X,X,X,X,X,X,X,X,X,X,X,X,X,X,X,X,X3 M V ..|.`./. X X}.+X&X&X*X{.V.+ ,X,X,X,X,X,X,X,X,X,X,X,X,X,X,X",
",X,X,X,X,X,X,X,X,X,X,X,X,X,X,X,X,X,X,X, 3.~.%X%X X}. X&X&X*X*X+XI.q ,X,X,X,X,X,X,X,X,X,X,X,X,X,X,X,X",
",X,X,X,X,X,X,X,X,X,X,X,X,X,X,X,X,X,X,X,X^ V.`.&X=X&X$X X$X-X+X/.Q ,X,X,X,X,X,X,X,X,X,X,X,X,X,X,X,X,X",
",X,X,X,X,X,X,X,X,X,X,X,X,X,X,X,X,X,X,X,X,X; w./.$X=X*X&X X+XT.2.,X,X,X,X,X,X,X,X,X,X,X,X,X,X,X,X,X,X",
",X,X,X,X,X,X,X,X,X,X,X,X,X,X,X,X,X,X,X,X,X,Xo c P.{.&X&X@XI.4.o ,X,X,X,X,X,X,X,X,X,X,X,X,X,X,X,X,X,X",
",X,X,X,X,X,X,X,X,X,X,X,X,X,X,X,X,X,X,X,X,X,X,X,X- 2.A.~._.X.O ,X,X,X,X,X,X,X,X,X,X,X,X,X,X,X,X,X,X,X",
",X,X,X,X,X,X,X,X,X,X,X,X,X,X,X,X,X,X,X,X,X,X,X,X,X,X,X,X,X,X,X,X,X,X,X,X,X,X,X,X,X,X,X,X,X,X,X,X,X,X",
",X,X,X,X,X,X,X,X,X,X,X,X,X,X,X,X,X,X,X,X,X,X,X,X,X,X,X,X,X,X,X,X,X,X,X,X,X,X,X,X,X,X,X,X,X,X,X,X,X,X",
",X,X,X,X,X,X,X,X,X,X,X,X,X,X,X,X,X,X,X,X,X,X,X,X,X,X,X,X,X,X,X,X,X,X,X,X,X,X,X,X,X,X,X,X,X,X,X,X,X,X"
};
