/* XPM */
static char *result[] = {
/* columns rows colors chars-per-pixel */
"50 50 202 2 ",
"   c #050504",
".  c #040B06",
"X  c #0C0B06",
"o  c #0A0B0A",
"O  c #080A07",
"+  c #120E0A",
"@  c #160C06",
"#  c #011A07",
"$  c #07130A",
"%  c #0B140B",
"&  c #041C0A",
"*  c #0B1C0D",
"=  c #041507",
"-  c #14110C",
";  c #1C120B",
":  c #1F180F",
">  c #0F0F10",
",  c #0A101D",
"<  c #141414",
"1  c #1F1710",
"2  c #141C15",
"3  c #1F1A12",
"4  c #171819",
"5  c #1B1C1C",
"6  c #23150B",
"7  c #2B1A0E",
"8  c #271A0D",
"9  c #321D0E",
"0  c #3A1D0C",
"q  c #241C13",
"w  c #2C1D12",
"e  c #231D1A",
"r  c #331F11",
"t  c #02230A",
"y  c #012C0C",
"u  c #00340D",
"i  c #003B0E",
"p  c #052C11",
"a  c #0A2611",
"s  c #1B291E",
"d  c #043513",
"f  c #003C11",
"g  c #3C230F",
"h  c #2D2519",
"j  c #2A2317",
"k  c #352111",
"l  c #3B2312",
"z  c #3D2B1C",
"x  c #36281C",
"c  c #1F1F20",
"v  c #1E2A20",
"b  c #1F2020",
"n  c #1F3224",
"m  c #232425",
"M  c #262729",
"N  c #27292A",
"B  c #2B2C2C",
"V  c #282823",
"C  c #322C29",
"Z  c #372C24",
"A  c #27332A",
"S  c #3B3227",
"D  c #2E2F31",
"F  c #2E3032",
"G  c #343535",
"H  c #383636",
"J  c #353739",
"K  c #373A3B",
"L  c #3A3A3B",
"P  c #3F3A37",
"I  c #431E0A",
"U  c #45210B",
"Y  c #562D0F",
"T  c #412713",
"R  c #452915",
"E  c #4B2C15",
"W  c #432E1D",
"Q  c #4C2D19",
"!  c #532C12",
"~  c #4B311C",
"^  c #4F3017",
"/  c #533219",
"(  c #5A361A",
")  c #5F391C",
"_  c #613A1D",
"`  c #693E1E",
"'  c #62361E",
"]  c #4C3422",
"[  c #403328",
"{  c #523623",
"}  c #5C3C23",
"|  c #5A3622",
" . c #473D35",
".. c #613E25",
"X. c #004413",
"o. c #004C15",
"O. c #034C19",
"+. c #005117",
"@. c #005419",
"#. c #005C1B",
"$. c #00631D",
"%. c #00681F",
"&. c #006D21",
"*. c #026721",
"=. c #007323",
"-. c #007C26",
";. c #007F28",
":. c #6B401F",
">. c #71421A",
",. c #5C412D",
"<. c #4C423B",
"1. c #6C4121",
"2. c #64442B",
"3. c #6A462C",
"4. c #6C482D",
"5. c #634024",
"6. c #724421",
"7. c #7A4924",
"8. c #794D29",
"9. c #754729",
"0. c #7D502C",
"q. c #764D31",
"w. c #7C5233",
"e. c #745133",
"r. c #6D523C",
"t. c #3D3E41",
"y. c #3F4043",
"u. c #414243",
"i. c #46484A",
"p. c #4B4C4E",
"a. c #494645",
"s. c #594F46",
"d. c #4D4E51",
"f. c #4F5254",
"g. c #525355",
"h. c #57595B",
"j. c #655548",
"k. c #765E4A",
"l. c #7D614A",
"z. c #804B1F",
"x. c #814E26",
"c. c #844B2B",
"v. c #874B29",
"b. c #8C532B",
"n. c #855027",
"m. c #9A5D2B",
"M. c #975928",
"N. c #845534",
"B. c #8A5B37",
"V. c #915E39",
"C. c #975A36",
"Z. c #9B633B",
"A. c #946139",
"S. c #AB6E3C",
"D. c #A56635",
"F. c #B36E36",
"G. c #896548",
"H. c #9C6942",
"J. c #916B4D",
"K. c #987253",
"L. c #A36C43",
"P. c #A1734D",
"I. c #AC7348",
"U. c #AF794D",
"Y. c #B47643",
"T. c #B67845",
"R. c #B37A4C",
"E. c #BC7E4A",
"W. c #B67747",
"Q. c #AC7C54",
"!. c #B67E51",
"~. c #008128",
"^. c #BE804B",
"/. c #BD8253",
"(. c #B98355",
"). c #C3844E",
"_. c #C8844B",
"`. c #C28452",
"'. c #C68854",
"]. c #CD8C55",
"[. c #C58A59",
"{. c #CA8D5B",
"}. c #C88557",
"|. c #D18F59",
" X c #CD915E",
".X c #D2925D",
"XX c #CE9360",
"oX c #D39562",
"OX c #D69963",
"+X c #DB9B65",
"@X c #DC9E68",
"#X c #D89761",
"$X c #E19F69",
"%X c #DEA06A",
"&X c #E4A46D",
"*X c #E8A66E",
"=X c #E6A870",
"-X c #EBAB73",
";X c #E7A770",
":X c #F1AF75",
">X c #F2B176",
",X c None",
/* pixels */
",X,X,X,X,X,X,X,X,X,X,X,X,X,X,X,X,X,X,X,X,X,X,X,X,X,X,X,X,X,X,X,X,X,X,X,X,X,X,X,X,X,X,X,X,X,X,X,X,X,X",
",X,X,X,X,X,X,X,X,X,X,X,X,X,X,X,X,X,X,X,X,X,X,X,X,X,X,X,X,X,X,X,X,X,X,X,X,X,X,X,X,X,X,X,X,X,X,X,X,X,X",
",X,X,X,X,X,X,X,X,X,X,X,X,X,X,X,X,X,X,X,X,X,X,X,X,X,X,X,X,X,X,X,X,X,X,X,X,X,X,X,X,X,X,X,X,X,X,X,X,X,X",
",X,X,X,X,X,X,X,X,X,X,X,X,X,X,X,X,X,X,X,X,X,X,X,X- 2.L./.[.5.X ,X,X,X,X,X,X,X,X,X,X,X,X,X,X,X,X,X,X,X",
",X,X,X,X,X,X,X,X,X,X,X,X,X,X,X,X,X,X,X,X,X,XO ~ T..X*X*X%XY.9.X ,X,X,X,X,X,X,X,X,X,X,X,X,X,X,X,X,X,X",
",X,X,X,X,X,X,X,X,X,X,X,X,X,X,X,X,X,X,X,X,X1 w.).%X*X*X&X.X+X^.3.,X,X,X,X,X,X,X,X,X,X,X,X,X,X,X,X,X,X",
",X,X,X,X,X,X,X,X,X,X,X,X,X,X,X,X,X,X,X,X~ Z.].&X=X&X+X.X%X-X+X^.W ,X,X,X,X,X,X,X,X,X,X,X,X,X,X,X,X,X",
",X,X,X,X,X,X,X,X,X,X,X,X,X,X,X,X,X,X,X< 3.(.%X%XOX].|.&X&X-X*X+XT.q ,X,X,X,X,X,X,X,X,X,X,X,X,X,X,X,X",
",X,X,X,X,X,X,X,X,X,X,X,X,X,X,X,X,X,X4 m B  .{.{.).|..X|.&X&X&X*X].Z.- ,X,X,X,X,X,X,X,X,X,X,X,X,X,X,X",
",X,X,X,X,X,X,X,X,X,X,X,X,X,X,Xo o 4 m M g.g.r.^.].%X_.F.*X&X.X*X+X^.( ,X,X,X,X,X,X,X,X,X,X,X,X,X,X,X",
",X,X,X,X,X,X,X,X,X,X,X,X,X,Xo c m m m F h.p. .!.&X].F.D.*X*X+X.X&X).A.- ,X,X,X,X,X,X,X,X,X,X,X,X,X,X",
",X,X,X,X,X,X,X,X,X,X,X,X< F s.k.a.i.p.u.H B m S F.z.Y M.&X>X.X_.&XOXF.0.,X,X,X,X,X,X,X,X,X,X,X,X,X,X",
",X,X,X,X,X,X,X,X,X,X,Xo B L K.@X(.s.d.f.m 5 C x k @ g M.|.&X'.E.@X|.T.D.+ ,X,X,X,X,X,X,X,X,X,X,X,X,X",
",X,X,X,X,X,X,X,X,X,X,X> B t.j.oX%XQ.p.g.m 4 e O ,X,Xg M.F.#XE.Y.#X'.S./ o ,X,X,X,X,X,X,X,X,X,X,X,X,X",
",X,X,X,X,X,X,X,X,X,X,Xo m K t.G.XX[.j.g.t.< o ,X,X,X6 >.m.^.S.S.P.W.] < O ,X,X,X,X,X,X,X,X,X,X,X,X,X",
",X,X,X,X,X,X,X,X,X,X,X,X> F u.i.s.l.g.h.g.m ,X,X,XO   < V 8.S G C S m < O   ,X,X,X,X,X,X,X,X,X,X,X,X",
",X,X,X,X,X,X,X,X,X,X,X,XO M L d.f.g.g.d.p.5 ,X,Xo   > 5 V m s V s V 5 o . X.d % ,X,X,X,X,X,X,X,X,X,X",
",X,X,X,X,X,X,X,X,X,X,X,X,Xo c i.g.g.G G m o ,X,XO O a y X.#.$.o.t +.f y = d $.&.d o ,X,X,X,X,X,X,X,X",
",X,X,X,X,X,X,X,X,X,X,X,X,X,Xo m d.G > < o ,X,Xo = X.#.$.%.=.#.t #.-.~.=.$.i #.%.-.&.% ,X,X,X,X,X,X,X",
",X,X,X,X,X,X,X,X,X,X,X,X,X,X,X  4 o ,X,X,X,X$ = X.#.#.#.#.$.i y $.%.~.-.=.%.f #.&.=.y O ,X,X,X,X,X,X",
",X,X,X,X,X,X,X,X,X,Xo ,X,X,X,X        O O y o.= & * Q Z.).w ; 6 X t i +.$.%.o.i f X.@.$ ,X,X,X,X,X,X",
",X,X,X,X,X,Xo 5 m 4 m 4     X 6 : : q 3 $ # q / / ; l ~ z ; ; ; 6 7 6 $ i #.o.t f X.t u f o ,X,X,X,X",
",X,X,X,Xo c c N m M t.B     q h j q q q 6 N.N.}.9.@ 6 6 6 9 6 7 7 7 8 k   # X.y y = +.$.*.#.o ,X,X,X",
",X,X,X< 5 m c m F K t.B e e   q h h j 3 I.{ }.9.0 6 ; 7 l 0 g 9 7 0 7 9 0 X u t & f o.#.&.=.p ,X,X,X",
",X,X,Xm N c c F J t.t.L H  .e ; W Z 1 7 } 3.{ 0 0 r 6 0 T / R E T T l 7 T 7 y # u u u f #.=.O.,X,X,X",
",X,X,X< B G.Q.(.P.k.t.L L H e + Z 1 Q C.w ..I I T ^ l l / 1.` _ ) E ^ R k l #.y i i i o.o.f p ,X,X,X",
",X,X,X>  .oX@X@X#XU.a.L H F e + + ' b.Z.{ ..Y I ! ' ( r :.) 7.7.7.6.( / k l X.y u u u i X.+.u ,X,X,X",
",X,X,Xo F <.l.J.k.a.t.t.L H 5 X 7 v.Z.C.{ 6 ! ! Y ..>.Q ( x./ n.m.b.( / R T y u +.+.#.$.$.f u ,X,X,X",
",X,X,X, M t.t.t.t.t.t.t.i.u.m   ' v.|.}...7 7 / E ` 7.6./ b.b._ b.8._ E R E y i @.@.#.#.$.=.+.,X,X,X",
",X,X,X  > o , c N B D 4 > o ,X,XR 7.W.C.c.0 E R T _ E 7.M.1.n.x.1.( _ l / T d u #.+.#.%.=.$.&.,X,X,X",
",X,X,X,X4 4 < c 4 < > o ,X,X,X,X@ v.v.C.N.R g ! E R ) / 6.T :.7.7.R ( R E 7 u u @.+.#.%.=.$.=.,X,X,X",
",X,X,X,X4 5 < G J B M   ,X,X,X,X,X7 v.C.2.B.I 0 / / ^ R / :.l / 6.1.^ T 6 k # i +.@.#.$.&.=.#.,X,X,X",
",X,X,X,X> m < F J M M O ,X,X,X,X,X,Xl b.W {...I 0 Q / / l E / R / ( T 8 k l f X.+.@.$.%.%.$.y ,X,X,X",
",X,X,X,Xo Z } J.P.Q.G.4 ,X,X,X,X,X,X,Xw W !..X{ 0 0 I E E R ^ ^ R ; 6 7 k + t i i X.X.X.X.X.t ,X,X,X",
",X,X,X,X< V.L./.{.=X&XH.+ ,X,X,X,X,X,XO N.w..X$XH.7 0 0 0 g l k 7 7 6 8 7 # i f i i i +.+.f $ ,X,X,X",
",X,X,X,Xo V.L.[.{.-X-X{.x ,X,X,X,X,X,X,Xl | Z.Y.q.; 6 r 9 l k 9 7 6 6 @ % X.t u u u u i X.+.o ,X,X,X",
",X,X,X,XO B.H.[. X=X:X.Xe.,X,X,X,X,X,Xo < O 6 ^ 6 ; 6 7 6 6 ; 6 6 6 ; o.-.+.y o.+.+.&.=.-.f ,X,X,X,X",
",X,X,X,X,Xq.Z.{. X%X>X%X(.X ,X,X,X,X% X 5 5 % = . r C.H.2.; 8 8 ; % f %.&.f $.u O.X.&.&.=.$ ,X,X,X,X",
",X,X,X,X,Xz V.!.%X%X:X-XOX(.2.B.I.U.L.N.x B G H L B v t & $.#.$.#.@.X.y t X.X.=.X.y f a ,X,X,X,X,X,X",
",X,X,X,X,Xq V.I.%X=X:X:X%X.X XR.OX%XOX/.5.Z H L L t.y.y.K A n s 2 a y u X.+.+.=.#.& ,X,X,X,X,X,X,X,X",
",X,X,X,X,X+ 3.L. X=X-X>X-X>X>X&X&X-X=X@XB H J J L L t.u.u.H G > & X.X.o.o.+.d #.a O ,X,X,X,X,X,X,X,X",
",X,X,X,X,X,XW L.(.+X-X>X>X>X>X>X>X-X-X@XC H H J H J H J G M O   u #.#.@.#.@.$ $ O ,X,X,X,X,X,X,X,X,X",
",X,X,X,X,X,Xq H.I./.&X:X-X-X-X*X&X%XOX/.} S N B B B M M c   O O o p p a % o ,X,X,X,X,X,X,X,X,X,X,X,X",
",X,X,X,X,X,X,Xw././.[.*X#X X X X{.{.[.}.0.8.W j 5 5 >       ,X,X,X,X,X,X,X,X,X,X,X,X,X,X,X,X,X,X,X,X",
",X,X,X,X,X,X,X~ R.{.[.@XOX X{.XXXXXXoX{.B.} 4 4 o O     O ,X,X,X,X,X,X,X,X,X,X,X,X,X,X,X,X,X,X,X,X,X",
",X,X,X,X,X,X,Xo N.U.}.[.XXoXoXoXoXoX[.!.Z.1.O   O   O ,X,X,X,X,X,X,X,X,X,X,X,X,X,X,X,X,X,X,X,X,X,X,X",
",X,X,X,X,X,X,X,X6 4.L.L.I.L.H.H.A.w.2.{ w - o ,X,X,X,X,X,X,X,X,X,X,X,X,X,X,X,X,X,X,X,X,X,X,X,X,X,X,X",
",X,X,X,X,X,X,X,X,X,X,X,X,X,X,X,X,X,X,X,X,X,X,X,X,X,X,X,X,X,X,X,X,X,X,X,X,X,X,X,X,X,X,X,X,X,X,X,X,X,X",
",X,X,X,X,X,X,X,X,X,X,X,X,X,X,X,X,X,X,X,X,X,X,X,X,X,X,X,X,X,X,X,X,X,X,X,X,X,X,X,X,X,X,X,X,X,X,X,X,X,X",
",X,X,X,X,X,X,X,X,X,X,X,X,X,X,X,X,X,X,X,X,X,X,X,X,X,X,X,X,X,X,X,X,X,X,X,X,X,X,X,X,X,X,X,X,X,X,X,X,X,X"
};
