/* XPM */
static char *result[] = {
/* columns rows colors chars-per-pixel */
"50 50 203 2 ",
"   c #050404",
".  c #040A05",
"X  c #090A06",
"o  c #070B08",
"O  c #0A0A0A",
"+  c #0A0706",
"@  c #130F0A",
"#  c #170E07",
"$  c #011B07",
"%  c #06130A",
"&  c #0C110B",
"*  c #051A0B",
"=  c #051607",
"-  c #14110C",
";  c #1C130B",
":  c #1F180F",
">  c #0A0C11",
",  c #141414",
"<  c #1A1713",
"1  c #1F1911",
"2  c #171818",
"3  c #1B1C1C",
"4  c #151B17",
"5  c #22150B",
"6  c #26180D",
"7  c #2B1A0D",
"8  c #2A170C",
"9  c #321E0F",
"0  c #3A1E0D",
"q  c #331709",
"w  c #231B12",
"e  c #2C1E12",
"r  c #331F10",
"t  c #012309",
"y  c #012C0C",
"u  c #09230F",
"i  c #00340E",
"p  c #003B0E",
"a  c #072610",
"s  c #062A11",
"d  c #19271C",
"f  c #043411",
"g  c #013C11",
"h  c #3B200E",
"j  c #2C2116",
"k  c #2D251A",
"l  c #292415",
"z  c #352112",
"x  c #3B2412",
"c  c #34251A",
"v  c #39271A",
"b  c #3A2B1B",
"n  c #1F1F20",
"m  c #121D35",
"M  c #1F2021",
"N  c #1F2A20",
"B  c #1F3324",
"V  c #232424",
"C  c #272829",
"Z  c #2B2B2C",
"A  c #252827",
"S  c #362C24",
"D  c #322F2D",
"F  c #253228",
"G  c #38312A",
"H  c #2D2E30",
"J  c #2F3133",
"K  c #343435",
"L  c #393635",
"P  c #3A3B3C",
"I  c #373838",
"U  c #431F0B",
"Y  c #42230E",
"T  c #49240E",
"R  c #412613",
"E  c #432915",
"W  c #4B2D16",
"Q  c #4A2D1B",
"!  c #442B1A",
"~  c #532D17",
"^  c #4B311D",
"/  c #543017",
"(  c #54321A",
")  c #5A361B",
"_  c #5E391C",
"`  c #5D3114",
"'  c #52280E",
"]  c #633C1D",
"[  c #683F1F",
"{  c #633818",
"}  c #4E3623",
"|  c #543924",
" . c #5A3C26",
".. c #563621",
"X. c #623C23",
"o. c #004313",
"O. c #004C15",
"+. c #024D19",
"@. c #005117",
"#. c #005419",
"$. c #005C1B",
"%. c #00631D",
"&. c #006C21",
"*. c #036420",
"=. c #007323",
"-. c #007B26",
";. c #007F28",
":. c #6B401F",
">. c #75451E",
",. c #54463B",
"<. c #6D4120",
"1. c #65442A",
"2. c #6B462D",
"3. c #734422",
"4. c #7A4924",
"5. c #754C2A",
"6. c #7A4E2B",
"7. c #654C39",
"8. c #724D31",
"9. c #765031",
"0. c #7D5335",
"q. c #3D3E41",
"w. c #403F41",
"e. c #3F4142",
"r. c #424244",
"t. c #464749",
"y. c #4A4C4C",
"u. c #46484B",
"i. c #4D4E51",
"p. c #4E5052",
"a. c #525355",
"s. c #545759",
"d. c #585A5B",
"f. c #56514E",
"g. c #685546",
"h. c #795F4A",
"j. c #7E624C",
"k. c #8F521F",
"l. c #834A27",
"z. c #8C522A",
"x. c #8F5B2F",
"c. c #985A2B",
"v. c #8C5C3A",
"b. c #865633",
"n. c #935532",
"m. c #915E3A",
"M. c #975A34",
"N. c #8F603C",
"B. c #94613B",
"V. c #9B643D",
"C. c #9A663B",
"Z. c #A3622F",
"A. c #A4653C",
"S. c #A66936",
"D. c #A8703F",
"F. c #B2743F",
"G. c #866345",
"H. c #936C4C",
"J. c #986945",
"K. c #9E7452",
"L. c #A46C43",
"P. c #A66B42",
"I. c #A97247",
"U. c #AA7548",
"Y. c #B27542",
"T. c #B37B4D",
"R. c #B97947",
"E. c #A77A53",
"W. c #BB7F51",
"Q. c #B57F53",
"!. c #C17D44",
"~. c #00862A",
"^. c #BE804B",
"/. c #BC8253",
"(. c #B68358",
"). c #C3824C",
"_. c #C38655",
"`. c #C58855",
"'. c #CC8B54",
"]. c #C58A59",
"[. c #CA8D5B",
"{. c #C68757",
"}. c #D08F5A",
"|. c #CD915E",
" X c #D3935D",
".X c #D39561",
"XX c #D59964",
"oX c #DB9B65",
"OX c #DC9F69",
"+X c #DA9762",
"@X c #E19E69",
"#X c #E09D67",
"$X c #DEA16A",
"%X c #E3A36C",
"&X c #E8A76F",
"*X c #E6A86F",
"=X c #E6A670",
"-X c #E8A770",
";X c #E7A971",
":X c #EBAB73",
">X c #F0AF75",
",X c #F2B176",
"<X c None",
/* pixels */
"<X<X<X<X<X<X<X<X<X<X<X<X<X<X<X<X<X<X<X<X<X<X<X<X<X<X<X<X<X<X<X<X<X<X<X<X<X<X<X<X<X<X<X<X<X<X<X<X<X<X",
"<X<X<X<X<X<X<X<X<X<X<X<X<X<X<X<X<X<X<X<X<X<X<X<X<X<X<X<X<X<X<X<X<X<X<X<X<X<X<X<X<X<X<X<X<X<X<X<X<X<X",
"<X<X<X<X<X<X<X<X<X<X<X<X<X<X<X<X<X<X<X<X<X<X<X<X<X<X<X<X<X<X<X<X<X<X<X<X<X<X<X<X<X<X<X<X<X<X<X<X<X<X",
"<X<X<X<X<X<X<X<X<X<X<X<X<X<X<X<X<X<X<X<X^ `.`.U.9.5 <X<X<X<X<X<X<X<X<X<X<X<X<X<X<X<X<X<X<X<X<X<X<X<X",
"<X<X<X<X<X<X<X<X<X<X<X<X<X<X<X<X<X<Xo ^ R.+X%X&XoX^.1.X <X<X<X<X<X<X<X<X<X<X<X<X<X<X<X<X<X<X<X<X<X<X",
"<X<X<X<X<X<X<X<X<X<X<X<X<X<X<X<X<X<X^ Y. X|.%X%X&X%X'.B.w <X<X<X<X<X<X<X<X<X<X<X<X<X<X<X<X<X<X<X<X<X",
"<X<X<X<X<X<X<X<X<X<X<X<X<X<X<X<X<Xj Y.+X:X%X X$X%X*X&X XD.1.<X<X<X<X<X<X<X<X<X<X<X<X<X<X<X<X<X<X<X<X",
"<X<X<X<X<X<X<X<X<X<X<X<X<X<X<X<X@ C.+X&X>X%X%X X}. XoX%X].0.2 O <X<X<X<X<X<X<X<X<X<X<X<X<X<X<X<X<X<X",
"<X<X<X<X<X<X<X<X<X<X<X<X<X<X<XX 4.'.%X&X%X%X}.+X X).`. X7.Z M 3 o <X<X<X<X<X<X<X<X<X<X<X<X<X<X<X<X<X",
"<X<X<X<X<X<X<X<X<X<X<X<X<X<X<Xv F. X&X#X%X&XF.!. X X^.v.y.s.C V n O O <X<X<X<X<X<X<X<X<X<X<X<X<X<X<X",
"<X<X<X<X<X<X<X<X<X<X<X<X<X<X<X6.).%X%X X&X&XF.Z.'.#X'.,.u.d.I A M A n , O <X<X<X<X<X<X<X<X<X<X<X<X<X",
"<X<X<X<X<X<X<X<X<X<X<X<X<X<Xw S.'.$X}.}.&X&XF.k.S.'./.S q.u.H K q.e.q.K 3 O <X<X<X<X<X<X<X<X<X<X<X<X",
"<X<X<X<X<X<X<X<X<X<X<X<X<Xo x.F.'.$X^.).oXoXZ.{ O e b S M 3 p.p.y.E.oX(.I H <X<X<X<X<X<X<X<X<X<X<X<X",
"<X<X<X<X<X<X<X<X<X<X<X<X<X+ ! B.). X^.R. X).c.{ <X<X<X< 3 3 s.i.H.oXoXj.q.K <X<X<X<X<X<X<X<X<X<X<X<X",
"<X<X<X<X<X<X<X<X<X<X<X<X<X  , c Y.U.D.S.R.Z.>.h O <X<X<XO K s.a.Q..XK.r.I H <X<X<X<X<X<X<X<X<X<X<X<X",
"<X<X<X<X<X<X<X<X<X<X<X<X+ + O M S D D L 5.S <   + <X<X<X2 y.d.a.j.g.u.r.J 2 <X<X<X<X<X<X<X<X<X<X<X<X",
"<X<X<X<X<X<X<X<X<X<Xo s O.. X 3 N N N N d C d < + + <X<X, r.y.a.a.i.p.P Z O <X<X<X<X<X<X<X<X<X<X<X<X",
"<X<X<X<X<X<X<X<XO a %.&.g $ t p @.y g %.$.O.f * O + <X<XO 3 K K i.s.i.A @ <X<X<X<X<X<X<X<X<X<X<X<X<X",
"<X<X<X<X<X<X<XO *.-.%.%.i $.=.;.;.&.t @.=.%.%.$.+.t . <X<XO , , V a.H O <X<X<X<X<X<X<X<X<X<X<X<X<X<X",
"<X<X<X<X<X<X<X* &.&.%.O.$.=.~.~.&.%.p y $.$.%.%.%.+.$ o <X<X<X<XO 2 O <X<X<X<X<X<X<X<X<X<X<X<X<X<X<X",
"<X<X<X<X<X<X<X% g &.%.p %.&.%.%.$.#.y = t l t p @.+.$ i o <X<X<X<X<X<X<X<X<X<X<X<X<X<X<X<X<X<X<X<X<X",
"<X<X<X<XO f f t g g t o.$.o.t ; 9 5 5 ; ; z | x e x ) e * = 1 w 1 1 : -     K H 2 n n > O <X<X<X<X<X",
"<X<X<XO +.%.%.$.$ y y p y   7 z ; 9 8 8 7 7 ; 6 # ( {.A.0.b w l w k k e     i.e.Z M H 3 V O + <X<X<X",
"<X<X<X* &.=.$.O.o.t $ i . 7 h 6 z 9 9 z h x 7 5 5 q ) {. .L.- l k k j + w M i.r.K J C M V 3 3 <X<X<X",
"<X<X<Xs =.%.o.g p i $ t ; E 7 x x x W W W W h 5 r 0 0 E 0.v x ; b ! j - L L r.w.q.q.J V n A Z <X<X<X",
"<X<X<X* o.o.O.p p p i #.z h x W ( ) _ :.:.( x 9 ~ R T Y X.v n.X.5 S < 2 } P q.q.g.H.(.(.H.G n <X<X<X",
"<X<X<Xu @.o.p i i i y +.x h ^ _ :.4.4.4.] :.R ~ ] ~ T ' ( 8.A.z.[ # @ < J K q.q.H.[.oXOXXX7.2 <X<X<X",
"<X<X<Xi g %.%.$.@.@.y o.x W ( W z.c.z.) 4.:.R [ X.{ T ' # ..M.A.l.Q + , I q.q.q.t.g.H.G.f.J > <X<X<X",
"<X<X<Xg =.%.%.$.#.$.i O.W W W ( 4.z.:.4.z.) [ 3.[ T ..r q ~ W..Xn.l.  2 e.u.q.q.} q.q.q.P H > <X<X<X",
"<X<X<X=.%.%.%.$.#.#.i +.W W x ) :._ 4.c.Z.[ z.l.` ) R 0 0 X.@X%XP.n.+ + V q.q.q.q.q.q.q.I , m <X<X<X",
"<X<X<X=.%.=.=.$.@.@.p o.e E x :.x 4.4.<.R 4.~ { Q Q Q R U b.M.l.l.7 <X<X<X<X> > > , n > 2 3 O <X<X<X",
"<X<X<X@.=.=.%.%.$.@.o.i z 5 x W :.:.:.z X.~ Q Q ) ~ R T X.v.M.n.x <X<X<X<X<X, N Z J q.n 2 3 <X<X<X<X",
"<X<X<X* #.=.*.%.$.@.O.i 9 x 7 z ) ) E / W E W / / 0 0 (  X2.M.~ <X<X<X<X<X<X, A A K K 2 3 2 <X<X<X<X",
"<X<X<X* o.o.o.o.o.g p t X 7 z 5 ; R W W W W W Y 0 0 x /.|.| Q   <X<X<X<X<X<X} G.E.E.H.2.S , <X<X<X<X",
"<X<X<Xo i @.+.o.p p o.p t 7 : 6 6 8 z z h h h h e 9.@XoXB.2.+ <X<X<X<X<X<X<XXX$X;XXX(.U.m.c <X<X<X<X",
"<X<X<XO o.O.p g i i i y o.* @ 5 5 5 9 h z z 9 6 5 ..R.A.X.Q <X<X<X<X<X<X<X1 XX;X:XXX].U.m.j <X<X<X<X",
"<X<X<X<Xs =.=.=.@.@.#.t p ~.$.@ 6 6 5 5 5 5 7 6 # 5 ) e + , O + <X<X<X<X<X} oX:X:X.X].I.m.1 <X<X<X<X",
"<X<X<X<Xo *.=.&.O.O.p #.i %.&.O.& # 5 w : | B.C.Q + $ % 2 2 & o O <X<X<X. J.*X,X;X|.|.L.m.O <X<X<X<X",
"<X<X<X<X<X<X* g y i =.O.o.t y g @.$.%.%.%.t * d F I I L D S 5.C.U.U.B.1.U..X,X,X;XOX_.B. .<X<X<X<X<X",
"<X<X<X<X<X<X<X<X% +.-.%.@.o.p y u u d B F I e.r.q.I I I D | T. X$XOX/./.oXoX,X,X=X=XT.V.v <X<X<X<X<X",
"<X<X<X<X<X<X<X<X<X* $.o.#.@.@.o.o.u o Z I e.r.e.q.I I L I Z .X*X:X:X$X,X,X:X,X>X=XXXI.v.w <X<X<X<X<X",
"<X<X<X<X<X<X<X<X<X<Xo % #.#.#.$.$.o.. . V K K I L I I L I D XX;X:X>X,X,X,X>X,X:X%X/.P.X.@ <X<X<X<X<X",
"<X<X<X<X<X<X<X<X<X<X<X<X<X% u a s % o +   2 V Z C H D Z S | T..XOX=X=X;X:X:X>X:X{.T.L.c <X<X<X<X<X<X",
"<X<X<X<X<X<X<X<X<X<X<X<X<X<X<X<X<X<X<X<X+     O 2 3 d c 6.6._.].].].[.|.|..X-X|.W./.m.< <X<X<X<X<X<X",
"<X<X<X<X<X<X<X<X<X<X<X<X<X<X<X<X<X<X<X<X<X+       > , 3 ^ b.]. X.X|.|.|.[.XX.X_.].W.1.<X<X<X<X<X<X<X",
"<X<X<X<X<X<X<X<X<X<X<X<X<X<X<X<X<X<X<X<X<X<X<XO +     + ( B.T.].|..XXX.X.X.X_._.W.J., <X<X<X<X<X<X<X",
"<X<X<X<X<X<X<X<X<X<X<X<X<X<X<X<X<X<X<X<X<X<X<X<X<X<X<XO @ w }  .9.B.J.J.L.L.I.L.b.e <X<X<X<X<X<X<X<X",
"<X<X<X<X<X<X<X<X<X<X<X<X<X<X<X<X<X<X<X<X<X<X<X<X<X<X<X<X<X<X<X<X<X<X<X<X<X<X<X<X<X<X<X<X<X<X<X<X<X<X",
"<X<X<X<X<X<X<X<X<X<X<X<X<X<X<X<X<X<X<X<X<X<X<X<X<X<X<X<X<X<X<X<X<X<X<X<X<X<X<X<X<X<X<X<X<X<X<X<X<X<X",
"<X<X<X<X<X<X<X<X<X<X<X<X<X<X<X<X<X<X<X<X<X<X<X<X<X<X<X<X<X<X<X<X<X<X<X<X<X<X<X<X<X<X<X<X<X<X<X<X<X<X"
};
