/* XPM */
static char *result[] = {
/* columns rows colors chars-per-pixel */
"50 50 203 2 ",
"   c #040404",
".  c #040B04",
"X  c #090906",
"o  c #070C09",
"O  c #0A0A0A",
"+  c #090706",
"@  c #120E0A",
"#  c #1A0F08",
"$  c #130D07",
"%  c #021205",
"&  c #011C07",
"*  c #07130A",
"=  c #0C110B",
"-  c #041C0A",
";  c #091B0A",
":  c #15110B",
">  c #1C130B",
",  c #1F180F",
"<  c #0A0C11",
"1  c #141414",
"2  c #1F1A12",
"3  c #1B1C1C",
"4  c #171916",
"5  c #22150B",
"6  c #26180D",
"7  c #2B1A0D",
"8  c #29170C",
"9  c #331E0F",
"0  c #3A1E0D",
"q  c #331709",
"w  c #221A12",
"e  c #2C1E12",
"r  c #201E1E",
"t  c #331F10",
"y  c #022309",
"u  c #09230E",
"i  c #002C0B",
"p  c #00350E",
"a  c #003B0E",
"s  c #062610",
"d  c #062B11",
"f  c #1C2419",
"g  c #033310",
"h  c #003C11",
"j  c #3B200E",
"k  c #2C2116",
"l  c #2C241A",
"z  c #292614",
"x  c #352112",
"c  c #3C2412",
"v  c #32251B",
"b  c #38271A",
"n  c #3A2A1C",
"m  c #1F1F20",
"M  c #121D35",
"N  c #1F2021",
"B  c #1F2920",
"V  c #1F3324",
"C  c #232525",
"Z  c #252628",
"A  c #272829",
"S  c #2B2B2C",
"D  c #252C26",
"F  c #352C25",
"G  c #322F2D",
"H  c #3A3228",
"J  c #2D2E30",
"K  c #2F3132",
"L  c #343435",
"P  c #393635",
"I  c #3A3B3D",
"U  c #363838",
"Y  c #2B362E",
"T  c #421F0B",
"R  c #44230E",
"E  c #48230C",
"W  c #412613",
"Q  c #442915",
"!  c #4B2D16",
"~  c #442C1B",
"^  c #4A2D1B",
"/  c #542E15",
"(  c #4C321E",
")  c #543017",
"_  c #54321A",
"`  c #5A361B",
"'  c #5E391D",
"]  c #5E3214",
"[  c #52280E",
"{  c #633B1D",
"}  c #683F1F",
"|  c #623818",
" . c #4C3320",
".. c #4A3727",
"X. c #553923",
"o. c #5C3B25",
"O. c #633D24",
"+. c #004313",
"@. c #004C15",
"#. c #004E19",
"$. c #005117",
"%. c #015519",
"&. c #005B1B",
"*. c #00631D",
"=. c #00691F",
"-. c #006C21",
";. c #026520",
":. c #007323",
">. c #007C26",
",. c #6B401F",
"<. c #75451E",
"1. c #4D4036",
"2. c #6C4122",
"3. c #64422A",
"4. c #694427",
"5. c #744423",
"6. c #7A4A24",
"7. c #754B2A",
"8. c #7F532E",
"9. c #654C39",
"0. c #734F32",
"q. c #765031",
"w. c #7D5234",
"e. c #3C3E41",
"r. c #403F41",
"t. c #3E4142",
"y. c #414244",
"u. c #4A4B4C",
"i. c #484747",
"p. c #4C4E51",
"a. c #4E5153",
"s. c #525355",
"d. c #56595B",
"f. c #545759",
"g. c #56514E",
"h. c #685545",
"j. c #795F4A",
"k. c #5C6162",
"l. c #8F521F",
"z. c #814D25",
"x. c #864C2A",
"c. c #834727",
"v. c #8C522A",
"b. c #8F5B2F",
"n. c #97592C",
"m. c #895937",
"M. c #945934",
"N. c #925F3A",
"B. c #985A35",
"V. c #8F603C",
"C. c #9A643C",
"Z. c #98653C",
"A. c #A4632F",
"S. c #A46B3B",
"D. c #A76637",
"F. c #A8703F",
"G. c #B2743F",
"H. c #876549",
"J. c #976945",
"K. c #9E7452",
"L. c #A36C43",
"P. c #A76942",
"I. c #AB7247",
"U. c #AE7549",
"Y. c #A57147",
"T. c #B17443",
"R. c #B97A45",
"E. c #BB7D4B",
"W. c #B4794C",
"Q. c #A67953",
"!. c #BD7F52",
"~. c #B57F53",
"^. c #00862A",
"/. c #BE804B",
"(. c #BC8253",
"). c #B68358",
"_. c #C3824C",
"`. c #C48755",
"'. c #CC8B54",
"]. c #C58A59",
"[. c #CA8D5B",
"{. c #C58856",
"}. c #CD915E",
"|. c #D3935D",
" X c #D39561",
".X c #D99761",
"XX c #D69965",
"oX c #DB9B65",
"OX c #DC9F69",
"+X c #E19E69",
"@X c #E09D67",
"#X c #DEA16A",
"$X c #E4A36C",
"%X c #E8A76F",
"&X c #E7A86F",
"*X c #E6A770",
"=X c #E8A770",
"-X c #E7A971",
";X c #EBAB72",
":X c #F0AF75",
">X c #F2B176",
",X c #F2B07A",
"<X c None",
/* pixels */
"<X<X<X<X<X<X<X<X<X<X<X<X<X<X<X<X<X<X<X<X<X<X<X<X<X<X<X<X<X<X<X<X<X<X<X<X<X<X<X<X<X<X<X<X<X<X<X<X<X<X",
"<X<X<X<X<X<X<X<X<X<X<X<X<X<X<X<X<X<X<X<X<X<X<X<X<X<X<X<X<X<X<X<X<X<X<X<X<X<X<X<X<X<X<X<X<X<X<X<X<X<X",
"<X<X<X<X<X<X<X<X<X<X<X<X<X<X<X<X<X<X<X<X<X<X<X<X<X<X<X<X<X<X<X<X<X<X<X<X<X<X<X<X<X<X<X<X<X<X<X<X<X<X",
"<X<X<X<X<X<X<X<X<X<X<X<X<X<X<X<X<X<X<X<X<X<X<X<X<X<X<X+ @ n ..o.q.V.J.J.L.I.I.L.m.k <X<X<X<X<X<X<X<X",
"<X<X<X<X<X<X<X<X<X<X<X<X<X<X<X<X<X<X<X<X<X<X<X+ o     + _ L.E.]. X XXX X X X`.].!.J., <X<X<X<X<X<X<X",
"<X<X<X<X<X<X<X<X<X<X<X<X<X<X<X<X<X<X<X<X<X+       O 1 3 ( U.[.}.}.}.}.}.}. X}.{.[.!.3.<X<X<X<X<X<X<X",
"<X<X<X<X<X<X<X<X<X<X<X<X<X<X<X<X<X<X<X<X      = 4 m l l 7.Z.(.[.].[.[.}.[. X&X|.E.(.N.1 <X<X<X<X<X<X",
"<X<X<X<X<X<X<X<X<X<X<X<X<X* u u d * + o O 3 C Z A S S S F 8.(.}.OX$X-X;X;X;X>X&X`.W.L.b <X<X<X<X<X<X",
"<X<X<X<X<X<X<X<X<X<Xo h %.%.%.&.&.+.. . G L L P U L U U L q. X-X;X>X,X>X>X>X>X:X+X`.L.3.O <X<X<X<X<X",
"<X<X<X<X<X<X<X<X<X- &.+.&.@.$.+.+.s O J I y.y.y.I I U U I 4. X$X;X-XoX>X>X&X>X:X=XOXI.m.w <X<X<X<X<X",
"<X<X<X<X<X<X<X<X* #.:.d $.@.p i u 4 f V Y U y.y.r.I I U G 7.W. XOXoX(.(.XXXX>X>X=XOXE.C.n <X<X<X<X<X",
"<X<X<X<X<Xs -.-.@.h +.p y +.*.*.*.%.@.p f m.4.e % ; l A C f z 3.X.e X <Xv {.>X>X=XXX[.J.w.<X<X<X<X<X",
"<X<X<X<X+ ;.:.-.@.@.a p i =.:.@.* : 5 6 5 X.J.C.^   & = 3 3 = O + <X<X<X. J.$X,X-X X}.J.N.O <X<X<X<X",
"<X<X<X<Xd >.:.>.@.$.&.y +.>.@.: 5 6 5 5 8 7 8 5 > 8 O.^   + + <X<X<X<X<X<X .OX;X;X X[.I.N.w <X<X<X<X",
"<X<X<X+ +.@.h p p p p & +.; $ 6 5 6 9 x x 9 t 6 5 X.R.D.O.o <X<X<X<X<X<X<Xw OX*X;XXX].I.N.e <X<X<X<X",
"<X<X<Xo g $.$.+.a a +.y & 6 5 6 6 6 9 c j j 0 j 7 0.+X.XV.O.+ <X<X<X<X<X<X<X X#X-XXX(.U.N.v <X<X<X<X",
"<X<X<X& a +.+.@.+.a a h % 9 x 5 5 j ) ! ! ! ! R 0 0 c (. XU.^   <X<X<X<X<X<XX.H.Q.Q.J.9.F < <X<X<X<X",
"<X<X<X- &.:.*.*.&.$.$.u x c 6 x ) ` Q _ Q Q ! ) ) j j _ |.4.M./ <X<X<X<X<X<X1 C C K L 4 m 4 <X<X<X<X",
"<X<X<X%.=.:.*.*.%.@.+.5 x 5 c ) } 5.,.c ' Q _ Q _ _ j R O._ B.M.!   <X<X<X<X1 A S L I 3 4 m <X<X<X<X",
"<X<X<X:.*.:.-.&.$.%.a : 9 Q c ' W 5.6.,.5.<._ { Q ! _ j T _ B.c.x.7 <X<X<X<XO < 1 1 N 1 1 m O <X<X<X",
"<X<X<X:.-.*.*.&.%.%.a 5 ! ! Q ' ,.' 6.b.<.,.v.6./ ` W 0 0 P.+X+XP.v.+ + C t.e.e.e.e.U e.U < M <X<X<X",
"<X<X<Xh :.*.*.&.%.%.p 5 Q ! ! _ 6.v.,.z.6.` ,.5.} ^ _ 0 7 m.!..XB.c.+ 4 t.y.e.e.e.e.e.e.e.K < <X<X<X",
"<X<X<Xp a %.-.&.$.$.i 5 W Q _ _ v.n.v.' z.,.W ,.} ] E / 8 O.B.B.c.! + 1 U I e.e.y.H.Q.K.h.K < <X<X<X",
"<X<X<Xu $.+.p a p p y : c x ! ' ,.6.6.6.,.,.c _ O.] E [ / } P.M.} $ @ 4 G P I r.J.}.XXOXXX9.4 <X<X<X",
"<X<X<X- +.+.@.h a a p ; x j j ! ! ' ' ,.) ) W x / W T T O.x.M.O., n , : e.P t.t.g.K.).).J.G N <X<X<X",
"<X<X<Xd :.;.+.p a p & i 5 W 7 j c W ! Q ` ! x 5 t q T ~ w.I.W # n H z : P P y.t.I I K Z m Z S <X<X<X",
"<X<X<X; -.-.*.@.a y y & . 7 c 6 j x 7 c x j 7 5 5 q ` `.o.^ 1 e l l k X w l p.t.P L Z m Z 3 3 <X<X<X",
"<X<X<X+ +.-.&.%.& i i &.p   6 x # x 6 6 j 9 > 6 # O.!.B.w.+ w r w l l e X   p.y.A 3 J 3 m O <X<X<X<X",
"<X<X<X<XO g g y h +.y =.&.+.& # 9 > 5 # 5 x ( c 6 W _ k = 1 2 5 2 2 , @     L L 4 3 m O + <X<X<X<X<X",
"<X<X<X<X<X<X<X= h -.&.%.=.-.=.=.*.%.p % z z u a $.@.y g o <X<X<X<X<X<X<X<X<X<X<X<X<X<X<X<X<X<X<X<X<X",
"<X<X<X<X<X<X<X- -.:.&.h *.:.>.^.=.*.a i &.&.*.*.&.@.& * <X<X<X<X+ 3 O <X<X<X<X<X<X<X<X<X<X<X<X<X<X<X",
"<X<X<X<X<X<X<XO %.>.-.a i $.:.>.>.=.y %.:.=.*.&.+.- + <X<X1 3 4 A f.L O <X<X<X<X<X<X<X<X<X<X<X<X<X<X",
"<X<X<X<X<X<X<X<X+ s ;.$.h & y g #.i h *.$.+.p ; =   <X<XO U L K p.s.p.Z < <X<X<X<X<X<X<X<X<X<X<X<X<X",
"<X<X<X<X<X<X<X<X<X<XO %.#.o o 3 B f B B D D f 4 + + <X<X1 f.p.a.s.p.p.e.J O <X<X<X<X<X<X<X<X<X<X<X<X",
"<X<X<X<X<X<X<X<X<X<X<X<X+   = m H G L H ..F 1   + <X<X<X4 k.d.s.j.h.u.r.L 4 <X<X<X<X<X<X<X<X<X<X<X<X",
"<X<X<X<X<X<X<X<X<X<X<X<X<X+ 1 v T.Y.Y.S.E.A.<.j + <X<X<X@ d.f.s.~. XQ.y.U J <X<X<X<X<X<X<X<X<X<X<X<X",
"<X<X<X<X<X<X<X<X<X<X<X<X<X+ X.S._.|._.R.@X_.A.| <X<Xo 3 r u.f.p.H.OXoXH.e.K <X<X<X<X<X<X<X<X<X<X<X<X",
"<X<X<X<X<X<X<X<X<X<X<X<X<Xo b.T.'.@X_._.;X|.A.| O e b F m I a.p.u.Q.oX).e.K <X<X<X<X<X<X<X<X<X<X<X<X",
"<X<X<X<X<X<X<X<X<X<X<X<X<X<X6 S._.$X|.|.>X%XG.l.D.'.E.L e.a.J L r.r.e.K m O <X<X<X<X<X<X<X<X<X<X<X<X",
"<X<X<X<X<X<X<X<X<X<X<X<X<X<X<X7._.$X@X|.;X%XG.A._.$X[...i.s.U Z C Z m 1   <X<X<X<X<X<X<X<X<X<X<X<X<X",
"<X<X<X<X<X<X<X<X<X<X<X<X<X<X<Xx R.|.&X$X$X%XR._..X|.E.J.u.e.Z C 3 + <X<X<X<X<X<X<X<X<X<X<X<X<X<X<X<X",
"<X<X<X<X<X<X<X<X<X<X<X<X<X<X<X+ 7.{.$X&X$X$X|.|.|._.'.|.9.A N 3 o <X<X<X<X<X<X<X<X<X<X<X<X<X<X<X<X<X",
"<X<X<X<X<X<X<X<X<X<X<X<X<X<X<X<X: S.|.&X%X$X$X.X|.|.oX$X[.C 4 O <X<X<X<X<X<X<X<X<X<X<X<X<X<X<X<X<X<X",
"<X<X<X<X<X<X<X<X<X<X<X<X<X<X<X<X<Xk T.XX&X@X|.oX$X%X%X|.P.$ <X<X<X<X<X<X<X<X<X<X<X<X<X<X<X<X<X<X<X<X",
"<X<X<X<X<X<X<X<X<X<X<X<X<X<X<X<X<X<X( T.|.|.#X$X%X$X'.V.e <X<X<X<X<X<X<X<X<X<X<X<X<X<X<X<X<X<X<X<X<X",
"<X<X<X<X<X<X<X<X<X<X<X<X<X<X<X<X<X<X<X~ /..X$X&X|.E._ X <X<X<X<X<X<X<X<X<X<X<X<X<X<X<X<X<X<X<X<X<X<X",
"<X<X<X<X<X<X<X<X<X<X<X<X<X<X<X<X<X<X<X<XS.`.`.U.q.w <X<X<X<X<X<X<X<X<X<X<X<X<X<X<X<X<X<X<X<X<X<X<X<X",
"<X<X<X<X<X<X<X<X<X<X<X<X<X<X<X<X<X<X<X<X<X<X<X<X<X<X<X<X<X<X<X<X<X<X<X<X<X<X<X<X<X<X<X<X<X<X<X<X<X<X",
"<X<X<X<X<X<X<X<X<X<X<X<X<X<X<X<X<X<X<X<X<X<X<X<X<X<X<X<X<X<X<X<X<X<X<X<X<X<X<X<X<X<X<X<X<X<X<X<X<X<X",
"<X<X<X<X<X<X<X<X<X<X<X<X<X<X<X<X<X<X<X<X<X<X<X<X<X<X<X<X<X<X<X<X<X<X<X<X<X<X<X<X<X<X<X<X<X<X<X<X<X<X"
};
