/* XPM */
static char *result[] = {
/* columns rows colors chars-per-pixel */
"50 50 200 2 ",
"   c #050504",
".  c #070806",
"X  c #0C0A06",
"o  c #070C08",
"O  c #0A0B0A",
"+  c #090705",
"@  c #120E0A",
"#  c #150C06",
"$  c #021406",
"%  c #011B07",
"&  c #071209",
"*  c #0C140C",
"=  c #031C0A",
"-  c #0B1C0D",
";  c #1C120B",
":  c #13150C",
">  c #0B0D10",
",  c #0A101D",
"<  c #141414",
"1  c #1F1710",
"2  c #141C15",
"3  c #1F1A12",
"4  c #171818",
"5  c #1B1B1B",
"6  c #24160B",
"7  c #241B0E",
"8  c #2B1A0E",
"9  c #321D0E",
"0  c #3B1D0C",
"q  c #241C13",
"w  c #2B1D13",
"e  c #231D1A",
"r  c #201710",
"t  c #331F11",
"y  c #01230A",
"u  c #012C0C",
"i  c #08260E",
"p  c #00340D",
"a  c #00390F",
"s  c #062A11",
"d  c #192E1E",
"f  c #043413",
"g  c #003C11",
"h  c #3B220F",
"j  c #2E2619",
"k  c #292317",
"l  c #362112",
"z  c #3C2413",
"x  c #3C2B1C",
"c  c #35291A",
"v  c #1F2020",
"b  c #1F3224",
"n  c #232424",
"m  c #262729",
"M  c #272829",
"N  c #2B2C2C",
"B  c #2A2722",
"V  c #322B26",
"C  c #372D25",
"Z  c #27332A",
"A  c #3B3229",
"S  c #2E2F31",
"D  c #2E3132",
"F  c #343535",
"G  c #383636",
"H  c #353739",
"J  c #373A3B",
"K  c #3A3B3D",
"L  c #3F3A37",
"P  c #431E0A",
"I  c #562D0F",
"U  c #452915",
"Y  c #4A2C16",
"T  c #432D1D",
"R  c #462B16",
"E  c #512B12",
"W  c #4C311D",
"Q  c #4F3017",
"!  c #533219",
"~  c #59361A",
"^  c #5E391C",
"/  c #44200B",
"(  c #62351E",
")  c #633B1D",
"_  c #6A3F1E",
"`  c #493423",
"'  c #523623",
"]  c #5D3C24",
"[  c #5C3622",
"{  c #473D35",
"}  c #613D24",
"|  c #004413",
" . c #004C16",
".. c #034C19",
"X. c #034718",
"o. c #005117",
"O. c #005419",
"+. c #005C1B",
"@. c #00631D",
"#. c #00681F",
"$. c #006C21",
"%. c #026621",
"&. c #007323",
"*. c #007C26",
"=. c #71421A",
"-. c #5F4029",
";. c #5C4838",
":. c #6C4323",
">. c #64452B",
",. c #6A462D",
"<. c #674327",
"1. c #734523",
"2. c #7B4924",
"3. c #7B4D2B",
"4. c #784529",
"5. c #6E4C30",
"6. c #754D30",
"7. c #7D5333",
"8. c #74573E",
"9. c #7C512C",
"0. c #172545",
"q. c #3C3E41",
"w. c #3F4143",
"e. c #414344",
"r. c #4A4C4E",
"t. c #464647",
"y. c #594E45",
"u. c #4B4E51",
"i. c #4F5153",
"p. c #525355",
"a. c #575A5C",
"s. c #645549",
"d. c #7D614A",
"f. c #5D6162",
"g. c #804B1F",
"h. c #844C2C",
"j. c #854C28",
"k. c #855027",
"l. c #8C532A",
"z. c #865028",
"x. c #995C2C",
"c. c #965927",
"v. c #835533",
"b. c #8C5331",
"n. c #8C5B35",
"m. c #8A5B38",
"M. c #9A5C35",
"N. c #945A37",
"B. c #9A623A",
"V. c #93623A",
"C. c #A0612F",
"Z. c #A66837",
"A. c #B2713B",
"S. c #B06C34",
"D. c #8E6949",
"F. c #886345",
"G. c #9B6E4B",
"H. c #A36C43",
"J. c #A86F45",
"K. c #AC7348",
"L. c #AF794D",
"P. c #A77347",
"I. c #B57542",
"U. c #B3754A",
"Y. c #B47B4D",
"T. c #BD7D4A",
"R. c #B87944",
"E. c #A87953",
"W. c #B77D50",
"Q. c #008128",
"!. c #BE804B",
"~. c #BD8252",
"^. c #B98355",
"/. c #C2834E",
"(. c #CB874E",
"). c #C18453",
"_. c #C78955",
"`. c #CD8C55",
"'. c #C58759",
"]. c #C58959",
"[. c #CB8D5B",
"{. c #D18F59",
"}. c #CD915E",
"|. c #D2925D",
" X c #CE9360",
".X c #D39562",
"XX c #D69963",
"oX c #DB9B65",
"OX c #DC9E68",
"+X c #D89762",
"@X c #E39F6A",
"#X c #E09D66",
"$X c #DEA06A",
"%X c #E4A46D",
"&X c #E8A66F",
"*X c #ECAB73",
"=X c #E8A871",
"-X c #F1AF75",
";X c #F2B176",
":X c None",
/* pixels */
":X:X:X:X:X:X:X:X:X:X:X:X:X:X:X:X:X:X:X:X:X:X:X:X:X:X:X:X:X:X:X:X:X:X:X:X:X:X:X:X:X:X:X:X:X:X:X:X:X:X",
":X:X:X:X:X:X:X:X:X:X:X:X:X:X:X:X:X:X:X:X:X:X:X:X:X:X:X:X:X:X:X:X:X:X:X:X:X:X:X:X:X:X:X:X:X:X:X:X:X:X",
":X:X:X:X:X:X:X:X:X:X:X:X:X:X:X:X:X:X:X:X:X:X:X:XO :X:X:X:X:X:X:X:X:X:X:X:X:X:X:X:X:X:X:X:X:X:X:X:X:X",
":X:X:X:X:X:X:X:X:X:X:X:X:X:X:X:X:X:X:X  0., > > n < :X:X:X:X:X:X:X:X:X:X:X:X:X:X:X:X:X:X:X:X:X:X:X:X",
":X:X:X:X:X:X:X:X:X:X:X:X:Xo O * < 4 4 > > n S { M 5 O :X:X:X:X:X:X:X:X:X:X:X:X:X:X:X:X:X:X:X:X:X:X:X",
":X:X:X:X:X:X:X:X@ q C } 6.n.V.B v 5 4 O H K y..X5 n 4 :X:X:X:X:X:X:X:X:X:X:X:X:X:X:X:X:X:X:X:X:X:X:X",
":X:X:X:XO W B.H.H.K.W.'.[.].^.D.S H v n q.q.E.OXD m N 4 :X:X:X:X:X:X:X:X:X:X:X:X:X:X:X:X:X:X:X:X:X:X",
":X:X:Xr m.Y.K.W. XOXOXXX}. X}.G.H K 4 M K q.F..XK D n n :X:X:X:X:X:X:X:X:X:X:X:X:X:X:X:X:X:X:X:X:X:X",
":X:XO 5.W.[.W.OX&X=X=X@X$X=X=X^.m N > S K q.y.Y.q.H n < :X:X:X:X:X:X:X:X:X:X:X:X:X:X:X:X:X:X:X:X:X:X",
":X:Xw H.'.'.=X*X*X*X;X-X;X-X*XD.m m > S K q.K t.w.q.q.m O :X:X:X:X:X:X:X:X:X:X:X:X:X:X:X:X:X:X:X:X:X",
":X:Xl J.'.[.-X;X;X;X;X;X=X$X+X;.5 5 > S q.q.q.K e.u.u.K O :X:X:X:X:X:X:X:X:X:X:X:X:X:X:X:X:X:X:X:X:X",
":X:Xw J.[.OX*X;X;X;X*X%XoXXX[.1 O + + 5 t.w.K K K N S < :X:X:X:X:X:XO > O :X:X:X:X:X:X:X:X:X:X:X:X:X",
":X:Xw J..X+X*X;X*X$XoX}.^.5.c :X:X:X:XO w.t.K G G e     :X:X:X:X:X< n S N < :X:X:X:X:X:X:X:X:X:X:X:X",
":X:Xr J..X}.=X;X*XXXL.W * :X:X:X:X:X:XO N e.G S L e     :X:X:X:XO D H q.J H 4 :X:X:X:X:X:X:X:X:X:X:X",
":X:X1 H..X[.=X;X;X}.>.:X:X:X:X:X:X:X:X:XO v 5 e 1 + q X :X:X:XO v q.e.s.G.y.D > :X:X:X:X:X:X:X:X:X:X",
":X:XO F..X.X=X-X%XXXK.3 :X:X:X:X:X:X# R 2.( 6 # A j j 1   :X4 p.p.s..X$X^.t.w.n O :X:X:X:X:X:X:X:X:X",
":X:X:X7.|. X$X*X*X$XL.W :X:X:X:X:Xt j._ b.h.h.( x t e r   :XO G i.d.'.E.y.t.w.n < :X:X:X:X:X:X:X:X:X",
":X:X:X>.}.}.XX=X=XXXH.:.O :X:X:Xl l.j.U.@X.XM.h.e e e r + :X:X< F i.s.r.u.u.H n m < :X:X:X:X:X:X:X:X",
":X:X:X' ~.[.~.$XoX^.v.x O O :Xt b.M.b.M.@X'.N.M.8 r e r + :X:X4 F a.a.p.i.w.S D n n :X:X:X:X:X:X:X:X",
":X:X:Xx J.Y.n.V.v.9.W 5 4 + O U.N.4._ ( U.N.h.b.H.8 @ ; + :X:X4 H f.a.i.q.S r.r.q.m O :X:X:X:X:X:X:X",
":X:X:Xw V.n.} C V -.x d 4 < z x T } v.h._ [ [ [ ] K.; & + :X:XO n a.q.n n H r.a.u.M Q :X:X:X:X:X:X:X",
":X:X:X: :.] A G G C V n 5 + ~ ^.}.m.R P P t w ( ,.' 7.$ u O :X:XO n < 4 5 N w.u.i.{ B.; :X:X:X:X:X:X",
":X:X:XO . 4 B G J J G N * l Z.{._ / P R x 6 E E ' [.7.q | p & :X:X:XO k V n Z { 8.[.`.7.O :X:X:X:X:X",
":X:X:X:X  3 S G J F F n $ } U.W P t ' T t [ E P 9 4.T.Q % y $ O :X:X:X+ C A F.!./.`.%X).c :X:X:X:X:X",
":X:X:X:X+   m G K ;.b $ w ; 6 0 Y ! U ) E _ _ ^ t 6 # 6 * o.+.g o + :X:X@ g.A.(.%X{.%X&X|.>.:X:X:X:X",
":X:X:X:XO   M H w.e.b : N.6 6 0 ~ U ^ E 2.1._ ~ 6 ; 8 z Y g +.+.-   8 h h I c.S.(.|.$X&X%XH.@ :X:X:X",
":X:X:X:XO   n F w.w.- } H.6 9 U ! Y ! 2.k.=.R l 9 8 ; ` V.y @.@.s : =.c.c.x.C.C.S.{.|.%X%X~.w :X:X:X",
":X:X:X:X:Xo 5 G w.J = n.>.8 l Y U Y 1.x.1.! ^ :.U / 8 z ).k +.$.a V x.R.|.$X%X&X&X#X$X|.$X_.j :X:X:X",
":X:X:X:X:XO O F K D | c w 8 l Y U Q 2.) _ 2.2.=.~ l h 6 H.c +.&. .A A.#X&X*X-X*X&X%X&X{.).K.7 :X:X:X",
":X:X:X:X:X:X  m H Z @.i ; 6 l Y Y :.U =.C.l.2.^ Q 0 8 ; w i +.&.+.3.!.|.@X*X*X%X%X%X;X|.I.} :X:X:X:X",
":X:X:X:X:X:X  O F b +.u 6 6 l Y ! l _ k.x.l.~ 2.U h 6 ; ; $ a @.+.A A.T._.|.XXoXoX%XoX/.<.+ :X:X:X:X",
":X:X:X:X:X:X    < b @.| 6 6 t Q Y ^ 2.2.k.^ k.2.Y 9 6 6 ; u u u  .F H.R.R./.`.oX&X&X!.:.O :X:X:X:X:X",
":X:X:X:X:X:Xo f & i @.o.; 6 8 U ! 1.2.:.~ z.x.2.U 9 9 ; X o.@.+.y D G.+XoX%XOX%X|.{.W :X:X:X:X:X:X:X",
":X:X:X:X:X:Xs +.| i | @.g ; 6 ; U Y ~ ) ) ) ! ~ l 8 8 6 a @.Q.*.g k ' K.R.R.A.V.~ # :X:X:X:X:X:X:X:X",
":X:X:X:X:X:Xi O. .a u @.$.g # w 8 U U l h Y ! ! 8 9 l $ o.#.Q.&.y < < :.Z.3.x @ :X:X:X:X:X:X:X:X:X:X",
":X:X:X:X:X:X* +.o.| y  .&.*.* t l 6 Y ! Y Y U 9 U 9   a @.#.&.+.%     * @ :X:X:X:X:X:X:X:X:X:X:X:X:X",
":X:X:X:X:X:Xo O.O.o.a u a o.| X l l 8 U Q Q U z 8 + y +.#.#.@.u a + :X:X:X:X:X:X:X:X:X:X:X:X:X:X:X:X",
":X:X:X:X:X:X:XX.O.a y = % y y g - w 6 q 8 8 8 6 y % O.#.#.+.| p o.:X:X:X:X:X:X:X:X:X:X:X:X:X:X:X:X:X",
":X:X:X:X:X:X:X& p o.| O.@.u y y g = u a u u u a u p  .o. .| a +.@.:X:X:X:X:X:X:X:X:X:X:X:X:X:X:X:X:X",
":X:X:X:X:X:X:X& @.&.$. .p o.p a | g p g g g p u % y u % a O.@.#.%.:X:X:X:X:X:X:X:X:X:X:X:X:X:X:X:X:X",
":X:X:X:X:X:X:XO u +.| a  .O.a a o. .O.+.O.O.o.p p % p g g &.#.*.f :X:X:X:X:X:X:X:X:X:X:X:X:X:X:X:X:X",
":X:X:X:X:X:X:X:Xo = u | |  .a g O.O.o.O.O.O.o.p a a % g | | &.%.o :X:X:X:X:X:X:X:X:X:X:X:X:X:X:X:X:X",
":X:X:X:X:X:X:X:X:X:Xi &.&.&.a | $.@.@.$.@.@.@.p g +.@.p & :XO :X:X:X:X:X:X:X:X:X:X:X:X:X:X:X:X:X:X:X",
":X:X:X:X:X:X:X:X:X:X:Xf &.*.| | $.&.&.&.@.@.@.| +.#.#.f :X:X:X:X:X:X:X:X:X:X:X:X:X:X:X:X:X:X:X:X:X:X",
":X:X:X:X:X:X:X:X:X:X:X:X& X...| @.$.%.@.@.&.a O.&.&.O.O :X:X:X:X:X:X:X:X:X:X:X:X:X:X:X:X:X:X:X:X:X:X",
":X:X:X:X:X:X:X:X:X:X:X:X:X:X+ y u +.$.$.&. .a f X.f o :X:X:X:X:X:X:X:X:X:X:X:X:X:X:X:X:X:X:X:X:X:X:X",
":X:X:X:X:X:X:X:X:X:X:X:X:X:X:XO O - f f s o & o :X:X:X:X:X:X:X:X:X:X:X:X:X:X:X:X:X:X:X:X:X:X:X:X:X:X",
":X:X:X:X:X:X:X:X:X:X:X:X:X:X:X:X:X:X:X:X:X:X:X:X:X:X:X:X:X:X:X:X:X:X:X:X:X:X:X:X:X:X:X:X:X:X:X:X:X:X",
":X:X:X:X:X:X:X:X:X:X:X:X:X:X:X:X:X:X:X:X:X:X:X:X:X:X:X:X:X:X:X:X:X:X:X:X:X:X:X:X:X:X:X:X:X:X:X:X:X:X",
":X:X:X:X:X:X:X:X:X:X:X:X:X:X:X:X:X:X:X:X:X:X:X:X:X:X:X:X:X:X:X:X:X:X:X:X:X:X:X:X:X:X:X:X:X:X:X:X:X:X"
};
