/* XPM */
static char *result[] = {
/* columns rows colors chars-per-pixel */
"50 50 202 2 ",
"   c #050504",
".  c #040B06",
"X  c #0C0B06",
"o  c #0A0B0A",
"O  c #080A07",
"+  c #120E0A",
"@  c #160C06",
"#  c #011A07",
"$  c #07130A",
"%  c #0B140B",
"&  c #041C0A",
"*  c #0B1C0D",
"=  c #041507",
"-  c #14110C",
";  c #1C120B",
":  c #1F180F",
">  c #0F0F10",
",  c #0A101D",
"<  c #141414",
"1  c #1F1710",
"2  c #141C15",
"3  c #1F1A12",
"4  c #171819",
"5  c #1B1C1C",
"6  c #23150B",
"7  c #2B1A0E",
"8  c #271A0D",
"9  c #321D0E",
"0  c #3A1D0C",
"q  c #241C13",
"w  c #2C1D12",
"e  c #231D1A",
"r  c #331F11",
"t  c #02230A",
"y  c #012C0C",
"u  c #00340D",
"i  c #003B0E",
"p  c #052C11",
"a  c #0A2611",
"s  c #1B291E",
"d  c #043513",
"f  c #003C11",
"g  c #3C230F",
"h  c #2D2519",
"j  c #2A2317",
"k  c #352111",
"l  c #3B2312",
"z  c #3D2B1C",
"x  c #36281C",
"c  c #1F1F20",
"v  c #1E2A20",
"b  c #1F2020",
"n  c #1F3224",
"m  c #232425",
"M  c #262729",
"N  c #27292A",
"B  c #2B2C2C",
"V  c #282823",
"C  c #322C29",
"Z  c #372C24",
"A  c #27332A",
"S  c #3B3227",
"D  c #2E2F31",
"F  c #2E3032",
"G  c #343535",
"H  c #383636",
"J  c #353739",
"K  c #373A3B",
"L  c #3A3A3B",
"P  c #3F3A37",
"I  c #431E0A",
"U  c #45210B",
"Y  c #562D0F",
"T  c #412713",
"R  c #452915",
"E  c #4B2C15",
"W  c #432E1D",
"Q  c #4C2D19",
"!  c #532C12",
"~  c #4B311C",
"^  c #4F3017",
"/  c #533219",
"(  c #5A361A",
")  c #5F391C",
"_  c #613A1D",
"`  c #693E1E",
"'  c #62361E",
"]  c #4C3422",
"[  c #403328",
"{  c #523623",
"}  c #5C3C23",
"|  c #5A3622",
" . c #473D35",
".. c #613E25",
"X. c #004413",
"o. c #004C15",
"O. c #034C19",
"+. c #005117",
"@. c #005419",
"#. c #005C1B",
"$. c #00631D",
"%. c #00681F",
"&. c #006D21",
"*. c #026721",
"=. c #007323",
"-. c #007C26",
";. c #007F28",
":. c #6B401F",
">. c #71421A",
",. c #5C412D",
"<. c #4C423B",
"1. c #6C4121",
"2. c #64442B",
"3. c #6A462C",
"4. c #6C482D",
"5. c #634024",
"6. c #724421",
"7. c #7A4924",
"8. c #794D29",
"9. c #754729",
"0. c #7D502C",
"q. c #764D31",
"w. c #7C5233",
"e. c #745133",
"r. c #6D523C",
"t. c #3D3E41",
"y. c #3F4043",
"u. c #414243",
"i. c #46484A",
"p. c #4B4C4E",
"a. c #494645",
"s. c #594F46",
"d. c #4D4E51",
"f. c #4F5254",
"g. c #525355",
"h. c #57595B",
"j. c #655548",
"k. c #765E4A",
"l. c #7D614A",
"z. c #804B1F",
"x. c #814E26",
"c. c #844B2B",
"v. c #874B29",
"b. c #8C532B",
"n. c #855027",
"m. c #9A5D2B",
"M. c #975928",
"N. c #845534",
"B. c #8A5B37",
"V. c #915E39",
"C. c #975A36",
"Z. c #9B633B",
"A. c #946139",
"S. c #AB6E3C",
"D. c #A56635",
"F. c #B36E36",
"G. c #896548",
"H. c #9C6942",
"J. c #916B4D",
"K. c #987253",
"L. c #A36C43",
"P. c #A1734D",
"I. c #AC7348",
"U. c #AF794D",
"Y. c #B47643",
"T. c #B67845",
"R. c #B37A4C",
"E. c #BC7E4A",
"W. c #B67747",
"Q. c #AC7C54",
"!. c #B67E51",
"~. c #008128",
"^. c #BE804B",
"/. c #BD8253",
"(. c #B98355",
"). c #C3844E",
"_. c #C8844B",
"`. c #C28452",
"'. c #C68854",
"]. c #CD8C55",
"[. c #C58A59",
"{. c #CA8D5B",
"}. c #C88557",
"|. c #D18F59",
" X c #CD915E",
".X c #D2925D",
"XX c #CE9360",
"oX c #D39562",
"OX c #D69963",
"+X c #DB9B65",
"@X c #DC9E68",
"#X c #D89761",
"$X c #E19F69",
"%X c #DEA06A",
"&X c #E4A46D",
"*X c #E8A66E",
"=X c #E6A870",
"-X c #EBAB73",
";X c #E7A770",
":X c #F1AF75",
">X c #F2B176",
",X c None",
/* pixels */
",X,X,X,X,X,X,X,X,X,X,X,X,X,X,X,X,X,X,X,X,X,X,X,X,X,X,X,X,X,X,X,X,X,X,X,X,X,X,X,X,X,X,X,X,X,X,X,X,X,X",
",X,X,X,X,X,X,X,X,X,X,X,X,X,X,X,X,X,X,X,X,X,X,X,X,X,X,X,X,X,X,X,X,X,X,X,X,X,X,X,X,X,X,X,X,X,X,X,X,X,X",
",X,X,X,X,X,X,X,X,X,X,X,X,X,X,X,X,X,X,X,X,X,X,X,X,X,X,X,X,X,X,X,X,X,X,X,X,X,X,X,X,X,X,X,X,X,X,X,X,X,X",
",X,X,X,X,X,X,X,X,X,X,X,X,X,X,X,X,X,X,X,X,X,X,X< m < > o ,   ,X,X,X,X,X,X,X,X,X,X,X,X,X,X,X,X,X,X,X,X",
",X,X,X,X,X,X,X,X,X,X,X,X,X,X,X,X,X,X,X,X,X,Xo 5 M B  .F M > 5 < < > > o O ,X,X,X,X,X,X,X,X,X,X,X,X,X",
",X,X,X,X,X,X,X,X,X,X,X,X,X,X,X,X,X,X,X,X,X,Xc m c G.XX<.K o 4 5 c C V.V.B.q.z q + ,X,X,X,X,X,X,X,X,X",
",X,X,X,X,X,X,X,X,X,X,X,X,X,X,X,X,X,X,X,X,Xo c c b Q.@Xk.t.4 < < 4 } L.L.H.Z.V.B.4.~ q ,X,X,X,X,X,X,X",
",X,X,X,X,X,X,X,X,X,X,X,X,X,X,X,X,X,X,X,X,X5 N M G (.+XJ.t.c c J F G./.[.[.{.!.I.L.L.C.N.] o ,X,X,X,X",
",X,X,X,X,X,X,X,X,X,X,X,X,X,X,X,X,X,X,X,X,Xm m D t.K.oXk.L N 4 J K P. XXX X X%X@X.X!.R./.R.N.4 ,X,X,X",
",X,X,X,X,X,X,X,X,X,X,X,X,X,X,X,X,X,X,X,X,X4 m J t.k.R.a.t.D > B N Q.=X=X=X%X=X%X;X@XE.!.{.R.9.,X,X,X",
",X,X,X,X,X,X,X,X,X,X,X,X,X,X,X,X,X,X,X,XO N t.y.t.y.a.y.t.D > N m G.&X-X:X>X>X:X-X-X&X{.[.[.L.,X,X,X",
",X,X,X,X,X,X,X,X,X,X,X,X> > o ,X,X,X,X,X,X< B N J L H t.y.5 X   O : H.{.OX@X-X:X>X>X-X-X@X[.I.,X,X,X",
",X,X,X,X,X,X,X,X,X,X,X< B B m > O ,X,X,X,X    e H J H L u.> ,X,X,X,X+ x e.(.+X@X-X>X-XOXOX XL.,X,X,X",
",X,X,X,X,X,X,X,X,X,X,XG K t.K F N o ,X,X,X    e  . .G J i.  ,X,X,X,X,X,X,Xo !.oX>X>X-X X XoXL.,X,X,X",
",X,X,X,X,X,X,X,X,X,X> s.K.j.t.y.L c o ,X,XX 8 O 4 e e 4 m ,X,X,X,X,X,X,X,X,X3. X>X>X-X X XoXL.,X,X,X",
",X,X,X,X,X,X,X,X,XO 5 k.+XoXG.i.d.i.m o   1 h q 1 @ + o   ,X,X,X,X,X,X,X,X,XN.R.&X>X;X{. XOXH.,X,X,X",
",X,X,X,X,X,X,X,X,Xo M i.(.@XXXj.d.g.d.4   : j h S z + 7 ' ! @ ,X,X,X,X,X,X,XI.OX*X>X&X{. XoXV.,X,X,X",
",X,X,X,X,X,X,X,X,X4 b i.s.Q.[.l.g.g.D o   3 q h Z 6 ( v.v.` v.7 ,X,X,X,X,X,XU.%X-X-X%X[.oX|.w.,X,X,X",
",X,X,X,X,X,X,X,X< m M p.d.p.j.g.g.G < ,X  q q j q Q b.D..XW.v.c.l ,X,X,X,Xo L.oX=X-XOX[.oX{.2.,X,X,X",
",X,X,X,X,X,X,X< m m F y.f.g.g.h.p.G < ,XO 3 q q 7 b.Z.C.}.Z.b.C.c.w o ,Xo o N.`.+X%X(.[.{.!.] ,X,X,X",
",X,X,X,X,X,X~ 3.B g.h.J m m t.g.p.m o ,Xo $ 8 I.| w { | | c.N...W Z N.0 < 5 Z 5.B C } 0.V.Z.w ,X,X,X",
",X,X,X,X,X; Z./. .g.p.B 5 < < m 5 o ,X,Xy = N.{ ....| 6 9 I R G.|./.w.| . 4 C Z H H z 8...5.; ,X,X,X",
",X,X,X,XO w.].@X{.r. .m C e O ,X,X,X,X$ o.q N.}.| Q ! ! 7 R I I 3.|.|.Z.6 * G H H H B W 4   O ,X,X,X",
",X,X,X,X~ ).&X&X].).(.S Z O ,X,X,X,XO = # Q }.9.0 I I ! / Q Q r 0 { $XY./ = H L J H D s 4   ,X,X,X,X",
",X,X,X- Y.%X=X.X).].&XF.l ,X,X,XO O & X.# / 9.0 0 T ! Y ! T Q Q 0 0 H.q.6 . K K L H B 5 o   ,X,X,X,X",
",X,X,X3.OX=X&X|.|.&X_.z.+ ,X,X    O X.#.% 6 @ 6 r Q ' ` ` ' R ( E 0 7 6 ; w A L L H B 4   O ,X,X,X,X",
",X,X,XL.*X*X@X.X.X_.F.Y g g 8   > * #.#.Q l 6 ; 6 T | ..6.! ' Q ( g 0 6 6 V.s y.t.H M <   O ,X,X,X,X",
",X,X,X/.*X&X.X&X].F.D.m.M.M.>.- 5 p $.#.Z.] 6 7 r r 0 Q 6.x./ R ! R g 9 7 Z.a <.u.J M O   ,X,X,X,X,X",
",X,X,X'.%X.X%X&X+X*X*X@X.XT.m.h V X.*.#.).l 6 l R ( ` ( / M.6./ T Q g k 6 2.# K u.H 5   O ,X,X,X,X,X",
",X,X,X5.F.%X-X*X&X*X*X-X&X.X^.8.v #.=.#.w ; r k ^ :.( x.b.>.R ..R R g k 6 - $.A L m     ,X,X,X,X,X,X",
",X,X,Xo 6.^.%X*X*X+X+X|.).E.S. .s #.$.i ; ; 6 l R ` 7.( b.x.` l / E l k 6 8 #.n F o   ,X,X,X,X,X,X,X",
",X,X,X,XX 3.^.+X*X*X.X).E.T.Z.G V o.t y ; 6 7 9 Q _ 7.x._ x.7.( E / 9 9 6 6 $.v %   o ,X,X,X,X,X,X,X",
",X,X,X,X,X,X~ Y. X+X&X%X+XOXP.C v t #.$.X 6 7 9 R ) 7.m.b.1.7.6./ R 8 7 6 - #.2 * u . ,X,X,X,X,X,X,X",
",X,X,X,X,X,X,Xq Z.E.'.+X|._.E.S V O.~.%.& 7 7 9 T Q 6.b.x.( R 1.( ; 8 6 6 - @.a X.#.a ,X,X,X,X,X,X,X",
",X,X,X,X,X,X,X,X+ } A.F.T.L.] j 5 f -.~.i 6 8 7 l ^ ( ( _ _ ( Q T 6 7 6 - f X.y X.#.y ,X,X,X,X,X,X,X",
",X,X,X,X,X,X,X,X,X,X+ 8.S.~ 2 < % t -.-.+.$ 9 9 8 R / ^ E l R R 6 7 6 @ o.&.y u +.@.a ,X,X,X,X,X,X,X",
",X,X,X,X,X,X,X,X,X,X,X,X+ O     O = %.=.#.i   9 R k 9 R Q ^ R 6 l k 7 % -.=.t X.o.#.* ,X,X,X,X,X,X,X",
",X,X,X,X,X,X,X,X,X,X,X,X,X,X,XO X.u u *.%.#.# X 7 g l T E R w k l X # X.+.i f +.+.@.o ,X,X,X,X,X,X,X",
",X,X,X,X,X,X,X,X,X,X,X,X,X,X,X,Xd $.$.i o.+.o.u y #.X.y y u y # f t i t y $.X.+.u $ ,X,X,X,X,X,X,X,X",
",X,X,X,X,X,X,X,X,X,X,X,X,X,X,X,X% %.%.#.i t t t # y y u i i u f o.u i u +.u =.=.#.$ ,X,X,X,X,X,X,X,X",
",X,X,X,X,X,X,X,X,X,X,X,X,X,X,X,X,Xd -.&.f f y t u i u +.@.#.@.o.o.i i u +.o.X.#.a O ,X,X,X,X,X,X,X,X",
",X,X,X,X,X,X,X,X,X,X,X,X,X,X,X,X,Xo &.=.O.f # u u i u +.@.@.+.@.@.X.i u +.X.y & o ,X,X,X,X,X,X,X,X,X",
",X,X,X,X,X,X,X,X,X,X,X,X,X,X,X,X,X,X* t @.# +.o.u i u @.#.@.#.$.$.X.X.u &.&.d ,X,X,X,X,X,X,X,X,X,X,X",
",X,X,X,X,X,X,X,X,X,X,X,X,X,X,X,X,X,X,XO $ d %.#.X.X.i %.#.%.*.$.%.X.o.f =.&.a ,X,X,X,X,X,X,X,X,X,X,X",
",X,X,X,X,X,X,X,X,X,X,X,X,X,X,X,X,X,X,X,X,Xd *.&.@.o.X.$.$.=.=.&.=.i +.X.-.=.,X,X,X,X,X,X,X,X,X,X,X,X",
",X,X,X,X,X,X,X,X,X,X,X,X,X,X,X,X,X,X,X,X,X% #.=.-.i +.X.=.%.%.=.$.X.f +.f $ ,X,X,X,X,X,X,X,X,X,X,X,X",
",X,X,X,X,X,X,X,X,X,X,X,X,X,X,X,X,X,X,X,X,X,Xo p O.y u u +.*.=.#.y t $ o ,X,X,X,X,X,X,X,X,X,X,X,X,X,X",
",X,X,X,X,X,X,X,X,X,X,X,X,X,X,X,X,X,X,X,X,X,X,X,X,X,X,X,X,X,X,X,X,X,X,X,X,X,X,X,X,X,X,X,X,X,X,X,X,X,X",
",X,X,X,X,X,X,X,X,X,X,X,X,X,X,X,X,X,X,X,X,X,X,X,X,X,X,X,X,X,X,X,X,X,X,X,X,X,X,X,X,X,X,X,X,X,X,X,X,X,X",
",X,X,X,X,X,X,X,X,X,X,X,X,X,X,X,X,X,X,X,X,X,X,X,X,X,X,X,X,X,X,X,X,X,X,X,X,X,X,X,X,X,X,X,X,X,X,X,X,X,X"
};
