/* XPM */
static char *result[] = {
/* columns rows colors chars-per-pixel */
"50 50 145 2 ",
"   c #163A2D",
".  c #1E3C2E",
"X  c #163E30",
"o  c #1E3E31",
"O  c #2D3B2F",
"+  c #313A2F",
"@  c #243E31",
"#  c #283E31",
"$  c #303B30",
"%  c #3A3C32",
"&  c #174031",
"*  c #1A4435",
"=  c #1C4738",
"-  c #154B3B",
";  c #1B4D3C",
":  c #10523F",
">  c #1B513E",
",  c #244535",
"<  c #2F4536",
"1  c #2E4B36",
"2  c #214738",
"3  c #234A3A",
"4  c #354435",
"5  c #3B4436",
"6  c #354C37",
"7  c #304A3A",
"8  c #394E3A",
"9  c #2D523E",
"0  c #34543E",
"q  c #3E523B",
"w  c #444335",
"e  c #4B4335",
"r  c #434837",
"t  c #434C39",
"y  c #4A4C3A",
"u  c #524738",
"i  c #554C3A",
"p  c #5D4E3C",
"a  c #41543C",
"s  c #4A533E",
"d  c #44583F",
"f  c #5B513E",
"g  c #604F3E",
"h  c #6A573F",
"j  c #6A583F",
"k  c #175443",
"l  c #1B5442",
"z  c #155A47",
"x  c #1C5946",
"c  c #155E4A",
"v  c #1C5E4A",
"b  c #245041",
"n  c #2A5446",
"m  c #375741",
"M  c #3D5740",
"N  c #365B42",
"B  c #3A5B43",
"V  c #335549",
"C  c #35594C",
"Z  c #0E684F",
"A  c #15634E",
"S  c #1D614D",
"D  c #19684E",
"F  c #1F704D",
"G  c #0F6C53",
"H  c #156651",
"J  c #1A6551",
"K  c #156C55",
"L  c #196C51",
"P  c #136F58",
"I  c #0E7257",
"U  c #0E765E",
"Y  c #0D7A5E",
"T  c #1B7354",
"R  c #1F7853",
"E  c #11725B",
"W  c #197759",
"Q  c #157D5E",
"!  c #1C7B5A",
"~  c #246344",
"^  c #20674F",
"/  c #246B4C",
"(  c #296B49",
")  c #22704E",
"_  c #2B754C",
"`  c #247352",
"'  c #2A7651",
"]  c #267F57",
"[  c #2C7D53",
"{  c #0B7E61",
"}  c #465B41",
"|  c #4A5D42",
" . c #436246",
".. c #4C6245",
"X. c #4E6648",
"o. c #4F6849",
"O. c #526C4C",
"+. c #56714E",
"@. c #59754F",
"#. c #577250",
"$. c #597551",
"%. c #5D7B53",
"&. c #607E55",
"*. c #637F75",
"=. c #17845F",
"-. c #1C825D",
";. c #1E895F",
":. c #278457",
">. c #23865D",
",. c #238C5F",
"<. c #2C8D5C",
"1. c #328757",
"2. c #358957",
"3. c #348C5A",
"4. c #26905F",
"5. c #2C925E",
"6. c #35945C",
"7. c #38965C",
"8. c #379A5F",
"9. c #3A9A5F",
"0. c #078664",
"q. c #098463",
"w. c #0F8963",
"e. c #128661",
"r. c #188560",
"t. c #148A62",
"y. c #1C8C60",
"u. c #218E60",
"i. c #259261",
"p. c #2F9360",
"a. c #369D63",
"s. c #3C9E61",
"d. c #3EA162",
"f. c #5F8052",
"g. c #638356",
"h. c #668A56",
"j. c #698D57",
"k. c #678A58",
"l. c #698E58",
"z. c #6C9358",
"x. c #6C847B",
"c. c #41A564",
"v. c #97ABA4",
"b. c #A5B3AE",
"n. c None",
/* pixels */
"n.n.n.n.n.n.n.n.n.n.n.n.n.n.n.n.n.n.n.n.n.n.n.n.n.n.n.n.n.n.n.n.n.n.n.n.n.n.n.n.n.n.n.n.n.n.n.n.n.n.",
"n.n.n.n.n.n.n.n.n.n.n.n.D b n.n.n.n.n.n.n.n.n.n.n.n.n.n.n.n.n.n.n.n.n.n.L b n.n.n.n.n.n.n.n.n.n.n.n.",
"n.n.n.n.n.n.n.n.n.n.n.' 9.2.~ n.n.n.n.n.n.n.n.n.n.n.n.n.n.n.n.n.n.n.n.n.6.7.( n.n.n.n.n.n.n.n.n.n.n.",
"n.n.n.n.n.n.n.n.n.n.x 2.c.c.[ n.n.n.n.n.n.n.n.n.n.n.n.n.n.n.n.n.n.n.n.' d.c.2.n n.n.n.n.n.n.n.n.n.n.",
"n.n.n.n.n.n.n.n.) A / 7.c.c.3.S L ( n.n.n.n.n.n.n.n.n.n.n.n.n.n.` D ~ 1.c.c.7.( L / n.n.n.n.n.n.n.n.",
"n.n.n.n.n.n.n.` 5.;.5.c.c.c.d.>.,.<.) n.n.n.n.n.n.n.n.n.n.n.n.` <.u.u.s.c.c.c.5.;.<.) n.n.n.n.n.n.n.",
"n.n.n.n.n.n.! -.u.i.d.c.c.c.c.a.4.;.-.W n.n.n.n.n.n.n.n.n.n.W ! y.i.d.c.c.c.c.d.i.y.-.W n.n.n.n.n.n.",
"n.n.n.n.n.T <.7.s.9.d.c.c.c.c.s.8.6.6.>.D n.n.n.n.n.n.n.n.D <.6.a.a.s.c.c.c.c.c.8.6.7.<.T n.n.n.n.n.",
"n.n.n.n.- :.6.9.s.9.9.d.c.c.d.7.7.7.7.6.R n.n.n.n.n.n.n.n.D 7.7.s.s.9.d.c.c.d.7.7.7.7.6.,.> n.n.n.n.",
"n.n.n.n.n._ 6.,.8.d.d.9.c.c.9.7.7.5.4.3.~ n.n.n.n.n.n.n.n.~ 6.5.5.d.c.7.c.c.9.7.7.6.4.6._ n.n.n.n.n.",
"n.n.n.n.: U e.5.9.8.6.7.7.7.7.6.7.7.4.e.G - n.n.n.n.n.n.- Z e.4.6.s.6.7.7.7.7.6.6.6.5.e.Y : n.n.n.n.",
"n.n.n.z I Q ,.6.6.4.5.7.7.7.6.,.4.7.6.=.Y G k n.n.n.n.k G Y =.6.6.5.4.7.7.7.7.5.4.6.6.,.=.I z n.n.n.",
"n.n.; K q.{ =.>.y.t.5.6.7.7.6.,.=.;.;.Q Y q.c n.n.n.n.c q.Y Q ;.,.e.,.7.7.7.7.<.=.=.;.=.{ { G - n.n.",
"n.n.~ ] y.{ { { q.0.=.;.6.6.,.e.0.0.Y q.q.q.I z n.n.~ ' ;.e.{ q.0.q.q.>.5.7.,.=.0.0.{ q.q.q.U c n.n.",
"n.n._ 6.y.w.0.0.0.0.q.{ Q =.{ 0.0.0.w.0.0.0.q.A n.n.( 6.4.t.q.0.0.0.q.q.Q =.q.q.0.0.w.q.0.q.{ H n.n.",
"n.n.> L r.u.t.0.0.0.0.q.q.q.q.q.t.w.4.u.q.q.A n.n.n.n.D =.,.t.0.0.0.q.q.q.q.0.0.t.t.;.4.w.q.G k n.n.",
"n.n.- K t.t.0.0.0.0.0.0.0.0.0.w.4.y.t.y.q.0.c n.n.n.n.c e.y.w.0.0.0.0.0.0.0.0.0.y.u.t.y.e.q.G - n.n.",
"n.n.k P 0.0.0.0.0.0.0.0.0.0.0.0.y.6.y.0.0.0.K - n.n.- K q.0.0.0.0.0.0.0.0.0.0.0.t.p.y.w.q.q.I l n.n.",
"n.X x P Y { { { 0.0.0.0.0.0.0.{ t.5.;.q.{ E K l     l K E { q.q.0.0.0.0.0.0.0.0.w.u.i.q.{ { P x & n.",
"n.; J P P P { { 0.{ 0.0.0.0.{ { q.w.q.E K K P c - - c P K L I q.0.{ { { 0.0.0.{ { w.w.U K K P H k n.",
"n.z P P E E { { { E { { 0.0.0.{ E q.q.E E E P K k k K P E E U q.{ E { { 0.0.{ { E { q.{ E E K P c n.",
"n.k H E U { { E P E U { { { { U P K U Y U U E A l n.c I U U Y U P P E { { { { U P P E U U U E H k n.",
"n.n.H U U { { U U U U U { U U U E E E U U U U z n.n.c U U { { U U U U U { { { U U U U U U U U A - n.",
"n.= l A { { { { { { U U U U U U Y Y Y U U E v l ; = l v U { Y q.{ { U U U U U U U U U U U U J l ; n.",
"= l J P U U q.q.{ { U U U U U U E { E { E U P v ; ; v K E { { { { { U U U U U U U U U U E E P A l = ",
"; H c z H U { { U P P U U U U P E P { E P H z v ; A A c H P { { { U K U U U E P P U U U E K c v x = ",
"k H l v K U E E U P P U U U U J P { E P E H b l = H k l H E E E { P J U U { E P P U P P E K c l l = ",
"* ; l S v J L U P S P U { U U J J P U J S S S l = k l S S S H U E H J E U U { P S P U P S S n x l = ",
"3 ; l S S v v H v S J U U U E J v c J z v S v l 3 ; l v S S c H v S J E U U E H v v H c v v v v l 3 ",
"x.b l v v v l v S S S E U E P S S v x x v v v l *.n ; v S n x v v S S K E U E J J v v v v v v l b x.",
"b.b l v l v v v S S S J E E J S S v v v l v v l v.C l v x x v v v S J J E E J J S v v v v l v l n b.",
"V = ; l l l l l v v S S J S S v S v l x l l l ; V = ; l ; l l l v S S n J J J v v v l l v = l l = V ",
"* * * = - ; ; ; x b x ~ S S v l l v > ; ; ; * * * & * * ; ; ; ; x l l v S S S l l S > > ; = * * = * ",
"n.N 0 2 ; ; ; > x > > x S v v ; l x > ; ; ; 3 0 N N 0 9 ; ; ; ; x l > l S S x > > l > ; > ; 3 0 B n.",
"n.%.O.n ; ; ; ; > > > > S n l ; ; l ; > ; ; m +.f.f.+.0 ; ; ; ; l > ; > n S l ; > > > > > > 9 O.%.n.",
"n.j.%.B 3 = * ; > 3 * ; > ; - = 9 ; - * , 3  .g.z.z.g. .3 2 * - ; 3 , ; > > ; - 3 3 > * * 3 0 %.z.n.",
"n.j.%.o.B 8 1 * < 4   * > ; & . 5 , , 7 q } o.@.g.j.%.O. .q 1 , , 5 .   - ; *   4 < , 1 8 q ..+.g.n.",
"n.z.g.%.O.o...7 5 % O o ; - @ + % 5 q | o.O.$.g.h.z.k.%.O.o.o.m 5 % + < ; ; @ O % 5 6 | X.+.@.f.z.n.",
"n.l.&.$.o...} r w e i i , , w e w r 8 | o.f.l.z.n.z.g.%.O.o...t w e e i 7 @ w e w w 5 } ..%.j.z.z.n.",
"n.z.h.%.O.o.} w w e p j i e u e e e r | o.$.g.z.n.z.h.g.O.o.} r w e u j i w u e e e w d X.+.g.h.z.n.",
"n.z.l.%.#.O.| } 8 t y f p u e a q a a ..+.o.%.j.n.z.z.g.O.@.X.d q q a p p u e y 8 a q } O.O.@.j.z.n.",
"n.n.g.%.&.%.+...a a a y u e e a q a ....O.+.g.l.n.n.k.%.%.g.+.o.a a a y u e e t a d } ..O.@.&.l.n.n.",
"n.n.z.g.k.g.%.O...| | y w e s | | ..X.o.O.%.g.z.n.n.z.g.g.k.%.+.....| s e w y | | | X.X.O.$.g.z.n.n.",
"n.n.z.z.z.$.O.o.O.O.o.| d s ..X.X.X.o.O.O.#.g.z.n.n.n.z.j.g.O.O.X.O.o...| | ....o.X.o.O.O.O.&.l.z.n.",
"n.n.n.j.h.&.@.O.$.%.+.O.O.X.X.O.O.o.O.O.@.g.j.z.n.n.n.j.g.g.%.O.#.&.$.O.o.X.X.o.O.o.O.O.O.g.h.z.z.n.",
"n.n.z.%.&.l.g.&.k.l.g.g.@.@.@.O.$.$.%.&.j.n.n.n.n.n.n.g.%.h.g.&.g.z.g.g.%.#.@.O.+.$.%.%.h.z.n.n.n.n.",
"n.n.n.h.k.l.k.g.z.g.h.z.k.g.g.%.%.k.h.z.z.n.n.n.n.n.n.h.h.z.k.h.z.g.k.z.j.&.g.%.%.g.h.z.z.n.n.n.n.n.",
"n.n.n.n.n.n.z.n.n.k.l.n.n.j.n.h.f.z.z.n.z.n.n.n.n.n.n.n.n.n.z.n.n.l.h.z.n.z.n.j.g.j.z.n.z.n.n.n.n.n.",
"n.n.n.n.n.n.n.n.n.z.n.n.n.n.n.n.z.z.n.n.n.n.n.n.n.n.n.n.n.n.n.n.n.z.z.n.n.n.n.n.z.z.n.n.n.n.n.n.n.n.",
"n.n.n.n.n.n.n.n.n.n.n.n.n.n.n.n.n.n.n.n.n.n.n.n.n.n.n.n.n.n.n.n.n.n.n.n.n.n.n.n.n.n.n.n.n.n.n.n.n.n."
};
