/* XPM */
static char *result[] = {
/* columns rows colors chars-per-pixel */
"50 50 128 2 ",
"   c #1D1D1D",
".  c #2E231F",
"X  c #37201F",
"o  c #3E241E",
"O  c #2F1E22",
"+  c #331F20",
"@  c #242424",
"#  c #2B2627",
"$  c #292F26",
"%  c #2D2528",
"&  c #292929",
"*  c #362424",
"=  c #3C2322",
"-  c #332823",
";  c #3C2A26",
":  c #342628",
">  c #342D2A",
",  c #3C2D2A",
"<  c #35332C",
"1  c #3C322C",
"2  c #323A2E",
"3  c #3D3A2F",
"4  c #3D3630",
"5  c #343C30",
"6  c #3D3A31",
"7  c #42251F",
"8  c #49271F",
"9  c #442522",
"0  c #4A2721",
"q  c #422A25",
"w  c #4D2922",
"e  c #432628",
"r  c #4A2628",
"t  c #422A29",
"y  c #4C2B29",
"u  c #542A22",
"i  c #5B2C24",
"p  c #532D28",
"a  c #5D2C28",
"s  c #4E3126",
"d  c #43322E",
"f  c #503225",
"g  c #5B3326",
"h  c #55312C",
"j  c #5C322A",
"k  c #423032",
"l  c #423C32",
"z  c #4D3D33",
"x  c #642E25",
"c  c #692F26",
"v  c #643426",
"b  c #6C3127",
"n  c #653A27",
"m  c #62322A",
"M  c #6D3229",
"N  c #6C3A2C",
"B  c #703127",
"V  c #753329",
"C  c #79362A",
"Z  c #733A2B",
"A  c #7D3C2B",
"S  c #374132",
"D  c #3D4536",
"F  c #3E4C37",
"G  c #444436",
"H  c #4B4436",
"J  c #434E3A",
"K  c #494938",
"L  c #524537",
"P  c #544738",
"I  c #544939",
"U  c #5C4C3B",
"Y  c #44543D",
"T  c #4C543F",
"R  c #45583F",
"E  c #55513B",
"W  c #5E523D",
"Q  c #74422A",
"!  c #7D412B",
"~  c #64533D",
"^  c #5B4C4D",
"/  c #475741",
"(  c #455A41",
")  c #4B5B43",
"_  c #5A4E52",
"`  c #4C6246",
"'  c #4F674A",
"]  c #526C44",
"[  c #52674A",
"{  c #536C4C",
"}  c #56714E",
"|  c #5A774C",
" . c #5B7A4C",
".. c #577150",
"X. c #597551",
"o. c #5E7C53",
"O. c #607F54",
"+. c #833E2C",
"@. c #86422D",
"#. c #89442D",
"$. c #8F482F",
"%. c #90492F",
"&. c #8D522F",
"*. c #93542F",
"=. c #844731",
"-. c #894530",
";. c #944B31",
":. c #994F32",
">. c #975331",
",. c #9C5233",
"<. c #A35635",
"1. c #A65836",
"2. c #AA5D36",
"3. c #A46132",
"4. c #AD6335",
"5. c #B16635",
"6. c #B46A35",
"7. c #5F8051",
"8. c #638455",
"9. c #668A57",
"0. c #688D57",
"q. c #678B58",
"w. c #698E58",
"e. c #6A9157",
"r. c #6B9258",
"t. c #8D8384",
"y. c #A29B9D",
"u. c None",
/* pixels */
"u.u.u.u.u.u.u.u.u.u.u.u.u.g s u.u.u.u.u.u.u.u.u.  @ & u.u.u.u.u.u.u.s f - u.u.u.u.u.u.u.u.u.u.u.u.u.",
"u.u.u.u.u.u.u.u.u.u.u.; Q 3.&.; u.u.u.u.u.u.u.u.  u.u.u.u.u.u.u.u.w *.3.n . u.u.u.u.u.u.u.u.u.u.u.u.",
"u.u.u.u.u.u.u.u.$ u.u y *.5.3.n = u.u.u.u.u.u.& u.u.u.u.u.u.u.u.9 n 4.5.&.s f u.u.& u.u.u.u.u.u.u.u.",
"u.u.u.u.u.u.u.u.; ! #.@.4.6.6.*.! @.n u.u.u.u.u.u.u.u.u.u.u.N -.@.,.6.6.4.! #.Q u.# u.u.u.u.u.u.u.u.",
"u.u.u.u.u.u.u.u.x +.:.<.6.6.6.5.>.;.A u.u.u.u.u.u.u.u.u.u.u.A ;.,.5.6.6.6.1.:.+.b # u.u.u.u.u.u.u.u.",
"u.u.&   @ u.u.v <.2.5.4.6.6.6.5.2.1.<.A a u.u.& u.  & u.g A <.4.4.6.6.6.6.4.1.1.,.g = u.u.@ @ @ u.u.",
"u.u.u.u.u.@ y =.2.4.4.2.5.6.6.2.1.1.1.,.N u.u.u.@ @   u.Z ,.2.5.2.2.6.6.4.1.1.1.1.#.t u.@ u.u.u.u.u.",
"u.u.u.u.u.u.; n ,.:.4.4.2.5.2.1.<.<.>.-.m u.u.u.@   @ & j #.:.1.4.1.4.5.2.1.1.:.,.N : & u.u.u.u.u.u.",
"u.u.u.u.u.u.p Z ;.1.1.<.1.1.1.1.<.1.:.+.m e u.& u.u.u.r M =.:.1.1.1.1.1.1.<.1.1.;.V y : u.u.u.u.u.u.",
"u.@ u.u.u.y A A -.;.;.;.1.1.1.1.$.:.;.+.+.m % u.u.u.u.N A +.$.:.%.<.1.1.1.;.:.:.-.A Z t # u.u.u.@ u.",
"u.u.  O , N $.@.+.#.$.#.:.<.<.%.-.#.+.+.+.Z y u.u.u.j =.#.+.+.-.#.%.:.<.:.$.+.+.+.#.A j , #     u.u.",
"u.u.u.  p =.;.$.#.+.#.+.+.#.#.+.#.+.#.#.#.+.j u.u.u.Q :.;.-.+.-.#.+.#.$.+.+.$.+.#.#.@.Z y u.u.u.u.u.",
"u.u.u.u.u.y #.>.$.#.#.@.#.#.@.#.$.;.<.;.@.m u.u.u.u.u.Z ;.:.#.#.#.@.#.#.#.$.#.:.<.#.A e u.u.u.u.u.u.",
"u.u.u.u.u.p #.#.#.#.#.#.#.@.#.#.;.:.$.#.#.N = u.u.u.= A $.#.#.#.#.@.@.#.@.$.>.;.-.#.+.p u.u.u.u.u.u.",
"u.u.u.u.= i A @.+.#.#.+.@.@.@.@.$.,.;.#.+.V 9 u.u.u.9 Z A @.+.#.@.@.#.#.#.@.;.<.#.@.A i = u.u.u.u.u.",
"u.u.u.u.r c b b A #.+.+.#.@.#.@.+.$.@.V M c a = u.= i b b V +.#.+.+.@.#.@.+.@.;.A b c c r u.u.u.u.u.",
"u.u.u.: u c b B +.+.V V +.+.+.+.V A +.V B c x r u.r x c B V A A B +.+.+.+.+.B +.+.B B B i : u.u.u.u.",
"u.u.& u.u b V C V B B V +.+.+.+.b b Z V V V x e u.e a V V C Z M B +.+.+.+.B B B V V V c y % u.& u.u.",
"  @ u.u.e x C +.V +.V V V V V V V C V V V c p u.u.u.p B +.+.C C V V V V V V V V V V B x e u.u.u.@   ",
"  u.u.* 9 i V C +.+.+.V +.V V V C V V V V c w + u.= w c C A +.+.+.V V V V V +.V V B B i 9 = u.u.u.  ",
"& u.u.e u i c V +.+.V V V V V V V V V B B x u 9 = r u c B A +.A V V V V V V V V V B c i 8 + u.u.u.& ",
"u.u.u.9 u 8 i c V V b c V V V V c V V c c w 8 9 = u u u c M B V c B V V V c B V B c i 8 0 9 u.u.u.u.",
"u.u.u.= 8 u i u B V i x V V V V i x B i i i 8 7 : 9 0 u i x B c i V V V V x i V c i i u w + u.u.u.u.",
"u.u.u.k 7 u u u i i u i V V V b u i i u u u 8 e k ; 9 u u u i u u c V V V i w x i u u u 0 k u.u.u.u.",
"u.u.u.t.= u u u u u u i b V V i u u u u u u 9 ^ y.^ 9 u u u u u u i V V c u u u u u u u = t.u.u.u.u.",
"u.u.u._ o 7 9 7 8 7 u u i i i u u u 8 8 9 9 9 t _ t o 9 9 8 8 u u u i x i u u 8 8 8 7 7 o ^ u.u.u.u.",
"u.u.u.* X = = 7 7 o w 8 u u i w 8 8 7 7 o X = + O + = * o 7 7 8 w u u u u 8 u o o 7 X X * O u.u.u.u.",
"u.u.u.6 6 > = o o 7 8 7 w u u 8 8 8 o 7 o : 6 l u.l 4 : o 7 7 8 7 8 u u w 7 8 7 o o = < l < u.u.u.u.",
"& u.u. .7.) ; o o o 7 o 7 w 8 7 9 7 o o = l X.8.u.8.o., o o o 7 9 o 8 w 7 = 7 7 o o ; ` O.` u.u.u.& ",
"@ u.u.u.8.[ l , * o t : o 7 7 + t ; X ; , / o.q.u.q.o.J , ; o ; ; + 7 7 o ; q X * 1 l [ 8.u.u.u.u.@ ",
"@   u.u.8.o.[ ) Y > 3 , * X = : 3 3 D R ) ..O.q.u.r.8.X.` ( D 3 1 - * = * , 6 > Y ) [ | 8.{ u.u.  @ ",
"u.  @ ] q.o.{ ' ( G G H z t ; H G G Y ` ..q.r.r.u.r.8.X.' ` ( G H P d ; d H K G Y { o.q.e.` @ @   u.",
"u.u.u.u.0.8.{ { Y G G I ~ L H L K G J ` { 7.e.u.u.q.q.o.{ ` J G H ~ U z L H H G ( [ X.9.e.u.u.u.u.u.",
"u.u.u.u.r.8.X...) F J J W U L K F Y Y ' { X.q.u.u.r.q.o...{ / J F E U P H J J F ( { ..8.e.u.u.u.u.u.",
"u.u.u.u.e.8.8.8.X.` ( ( K L H Y R ( ` ' ..8.e.u.u.u.q.O.8.O.{ ( R T H H K ( ( ` ` { o.q.u.u.u.u.u.u.",
"u.u.u.u.u.e.9.o.} ' ` ` ) T / ) ' ` { { { O.q.u.u.u.r.0.8.X.{ ' ` ` T / ) ` ` ' ' { X.8.e.u.u.u.u.u.",
"u.u.u.u.u.r.9.o...{ X.X.[ [ [ ' [ ' { { X.8.r.u.u.u.u.e.8.X.{ ..X.{ ' ' ' { { ' { } o.q.r.u.u.u.u.u.",
"u.u.u.& S 8.8.9.o.X.9.8.o.} { { ..} X.o.9.r.r.u.u.u.u.X.8.8.o.8.9.o.X.....{ ..{ X.7.e.e. .$ & u.u.u.",
"u.u.@ u.$ F } 7.8.O.e.q.q.9.9.8.o.8.q.r.r.u.u.u.u.u.u.8.0.q.9.e.9.q.q.9.8.o.8.8.9. .u.u.@   u.& u.u.",
"u.u.u.u.u.u.2 F | u.q.q.u.u.u.e.8.e.u.u.u.u.u.u.u.u.u.u.u.u.u.u.9.e.u.u.u.8.9.q.u.` 5 @ u.u.u.u.u.u.",
"u.u.u.u.u.u.@ @ @ u.u.u.u.u.u.u.u.u.u.u.u.u.u.u.u.u.u.u.u.u.@ u.u.u.u.u.u.u.] u.u.> < & u.u.u.u.u.u.",
"u.u.u.@ @ @ @ @ & @ u.u.u.u.  @ @ & & u.u.u.u.u.u.@ u.u.u.u.@ @ @ u.u.u.  @ & @ $ u.u.u.@ @ @ u.u.u.",
"u.u.u.u.u.u.u.u.u.& u.u.u.@ @ u.u.u.u.u.u.& @   @ u.u.u.u.u.u.u.u.@ & @ @ u.u.u.& u.u.u.u.u.u.u.u.u.",
"u.u.u.u.u.u.u.u.u.& u.u.& @ u.u.u.u.u.u.u.u.  @ & u.u.u.u.u.u.u.u.u.& & u.u.u.u.& u.u.u.u.u.u.u.u.u.",
"u.u.u.u.u.u.u.u.u.@ @ u.u.u.& u.u.u.u.u.u.u.@   u.& u.u.u.u.u.u.u.u.u.u.@ u.u.@ @ u.u.u.u.u.u.u.u.u.",
"u.u.u.u.u.u.u.u.u.u.@ @ u.u.u.@ u.u.u.u.u.u.u.u.u.u.u.u.u.u.u.u.& u.u.u.u.@ u.@ u.u.u.u.u.u.u.u.u.u.",
"u.u.u.u.u.u.u.u.u.u.@ @ u.u.u.u.u.u.u.u.u.u.u.u.u.u.u.u.u.u.u.u.  u.u.u.u.@ u.& u.u.u.u.u.u.u.u.u.u.",
"u.u.u.u.u.u.u.u.u.u.@ @ u.u.u.u.u.u.u.u.u.u.u.u.u.@ u.u.u.u.u.u.  u.u.u.u.@ u.@ u.u.u.u.u.u.u.u.u.u.",
"u.u.u.u.u.u.u.u.u.u.u.    u.u.u.u.u.u.u.u.u.u.u.@ u.u.u.u.u.u.u.u.& u.u.u.u.u.u.u.u.u.u.u.u.u.u.u.u.",
"u.u.u.u.u.u.u.u.& u.u.u.@ @ @ u.u.u.u.u.u.u.& @   u.u.u.u.u.u.u.u.u.u.u.u.u.u.u.u.& u.u.u.u.u.u.u.u."
};
